<svg xmlns="http://www.w3.org/2000/svg" viewBox="0 0 64 64" fill="none" shape-rendering="auto" aria-hidden="true"><metadata xmlns:rdf="http://www.w3.org/1999/02/22-rdf-syntax-ns#" xmlns:xsi="http://www.w3.org/2001/XMLSchema-instance" xmlns:dc="http://purl.org/dc/elements/1.1/" xmlns:dcterms="http://purl.org/dc/terms/"><rdf:RDF><rdf:Description><dc:title>Miniavs - Free Avatar Creator</dc:title><dc:creator>Webpixels</dc:creator><dc:source xsi:type="dcterms:URI">https://www.figma.com/community/file/923211396597067458</dc:source><dcterms:license xsi:type="dcterms:URI">https://creativecommons.org/licenses/by/4.0/</dcterms:license><dc:rights>Remix of “Miniavs - Free Avatar Creator” (https://www.figma.com/community/file/923211396597067458) by “Webpixels”, licensed under “CC BY 4.0” (https://creativecommons.org/licenses/by/4.0/)</dc:rights></rdf:Description></rdf:RDF></metadata><defs><g id="head-thin-05c53bd5"><path d="M32.89 23.1c0 8.92-3.9 18.9-10.39 20.4l-.5-.06v9.43S18.36 55 13.5 55 5 51.52 5 51.52V29a5 5 0 0 1-1.3-9.83C2.36 9.64 4.5 0 19 0c14.6 0 14.24 11.08 13.96 19.81q-.07 1.73-.07 3.29" fill="#dda37a"/><path d="M5 29v22.52S8.64 55 13.5 55s8.5-2.13 8.5-2.13v-9.43c-7.26-1.02-13.9-7.5-16.45-14.47Q5.28 29 5 29" fill="black" fill-opacity=".07"/><path d="M3.7 19.17a5 5 0 0 0 1.85 9.8 17 17 0 0 1-1.12-5.87 47 47 0 0 1-.73-3.93m18 24.23C14.95 42.3 8.8 36.52 6 30.1v.4c0 5.65 6.27 14.47 9.38 15.49 2.57.83 5.4.65 6.32-2.6" fill="black" fill-opacity=".07"/><rect x="23" y="28" width="3" height="2" rx="1" fill="black" fill-opacity=".07"/></g><g id="body-golf-05c53bd5"><rect y="3" width="40" height="23" rx="9" fill="#e05a33"/><path d="M10 1h19v3s-5 1-9.5 1S10 4 10 4z" fill="#e05a33"/><path d="M10 1h19v2s-3 1.5-9.5 1.5S10 3 10 3z" fill="black" fill-opacity=".2"/><path d="M9.5 2c0-1.1.9-2 2-2h16a2 2 0 0 1 2 2s-5 1-10 1-10-1-10-1" fill="#e05a33"/></g><g id="hair-balndess-05c53bd5"><rect x="14" y="23" width="9" height="2" rx="1" fill="#4a3028"/><rect x="14" y="30" width="7" height="2" rx="1" fill="#4a3028"/><rect x="12" y="26" width="13" height="3" rx="1.5" fill="#4a3028"/></g><g id="mouth-missingTooth-05c53bd5"><path d="M0 1a1 1 0 0 1 1-1h9.14a1 1 0 0 1 1 1 5 5 0 0 1-5 5H5a5 5 0 0 1-5-5" fill="#66253C"/><path d="M0 1.2C1.01.82 2.66 1 4.07 1c2.2 0 4 1.56 4 3.5q0 .64-.24 1.2a5 5 0 0 1-1.69.3H5a5 5 0 0 1-5-4.8" fill="#B03E67"/><path d="M1.07 0h10v1a1 1 0 0 1-1 1h-8a1 1 0 0 1-1-1z" fill="white"/><path d="M3.07.3c0-.17.13-.3.3-.3h1.4c.17 0 .3.13.3.3v2.4a.3.3 0 0 1-.3.3h-1.4a.3.3 0 0 1-.3-.3z" fill="#B03E67"/></g><g id="eyes-normal-05c53bd5"><rect x="1" width="3" height="4" rx="1.5" fill="#4a3028"/><rect x="11" width="3" height="4" rx="1.5" fill="#4a3028"/></g><g id="blush-default-05c53bd5"><rect width="5" height="3" rx="1.5" fill="#FF859B"/><rect x="19" width="4" height="3" rx="1.5" fill="#FF859B"/></g><g id="glasses-normal-05c53bd5"><circle cx="5.27" cy="5.27" r="4.27" stroke="black" stroke-width="2"/><circle cx="19.27" cy="5.27" r="4.27" stroke="black" stroke-width="2"/><line x1="8.99" y1="4.11" x2="15.99" y2="4" stroke="black" stroke-width="2"/></g><clipPath id="clip-05c53bd5"><rect width="64" height="64" rx="0" ry="0"/></clipPath></defs><g clip-path="url(#clip-05c53bd5)"><use transform="translate(13 13)" href="#head-thin-05c53bd5"/><use transform="translate(7 57)" href="#body-golf-05c53bd5"/><use transform="translate(0 3)" href="#hair-balndess-05c53bd5"/><use transform="translate(28.93 45)" href="#mouth-missingTooth-05c53bd5"/><use transform="translate(29 35)" href="#eyes-normal-05c53bd5"/><use transform="translate(24 38)" href="#blush-default-05c53bd5"/><use transform="translate(25 31)" href="#glasses-normal-05c53bd5"/></g></svg>