<svg xmlns="http://www.w3.org/2000/svg" viewBox="0 0 64 64" fill="none" shape-rendering="auto" aria-hidden="true"><metadata xmlns:rdf="http://www.w3.org/1999/02/22-rdf-syntax-ns#" xmlns:xsi="http://www.w3.org/2001/XMLSchema-instance" xmlns:dc="http://purl.org/dc/elements/1.1/" xmlns:dcterms="http://purl.org/dc/terms/"><rdf:RDF><rdf:Description><dc:title>Miniavs - Free Avatar Creator</dc:title><dc:creator>Webpixels</dc:creator><dc:source xsi:type="dcterms:URI">https://www.figma.com/community/file/923211396597067458</dc:source><dcterms:license xsi:type="dcterms:URI">https://creativecommons.org/licenses/by/4.0/</dcterms:license><dc:rights>Remix of “Miniavs - Free Avatar Creator” (https://www.figma.com/community/file/923211396597067458) by “Webpixels”, licensed under “CC BY 4.0” (https://creativecommons.org/licenses/by/4.0/)</dc:rights></rdf:Description></rdf:RDF></metadata><defs><g id="head-thin-00c533f6"><path d="M32.89 23.1c0 8.92-3.9 18.9-10.39 20.4l-.5-.06v9.43S18.36 55 13.5 55 5 51.52 5 51.52V29a5 5 0 0 1-1.3-9.83C2.36 9.64 4.5 0 19 0c14.6 0 14.24 11.08 13.96 19.81q-.07 1.73-.07 3.29" fill="#efc0a0"/><path d="M5 29v22.52S8.64 55 13.5 55s8.5-2.13 8.5-2.13v-9.43c-7.26-1.02-13.9-7.5-16.45-14.47Q5.28 29 5 29" fill="black" fill-opacity=".07"/><path d="M3.7 19.17a5 5 0 0 0 1.85 9.8 17 17 0 0 1-1.12-5.87 47 47 0 0 1-.73-3.93m18 24.23C14.95 42.3 8.8 36.52 6 30.1v.4c0 5.65 6.27 14.47 9.38 15.49 2.57.83 5.4.65 6.32-2.6" fill="black" fill-opacity=".07"/><rect x="23" y="28" width="3" height="2" rx="1" fill="black" fill-opacity=".07"/></g><g id="body-tShirt-00c533f6"><rect y="3" width="40" height="23" rx="9" fill="#e05a33"/></g><g id="hair-elvis-00c533f6"><path d="M22 25c-.63 3 1 6.98 1 7.74 0 .77-3.93 3.03-5 3.76s-1.5-7-1.5-7c-3 0-3.5 5.5-3.5 5.5s-2.25-.74-3-4.5c-.51-2.54.3-8.09.5-9.5.5-3.5 1-11.5 7.5-15.5s23-4 27-3c9.9 2.47 11.22 16 8 20.5-5 5.5-19-1-23.5-1s-6.87 0-7.5 3" fill="#4a3028"/></g><g id="mouth-default-00c533f6"><path d="M0 1a1 1 0 0 1 1-1h9.14a1 1 0 0 1 1 1 5 5 0 0 1-5 5H5a5 5 0 0 1-5-5" fill="#66253C"/><path d="M0 1.2C1.01.82 2.66 1 4.07 1c2.2 0 4 1.56 4 3.5q0 .64-.24 1.2a5 5 0 0 1-1.69.3H5a5 5 0 0 1-5-4.8" fill="#B03E67"/><path d="M1.07 0h10v1a1 1 0 0 1-1 1h-8a1 1 0 0 1-1-1z" fill="white"/></g><g id="eyes-normal-00c533f6"><rect x="1" width="3" height="4" rx="1.5" fill="#4a3028"/><rect x="11" width="3" height="4" rx="1.5" fill="#4a3028"/></g><clipPath id="clip-00c533f6"><rect width="64" height="64" rx="0" ry="0"/></clipPath></defs><g clip-path="url(#clip-00c533f6)"><use transform="translate(13 13)" href="#head-thin-00c533f6"/><use transform="translate(7 57)" href="#body-tShirt-00c533f6"/><use transform="translate(0 3)" href="#hair-elvis-00c533f6"/><use transform="translate(28.93 45)" href="#mouth-default-00c533f6"/><use transform="translate(29 35)" href="#eyes-normal-00c533f6"/></g></svg>