<svg xmlns="http://www.w3.org/2000/svg" viewBox="0 0 64 64" fill="none" shape-rendering="auto" aria-hidden="true"><metadata xmlns:rdf="http://www.w3.org/1999/02/22-rdf-syntax-ns#" xmlns:xsi="http://www.w3.org/2001/XMLSchema-instance" xmlns:dc="http://purl.org/dc/elements/1.1/" xmlns:dcterms="http://purl.org/dc/terms/"><rdf:RDF><rdf:Description><dc:title>Miniavs - Free Avatar Creator</dc:title><dc:creator>Webpixels</dc:creator><dc:source xsi:type="dcterms:URI">https://www.figma.com/community/file/923211396597067458</dc:source><dcterms:license xsi:type="dcterms:URI">https://creativecommons.org/licenses/by/4.0/</dcterms:license><dc:rights>Remix of “Miniavs - Free Avatar Creator” (https://www.figma.com/community/file/923211396597067458) by “Webpixels”, licensed under “CC BY 4.0” (https://creativecommons.org/licenses/by/4.0/)</dc:rights></rdf:Description></rdf:RDF></metadata><defs><g id="head-wide-0ac543b4"><path d="M33.07 27.4c.47 7.5.94 15-11.07 15.56v9.91S18.36 55 13.5 55 5 51.52 5 51.52V32.1q-.3-1.53-.41-3.12a5 5 0 0 1-.9-9.8C2.37 9.63 4.52 0 19 0c14.6 0 14.24 11.08 13.96 19.81q-.07 1.73-.07 3.29c0 1.4.09 2.86.18 4.3" fill="#f7d4b2"/><path d="M4.59 28.98c-.16-1.97-.16-3.97-.16-5.88a47 47 0 0 1-.73-3.93 5 5 0 0 0 .89 9.81M5 32.1v19.42S8.64 55 13.5 55s8.5-2.13 8.5-2.13v-9.91q-.72.03-1.5.03C9.71 42.99 6.16 38.05 5 32.1" fill="black" fill-opacity=".07"/><path d="M21.93 42.96q-.69.03-1.43.03c-7.25 0-11.23-2.23-13.41-5.5.5 4.82 3.16 8.5 8.3 8.5h1.36c3.8.03 4.92.04 5.18-3.03" fill="black" fill-opacity=".07"/><rect x="23" y="28" width="3" height="2" rx="1" fill="black" fill-opacity=".07"/></g><g id="body-golf-0ac543b4"><rect y="3" width="40" height="23" rx="9" fill="#e05a33"/><path d="M10 1h19v3s-5 1-9.5 1S10 4 10 4z" fill="#e05a33"/><path d="M10 1h19v2s-3 1.5-9.5 1.5S10 3 10 3z" fill="black" fill-opacity=".2"/><path d="M9.5 2c0-1.1.9-2 2-2h16a2 2 0 0 1 2 2s-5 1-10 1-10-1-10-1" fill="#e05a33"/></g><g id="hair-classic01-0ac543b4"><path d="M22 8c14.5-9.5 32.5 7.5 28.5 11.5-9.12 9.12-17.77 4.8-23.45 3.09A4 4 0 0 1 24 24h-.13A4 4 0 0 1 20 29v.2a4 4 0 0 1-8-.2c0-.81.04-2.05.2-3.28q-.2-.43-.2-1.22C12 19.25 8.5 10 22 8" fill="#0b0b0b"/></g><g id="mouth-default-0ac543b4"><path d="M0 1a1 1 0 0 1 1-1h9.14a1 1 0 0 1 1 1 5 5 0 0 1-5 5H5a5 5 0 0 1-5-5" fill="#66253C"/><path d="M0 1.2C1.01.82 2.66 1 4.07 1c2.2 0 4 1.56 4 3.5q0 .64-.24 1.2a5 5 0 0 1-1.69.3H5a5 5 0 0 1-5-4.8" fill="#B03E67"/><path d="M1.07 0h10v1a1 1 0 0 1-1 1h-8a1 1 0 0 1-1-1z" fill="white"/></g><g id="eyes-normal-0ac543b4"><rect x="1" width="3" height="4" rx="1.5" fill="#0b0b0b"/><rect x="11" width="3" height="4" rx="1.5" fill="#0b0b0b"/></g><clipPath id="clip-0ac543b4"><rect width="64" height="64" rx="0" ry="0"/></clipPath></defs><g clip-path="url(#clip-0ac543b4)"><use transform="translate(13 13)" href="#head-wide-0ac543b4"/><use transform="translate(7 57)" href="#body-golf-0ac543b4"/><use transform="translate(0 3)" href="#hair-classic01-0ac543b4"/><use transform="translate(28.93 45)" href="#mouth-default-0ac543b4"/><use transform="translate(29 35)" href="#eyes-normal-0ac543b4"/></g></svg>