<svg xmlns="http://www.w3.org/2000/svg" viewBox="0 0 64 64" fill="none" shape-rendering="auto" aria-hidden="true"><metadata xmlns:rdf="http://www.w3.org/1999/02/22-rdf-syntax-ns#" xmlns:xsi="http://www.w3.org/2001/XMLSchema-instance" xmlns:dc="http://purl.org/dc/elements/1.1/" xmlns:dcterms="http://purl.org/dc/terms/"><rdf:RDF><rdf:Description><dc:title>Miniavs - Free Avatar Creator</dc:title><dc:creator>Webpixels</dc:creator><dc:source xsi:type="dcterms:URI">https://www.figma.com/community/file/923211396597067458</dc:source><dcterms:license xsi:type="dcterms:URI">https://creativecommons.org/licenses/by/4.0/</dcterms:license><dc:rights>Remix of “Miniavs - Free Avatar Creator” (https://www.figma.com/community/file/923211396597067458) by “Webpixels”, licensed under “CC BY 4.0” (https://creativecommons.org/licenses/by/4.0/)</dc:rights></rdf:Description></rdf:RDF></metadata><defs><g id="head-wide-fec530d0"><path d="M33.07 27.4c.47 7.5.94 15-11.07 15.56v9.91S18.36 55 13.5 55 5 51.52 5 51.52V32.1q-.3-1.53-.41-3.12a5 5 0 0 1-.9-9.8C2.37 9.63 4.52 0 19 0c14.6 0 14.24 11.08 13.96 19.81q-.07 1.73-.07 3.29c0 1.4.09 2.86.18 4.3" fill="#efc0a0"/><path d="M4.59 28.98c-.16-1.97-.16-3.97-.16-5.88a47 47 0 0 1-.73-3.93 5 5 0 0 0 .89 9.81M5 32.1v19.42S8.64 55 13.5 55s8.5-2.13 8.5-2.13v-9.91q-.72.03-1.5.03C9.71 42.99 6.16 38.05 5 32.1" fill="black" fill-opacity=".07"/><path d="M21.93 42.96q-.69.03-1.43.03c-7.25 0-11.23-2.23-13.41-5.5.5 4.82 3.16 8.5 8.3 8.5h1.36c3.8.03 4.92.04 5.18-3.03" fill="black" fill-opacity=".07"/><rect x="23" y="28" width="3" height="2" rx="1" fill="black" fill-opacity=".07"/></g><g id="body-tShirt-fec530d0"><rect y="3" width="40" height="23" rx="9" fill="#e05a33"/></g><g id="hair-classic02-fec530d0"><path d="M24 5c14.5-9.5 28 1 27 10-1.71 15.4-21.75 9-27 9h-.13A4 4 0 0 1 20 29v.2a4 4 0 1 1-7.83-1.37 4 4 0 0 1-.88-4.33 4 4 0 0 1 .8-4.25C12.61 13.28 14.9 6.35 24 5" fill="#1f1714"/></g><g id="mouth-default-fec530d0"><path d="M0 1a1 1 0 0 1 1-1h9.14a1 1 0 0 1 1 1 5 5 0 0 1-5 5H5a5 5 0 0 1-5-5" fill="#66253C"/><path d="M0 1.2C1.01.82 2.66 1 4.07 1c2.2 0 4 1.56 4 3.5q0 .64-.24 1.2a5 5 0 0 1-1.69.3H5a5 5 0 0 1-5-4.8" fill="#B03E67"/><path d="M1.07 0h10v1a1 1 0 0 1-1 1h-8a1 1 0 0 1-1-1z" fill="white"/></g><g id="eyes-normal-fec530d0"><rect x="1" width="3" height="4" rx="1.5" fill="#1f1714"/><rect x="11" width="3" height="4" rx="1.5" fill="#1f1714"/></g><g id="blush-default-fec530d0"><rect width="5" height="3" rx="1.5" fill="#FF859B"/><rect x="19" width="4" height="3" rx="1.5" fill="#FF859B"/></g><clipPath id="clip-fec530d0"><rect width="64" height="64" rx="0" ry="0"/></clipPath></defs><g clip-path="url(#clip-fec530d0)"><use transform="translate(13 13)" href="#head-wide-fec530d0"/><use transform="translate(7 57)" href="#body-tShirt-fec530d0"/><use transform="translate(0 3)" href="#hair-classic02-fec530d0"/><use transform="translate(28.93 45)" href="#mouth-default-fec530d0"/><use transform="translate(29 35)" href="#eyes-normal-fec530d0"/><use transform="translate(24 38)" href="#blush-default-fec530d0"/></g></svg>