<svg xmlns="http://www.w3.org/2000/svg" viewBox="0 0 1744 1744" fill="none" shape-rendering="auto" aria-hidden="true"><metadata xmlns:rdf="http://www.w3.org/1999/02/22-rdf-syntax-ns#" xmlns:xsi="http://www.w3.org/2001/XMLSchema-instance" xmlns:dc="http://purl.org/dc/elements/1.1/" xmlns:dcterms="http://purl.org/dc/terms/"><rdf:RDF><rdf:Description><dc:title>Notionists</dc:title><dc:creator>Zoish</dc:creator><dc:source xsi:type="dcterms:URI">https://heyzoish.gumroad.com/l/notionists</dc:source><dcterms:license xsi:type="dcterms:URI">https://creativecommons.org/publicdomain/zero/1.0/</dcterms:license><dc:rights>Remix of “Notionists” (https://heyzoish.gumroad.com/l/notionists) by “Zoish”, licensed under “CC0 1.0” (https://creativecommons.org/publicdomain/zero/1.0/)</dc:rights></rdf:Description></rdf:RDF></metadata><defs><g id="head-variant01-87a1e798"><path d="M553 723.7c-99 297-363.7 388.6-503.6 19.8-19.3-50.7 31-69.5 66.2-91.9 24.1-15.3 36.8-28.5 35.3-42.2C144 545 114 365.6 114 365.6l-3-5.8s.7-1.6-2.2 1.2c-3 3-9.9 34.2-37 34.2-24.5 0-49.2-10.9-61-86.3C6.3 281.6 8.7 210 39 197c12.5-5.3 24-7.2 35.2-.8s-13-22 112-126C267.5 2.4 395.8-7.5 447.6 4S551 40.8 574 94.5c27.8 65-25.9 114.3-14 262.5-2.2 53.6.8 171.2-146.6 210.6-28 7.5-19.3 48.4 22.7 58.4 67 21 117 72.3 117 97.9" fill="white"/><path d="M7.6 228.9c5.2-16.1 23.7-44.7 42.2-42C71.7 185 83.8 198 94 213a140 140 0 0 1 22.4 61.5c.5 3.7 1 7.6-1.2 11.3-4.5.6-4.9-3-5-5.6-.5-20.7-9.7-38.7-18.9-56.1-6.6-12.5-16.2-24.6-31.4-27.6-17.2-3.5-33 12-40.8 32.2-14.5 37.6-12 74.6 1.4 111 5.8 15.9 13.1 32.1 27.8 43.2 14.8 11.3 32.7 9.3 43.6-5.7 2.5-3.4 5.6-6.7 7-10.6 2.1-5.7 5.4-11 11.3-10.3 6.8 1 8 8.3 8.7 14C126.2 436 137 501 147 566c2.6 17.1 5.6 41.7 3.6 52.1-.7 3.7 0 7-4.5 7.8-4.9.7-7-2.1-7.7-6.5-2.3-17-3-23.6-4-49.6-1.2-34.3-9.6-68-15.3-102a604 604 0 0 1-10.9-97c-8.5 12.7-14.8 23.3-26.5 27.2a40.5 40.5 0 0 1-46.1-12.6 128 128 0 0 1-28.8-55.8c-8.4-34-9.9-67.1.9-100.6m572.7-71.5c6.5 4.4 5.7 10 3.7 15.2-21.6 55.7-17.6 113.8-15.8 171.6 2.1 66.4-14.5 126.8-58.7 177.5-15.4 17.6-35.8 29.8-56.5 40.3-21.4 11-25.9 20.1-19.2 43.6 1.3 4.7 4.4 9.6-.2 14.4s-9.8 3.1-15.4 1.7a406 406 0 0 1-137-68.3c-6-4.5-11-10.6-15.8-16.5-2.5-3-3-7.8.5-10.4 3.7-2.9 6.4.1 9.8 2.7A146 146 0 0 0 352 561c21 2.1 41.5-.2 62.3-.1 11.5 0 20.6-5.9 29.5-10.8 27.8-15.5 54.3-32.8 72.2-60.7a230 230 0 0 0 31.6-80.9c9.6-48 5.3-96.6 5.5-146.2 4.2-36.9 8.1-72.7 27.3-104.8M60.6 238.6c21 1 34.7 28 35.8 70.3-6 18.8-12.8-1-21 2.7-4 14.5 15.1 20 16.3 34-14-.6-21.1-9.3-25.9-19.8-5.5-12.2-1-22.2 9.7-29.9-6.7-13.4-21.7-18-30-30.5 10-3.5 15.1 2.9 21 6.8 5.9 4 9 11.3 17 15-.8-19.8-11.7-34-23-48.6" fill="black"/></g><g id="clothes-variant24-87a1e798"><path d="M1340.4 725.7 36.7 722.4s33.4-209.7 96.2-329c17-32.3 81-128.7 141.8-189.6 40.8-41 87.7-56 89-62 2.2-9.7-11-41.4-8.8-48.5 8.1-25.5 9.5.8 42.1-31.8 18.3-18.2 1.4-29.6 21.6-43.2 29.8-20 60-8.7 87-7.6 18 .7 12.4 50.3 27.3 62.5 40.3 32.9 91.8 54 128 63.6 46.1 12 61.6-2.6 85.4-12.3 23.8-9.6 38.5 12.2 68.9-33.2 14.2-21.2-11-42.6 8.2-54 30.2-17.9 75.8-17.3 94.7-7.7 28.9 14.8 16.3 41.6 16.3 41.6s35.7 11.6 43 22c7.2 10 5 44 5 44s-2.8-13.7 63.4 23.5c84.2 47.4 179.2 187.2 223 296 46.6 115.8 71.6 269 71.6 269" fill="white"/><path d="M737.4 725.7a42 42 0 0 1-3.3-13.8c0-9.2-3.2-14.3-13.5-13.7-6.4.4-13-3.3-13-9.6-.2-8.2 7.8-6.1 12.7-5.7 9.3.7 12.2-4.1 12.4-12.1 0-4.6-.8-11 5.6-10.8 5.4 0 11.2 4 11.4 10 .4 9.8 4.5 14 14.1 13.6 8.7-.3 8.8 6 8.9 12.2-2.3 3.5-5.8 3.8-9.1 3.8-9 0-13.8 4-12.9 13 .7 6.5-3.7 9-8.5 12.5q-2.4.8-4.8.6m-238 0q-2-6.8-1.9-14c.8-10-3.1-14.6-13.3-13-4.7.7-8.2-1.6-11.2-4.9-1.8-1.9-3.6-3.8-2.6-6.7 1-2.7 3.5-3.8 6.2-3.5 13.3 1.7 21.4-1.9 19.7-17.4-.3-3.3 2-7 6.4-6 5.1 1 9.3 4.3 9 9.4-.6 11.3 4 15.2 15 14.2 9.7-.9 8.8 6.6 9.4 13.4-3 1-5.4 2.4-7.7 2.3-10.9-.6-16 3.7-14 15 .9 5.3-3.7 7.2-7.7 10.5q-3.6.9-7.3.7m476 0c-1.8-3.2-3.7-6.5-3.7-9.7 0-11.6-1.8-20.2-17-17.6a9.5 9.5 0 0 1-10.6-9c0-6.9 6.4-5.8 10.8-5.6 10.1.6 15.3-3.2 14.6-14-.3-3.6 1.2-7.2 4-9.6 7.6 2 14.2 4.8 14.5 14.3q0 9.6 9.5 9.2c9-.6 12.4 3.8 11.4 12.3-2.5 3.2-6.2 2.5-9.5 2.9-7.3.8-12.3 3.5-11.1 12 1 6.4-2 10.4-8 14a11 11 0 0 1-4.9.8m-711.5 0a28 28 0 0 1-3.3-11.2c-.2-11-3-17.7-16.3-16.2-5.2.6-11.6-3.5-11.3-9.8.3-6.5 7-4.6 11.3-4.8 12.7-.6 12.7-.5 16.3-21.8 7.7-2.3 12.6 1.2 13.1 8.7.7 10 5.4 13.7 14.7 13 6.7-.6 10.8 1.9 11 9 .2 8.2-6.5 7.3-11 6.7-10.5-1.5-12.5 3.9-11.8 12.5.4 4.9-.1 9.4-5.4 13.1q-3.6 1-7.3.8m949.4 0c-1.7-2.8-3.7-5.6-3.5-8.3.6-13-2.4-21.2-18-19.8-4.4.5-10.8-3.4-10.4-9.3.5-6.9 7.2-4.8 11.3-4.4 11 1.2 16-2.7 14.8-14a9 9 0 0 1 4.5-9.3c6 1.5 12 3.9 11.6 12-.3 8 3 11.8 11.3 11.3 3.8-.2 7.9.4 8 5.8.2 5.7-2.7 8.9-8.5 8.6-8.5-.4-11.4 4.1-10.7 11.8.5 6.3-3.2 10.3-8 14.9-.5.7-1.8.7-2.4.7M638.4 568.5c3.4.4 6.7-.1 8.2 1.3 3.4 3.3 11.5 2.6 10.3 9.4-1 6.3-7.7 6.2-12.6 6-15-.5-14.2 11-15.4 21.5-8.3-.8-15.2-2-15.9-11.5-.6-7.4-5.5-9.2-11.4-9.2-7.5-.1-10.7-4-11-11-.2-7.6 5.5-7.7 10.5-7.9 7.8-.3 10.6-4.3 9.5-11.6-1.3-9.4 5-12.5 12-12.6 8-.1 6.6 7.2 7.2 12.4.6 5.5-1.7 12.7 8.6 13.2m210.2-19.3c3.9-4.9 9-5 13.3-6.4 1.2.9 2.3 1.2 2.5 1.9a55 55 0 0 0 22.3 26.3c3 1.8 7.4 2.7 8 7.8-2.7 7-9.3 6-15 6.3-7.5.4-12.3 2.3-10.8 11.4.7 4 .7 10-5 9.9-5.5 0-12.7-1.6-12.8-9.3-.2-9-4.2-11.7-12.6-11.6-10.7.2-9.9-8-10.7-16.4 11.6-1.5 24.7-1.8 20.8-19.9m237.6 11.5c.1-3.5.3-6 .2-8.6-.5-7.4 5.7-8 10.2-8.9 6-1.1 6.5 4.2 6.7 8.5.5 10 1.3 18.6 15.6 17 5.2-.7 12.4 4 12.5 10s-7.1 6.1-12 6.3c-8.6.2-13.8 3.2-13.7 12.7.1 4.2-.6 9.7-6.2 9.2-5.3-.5-11.9-2.6-12.2-9.2-.4-9.4-4.8-12-13.5-12.6-8.2-.5-8.2-8-9.1-13.4 5.8-8 18.8 2.9 21.5-11m34.8-332.4c-2.4 2-4.8 1.9-7.2 1.6q-10-1.1-8.3 8.4 1.4 6.9-5.6 7.8c-5.5 1-5.8-3.2-5.8-6.5.1-6.9-1.6-11-10-9.9-4 .6-8.4-1.9-9-5.6-.7-5 4.4-5.1 8.1-5.8 5-.8 9.2-2.1 9.4-8.2 0-2.8.9-6.5 4.8-6 3.6.6 7.9 1.9 7.7 6.8-.2 5.7 2.3 7.4 8 7.1 6.8-.4 8.2 4.4 8 10.3m-140.6 20.4c-10.6 2.8-8.7-5.2-9.4-9.8-1.3-8.9-3.3-15.4-14.7-14.5-5.4.4-12-3-12.6-8.6-.7-7.7 7-7 12.2-7.7 7.6-1 12.8-4 13.4-12.5.2-4.2.8-10 6.4-9.1 5.1.7 12 2.5 12 9.5-.1 9 3.6 11.5 12.2 11.6 9.1.1 9.5 7.7 9.9 15.3-2.3.7-4.3 1.9-6.2 1.8-10.8-.7-17.6 2.2-15.5 14.9q1.3 7.5-7.7 9.1m330.4 333.4c3 6.4-.5 9.7-5 9.6-15.5-.5-25.6 3.9-20.6 22.4q-15.5.5-16.7-10.9c-.8-8.3-4.9-11.3-12.1-11.5-10-.3-10.6-6.3-9.5-13.7 2.8-2.8 6.3-3 9.7-3.1 7.2-.2 10-4.2 9-10.8-1.5-10.4 6.1-13.2 13-13.1 7.8 0 6.1 8 6 13-.2 8.3 2 13.4 11.5 12.3 5.5-.6 9.8 2 14.6 5.8M408 568.5q4.4 2 8.3 4.8c6.4 5 4 8.5-2 11q-3.7 1.3-7.6 1c-11.6-1-16.8 3.7-14.6 15.6.3 1.5-.5 3.2-.8 5.4-8.7.3-14.3-2.7-15.4-11.5-.8-7-5-9.4-11.4-9-7.8.4-10.4-3.9-10.7-11-.4-8 5.3-7.7 10.3-7.7 8.5 0 11.6-4 10.5-12-1-8.3 3.8-12 11-12.4 8.2-.4 6.4 6.9 6 11.3-1.2 12.1 3.8 16.6 16.3 14.5M117.2 437c-2.4-13 7.3-11.8 12.9-14.2 3.4 1.1 4.1 3.3 4.3 5.4 1.2 12.4 3.2 23.4 20.3 21.2 3.5-.5 8.6 3 8.2 8.2-.5 5.3-5.3 6.7-9.5 6.6-11.3-.3-18.1 3.3-17 16 .3 3.2-1.4 6.3-5.1 6-5.6-.3-11-3.7-11.1-8.7-.5-11-6.8-13.5-15.7-14.3-5.6-.5-6.4-4.8-6.7-9.2-.5-5.4 3.5-6.2 7.4-6.7 6-.7 12.5-.4 12-10.4m460.2-115.2c-.5-10.2 7-11.6 13-11.5 7 0 6 7.2 5.9 12-.4 8.7 1.9 14.1 12 13.1 4-.4 7.2 2.2 10.6 3.9 2.8 1.3 5.4 3 5 6.6a6 6 0 0 1-6.4 5.3c-15.3-.7-25.5 3.8-20.8 22.2-9.4 0-15.4-2.7-16.5-9.7-1.4-8.6-5.7-12-13.6-12-6.8 0-9-4-9.2-9.7-.1-6.5 4.6-7.7 9.6-7.4 8.8.6 13.2-2.3 10.4-12.8m495 9.3c9.9.7 15.2-2.4 14-12.2-1-7.6 3.7-11.6 10-12.1 8.4-.7 6.8 6.8 7 11.9.2 8.8 3.5 13.9 13 12.7 4.3-.5 7.2 1.7 10.3 4 2.3 1.9 5.4 3.2 4.7 6.9-.9 4-4.4 5.4-7.8 5.2-12-1-20 2-18.4 16.4.3 3-1.8 6.3-5.3 5.9-5.6-.7-11.9-3-12.3-9-.8-9.9-5.4-13.4-14.6-13.3-5.5.1-6.4-4.6-7.5-8.8-1.3-5.1 1.5-6.9 7-7.7M119 583c-5.2-10.6-1.7-15.5 8.7-15.5 9 0 12.1-3.5 9.6-12.7S143 544 148.8 543c6.7-1.2 7.2 5.2 7 9.6-.5 10.6 2 17.1 14.6 16.7 4.4-.2 10.6 3 10.7 9 .1 7.4-6.7 6.3-11.5 7-10.7 1.3-10.8 1.2-14.5 20.8-6.3 2.2-13.7-1.6-13.7-5.4-.2-15.7-11.9-14.7-22.3-17.8M899.2 301c3.8-4.7 8.5-5.1 14-6.2q1 1.3 1.8 2.9c6.2 16.7 6.3 16.5 21.2 24.5 3.4 1.8 9.2 3 8 8.5-1.1 6-6.7 5.7-11.4 5.6-8.2-.1-15.9-.2-14.6 11.7.4 4 1.3 9.8-4.6 10.2-5 .3-11.4-2.4-11.9-7.7-1-11.2-7.3-14-17-14.5-5.5-.2-6-5.3-6.5-9.6-.5-5 3-7.2 7.2-6.7 15.3 2 13.7-8.3 13.8-18.7M966 443.2c5.5-6.1.5-15.5 8.9-20.4 6.3 3 14 4.9 13.4 15-.4 7.2 4.9 8.3 10.4 8 7.1-.5 10.3 3.6 10.8 9.8.6 8-6 6.9-10.7 6.9-7.5 0-11.5 3.1-10.4 10.7 1.4 10.2-5.3 11.9-12.3 13.5a10 10 0 0 1-4.5-8c-1-10.5-3-19.1-17.3-17.6-4.3.4-10.4-3.8-10-9.6.3-6.2 6.4-5.2 11-5.8a64 64 0 0 0 10.6-2.5M442.2 243.8c-6.9-.8-12.4-4-12.3-9.8.1-7.3 7.5-6.7 12.7-7.5 6.8-1 12.5-2.6 12.3-11.4-.1-4 .2-9.4 6.1-9.2 5.2.2 10.6 2.3 10.2 9-.4 8.7 4.4 11.2 11.7 11 10.4 0 12.7 6.4 12.7 15-6.3 6.5-15.3-.2-21.6 4.5-2.6 4.3-.3 8.5 0 12.6.5 7-4.2 8.7-9.4 9.7-7 1.3-7.7-4.1-7.6-8.8.2-9.7-1.3-17.3-14.8-15.1m295 179.4c8.1 2.3 13.8 5.7 13.2 15-.4 7.3 5.4 7.8 10.8 7.5 7.4-.4 11.6 3.3 11.7 10.3.2 8-6.6 6.5-11.3 6.5-8 0-12.2 3-11.2 11.4 1.3 9.4-4.5 11.6-11.6 12.3a7 7 0 0 1-4-6.6c-.5-10.9-2.8-19.1-16.9-18.2-4.5.3-10.6-3.8-10.6-9.3 0-7.1 6.7-6.6 11.7-6.3q14.7 1 13.6-13.6c-.3-3.4.2-6.9 4.6-9M518 463.4q-4.7 3.2-3.6 7.1c2.2 10.3-2.6 15-12.2 16.3-.8-.4-2-.6-2.2-1.2a66 66 0 0 0-23-25.6c-3-2-7.1-3.8-6.7-8.5a5.6 5.6 0 0 1 6.1-5.3c15 2 20.7-5.3 20.9-19.1 0-1 1.4-2 2.3-3.2 7.2.6 12.4 3.3 12.3 11.4-.1 7.2 4 10.2 10.3 10.1 8-.1 14.1 2.6 13.5 11.1-.7 9-9.1 4.9-14.3 6.2-.8.3-1.6.3-3.4.7m-223.7-1.3c-11.7-.4-19.5 1.5-17.8 15.3 1.1 8.4-5.7 9-11.6 9.7-4.1-3.2-4.1-7.8-4.4-11.9-.6-9.2-4-14-14.3-13.4-6 .2-12.5-3.7-12.6-10.1 0-7 7.2-6 12-6 7.8 0 12-2.8 12.5-11 .2-4.4-.3-10.8 6.4-10.5 5.2.2 9.7 4 9.4 10.1-.5 10.3 5.4 12.1 13.9 11.5 4.4-.3 8.6.4 10.3 5.5 1.4 4.2 3 8.4-3.8 10.8m79.4-110.8c-3.7-3.5-7.7-3.6-11.5-3.6-7.1 0-8-5-8.3-10.4-.4-6.3 4.1-6.9 8.5-6.7 9 .5 13.8-2.6 12.3-12.5-1.2-8 4.8-11 10.6-11.5 8.2-1 6.6 6.5 6.3 11-.7 11 1.6 17.1 14.9 14.5 5.9-1.2 12.6 3.1 12.8 9.6.3 7.2-7 5.7-11.8 6-12.2.6-12.2.5-17.4 22-11.4-.3-14.3-8.4-16.4-18.4m863.9 111.2c-8.9-.4-14.6 1.6-13.8 11.2.5 7.3-4.2 10.5-10.3 12.8-1-.7-2.8-1.4-2.8-2.2-1.1-13.5-4.2-24.6-21.6-24.2-3.2 0-9.5-3.8-7.9-9.8 1.4-5 6.7-4.9 10.8-4.5 9.8.7 15.8-1.9 14.7-13.2-.4-3.9.3-8.7 5.2-8.6 5.2 0 11.2 2.8 11.3 8.2 0 11 5.1 14.3 15 13.7 6.3-.4 7.5 4.4 8.3 9.2 1 6.2-3.5 6.8-9 7.4M297 212.9c3.7 8.8.7 12.5-7.4 11.9-9.8-.7-14.2 3.3-13 13.3 1.1 9.4-5.1 11.2-14 12-1.5-13.8-10.7-28.7 2.6-40 8.8-7.6 21.2-3.7 31.9 2.8M42.8 690c2.6-7.6 8.2-6.6 12.8-5.5 5.9 1.4 5.2 6.7 4.7 12-7 1.7-14.4 6-17.5-6.5m138.4-348.3c-3.2 8-8.5 5.7-13.5 5-2-5.7.4-8.8 4.7-10.2 3.8-1.3 7.4-.5 8.8 5.2" fill="black"/><path d="M1334 725.7c-9.4-38.5-16.9-77.2-25.6-115.7q-9.6-41.6-22.4-82.1a737 737 0 0 0-33-90.5q-14.4-31-29.5-61.5a673 673 0 0 0-57.7-92.4 470 470 0 0 0-60.5-70 343 343 0 0 0-83-57.4c-3-1.5-6.6-2.3-9.2-4.3-17-12.7-33.7-6.3-44.8 12.9-30.8 53.2-78.6 77.6-137.2 85.4a19 19 0 0 1-6.4 0c-5.6-1.2-13.6-1.2-13-9.1.7-6.9 8-4.5 12.7-5.1 43.7-5.8 84-19.6 113.4-54.3 12.4-14.8 21.6-32.4 31.3-49.3a34.3 34.3 0 0 0-23.7-50.5c-11.8-2.5-19.5-6.3-16.2-21.4 2-9.6-4.8-18.9-13.2-23-10.4-5-21.7-9.1-34.5-5.6-11.7 3.3-24.2 4.1-36.3 6-7.1 1-12.2 5.8-18 9.4-4.4 2.8-4.4 6.4-2.5 11 7 17.4 1 39.8-13.9 51-14.7 11.2-30.4 20.2-50 18.4q-7.1-.6-12.8 4.4c-14 11.8-30.4 14.5-48.7 14.3-38.8-.4-74.2-12.6-109.2-27.3-7.8-3.3-13.6-12.5-26.5-7.5 27 34.9 67 48.4 105.6 67.6a26 26 0 0 1-24.8 3c-51.4-17.5-91.9-47.6-117.2-97-8.4-16.5-14.9-33-18.1-51-2.3-12.6-5.7-13.8-17.6-8.4-13.2 6-24.9 14.3-35.7 23.6-12.5 10.8-20 24-18.1 41.5 1 8.4 0 17 .2 25.6a47 47 0 0 0 35.2 46 37 37 0 0 1 18.4 10.8c-14.6 6.6-40.5-1.2-53-15.9-33.7-39.8-20.4-108.6 25.8-132.8l5-2.8a40 40 0 0 0-54 19 81 81 0 0 1-39.3 43c-15.3 7.7-19.8 28.7-7.8 39.4 23.4 20.8 43 45.8 69.9 62.6 15.4 9.6 30.1 21 46.7 28 15.8 6.5 33.6 8.4 50.6 11.8 5 1 10.2.8 13.3 5.6.3 3.4-1.7 5.6-4.4 5.5-32.1-1.5-63.4-4.4-92-23a438 438 0 0 1-69-54.1c-11-11-23.1-6.1-34 0-39 22-72.5 50.9-102.9 83.7a615 615 0 0 0-87.4 123 871 871 0 0 0-50.5 108A1198 1198 0 0 0 74 576.3a558 558 0 0 0-20.6 102.1c-1.3 15.2-7.3 29.7-7.9 46.2-5.5 1-10.8 1-17.1 1q6.8-49.5 16.2-98.8c3.7-19.1 9.2-37.9 13.7-56.8 5.6-23.6 13.4-46.5 21.2-69.4a832 832 0 0 1 84-179q25.4-40.5 57-76c36.7-41.1 76.3-78 126-103 6.4-3.3 9.3-7 4.1-15.1-9.3-14.7-5.9-45.7 15.3-55.4 16.6-7.6 26.6-22 34.3-37.8A56 56 0 0 1 451.7 1l58.8-1c9 0 14.1 1.6 10.1 12.7-2.5 7-1.7 14.5 5.4 19.5a9 9 0 0 1 4 6.1c4.4 31 27.1 45.6 52.1 57.7 19.8 9.6 39.6 20.3 60.5 26.3 21.8 6.3 44.5 12.1 67.7 10.5a46 46 0 0 0 26.9-10.8c6.3-5.4 14.2-4.9 21.6-6.4 17-3.4 32.5-9.8 45-22 11.2-11.2 12-22 3.3-35.3-7.7-12-3.3-34 8.5-40.9 3.5-2 8.7-2.8 9.8 1.6 3 11.4 9.8 6.6 15.9 4.8a159 159 0 0 1 55.3-8.2A58 58 0 0 1 933 31.2c7.8 6.9 9.7 15.6 9.8 25.3 0 7.6 2.4 11.9 11 13.9C978.6 76 987.7 88 988 113.5c0 5.3 1.4 8.3 6.3 11 34.6 18.7 70.4 35.4 101.6 60 29.3 23 53 51.1 75.5 80.4A719 719 0 0 1 1272 441.8q27.3 69.8 46.4 142.4c12 46 16 93.5 27.1 140.6-3.2.9-6.7.9-11.4.9" fill="black"/><path d="M1149.7 725.7c-9.3-36.4-12.3-73.8-22.2-110-7.8-28.4-14-57.4-24.2-85-7.2-19.4-14-39-23.5-57.7-12.7-25-23.3-51.2-34.7-77-1.4-3-2.8-6.3 1.4-8.8 4.4-2.7 7.6-.6 9.9 2.7 5 7.3 10.2 14.6 14.3 22.5 16 31.2 31.8 62.7 42.9 96 7.5 22.8 15.6 45.5 21.2 69 3.9 16.5 8.2 33 12 49.4q10.6 48.4 14.5 97.9c-3.4 1-7 1-11.6 1m-903.7 0a451 451 0 0 1 4.4-86.5c3.7-29 4.4-58.3 11-87 3.9-17 9-33.6 13-50.4a338 338 0 0 1 34.6-92.4l7.4-12c2.3-3.3 4.1-8.7 9.5-6.2 5.7 2.8 3.2 8.2 1.8 12.4a320 320 0 0 1-10 26.1c-18 40-33 81.2-40.6 124-7.3 42-15.8 84.3-14 127.6.7 14-1.6 28-2.6 43.2-4.5 1.2-9 1.2-14.4 1.2m410.2-330.2c-1.5-9.8 2.8-16.7 6.6-23.8 11.4-21.4 8.4-30-11.6-42.7-17.7-11.3-35.3-23-44.2-44-5.8-14-4.4-28.3-6.2-42.4-1-7.2 2.4-16 12.3-16.7 9.4-.6 20.9-3.5 25.6 8.4 3.4 8.6 2.1 17-6.2 24-15 12.8-13.9 19.7 3.7 29.1 13.8 7.4 28.5 13.3 40.5 23.9 23.8 21 26 56 4.5 79.2-6.8 7.3-7.8 15.3-6 24.6.9 4.3 2.7 10.2-3.1 12.3-5.3 2-6.5-4-9.2-7-6.3-6.8-7.1-15-6.7-24.9m175 37.7c1.2 3.4 4.6 5.2 3 8.6-20.6.3-34.9-24.4-26-44 5-11.2 13.4-20.6 15.8-33.3 3-16.5 0-25.2-15-32.3-27-12.9-39.8-33-35.3-63.4 1.4-9.4 1.4-17.6-11.8-20.7-9-2.2-11.2-12.2-9.2-21 2-8.5 8.8-13.9 17-12.5 7.6 1.2 17.4 3.4 16.7 15.3-.2 3-.4 6.1 2 8.4 11 11 8.6 24.1 6 37.1-2.2 11.1 0 20.3 9.8 26.8 6.4 4.2 12.5 8.9 19.2 12.6a49 49 0 0 1 13 78.4c-14.3 16-15.7 25.7-5.2 40M878 119.7c16.8-7 17.8-16.8 17.5-33.6 0-5-2.4-10 .8-14.8 11.1 2.3 17.6 16.3 14 29.9a48 48 0 0 1-48.7 35.4 42 42 0 0 0-31.2 13c-7.7 7-16.5 10.5-27 4.4 18.8-9.4 31.1-30.8 55.7-28.2 6.8.7 12-3.5 18.8-6" fill="black"/></g><g id="hair-variant61-87a1e798"><path d="M393.2 735c-56.5 18.4-150.5-40-180.6-70-46-46-58.2-136.2-43.3-204.5 14.8-68.3 111.4-415.7 409.3-440 178.6-14.7 269 98.7 309.4 157.9 63 91.8 99.7 223.2 63 317.3-19.2 49.3-89.7 135.8-106.6 126.5s-23-118.2-15-184.1c14-116.2-176.8-196.2-176.8-196.2s-58.4 50.3-147.4 139.3-126.6 162.8-129.7 221C372 665 393.2 735 393.2 735" fill="white"/><path fill-rule="evenodd" clip-rule="evenodd" d="M382.9 630.8c-1-17.7-2-35.6 1.8-54a157 157 0 0 1 24.8-71.3c27-45.1 62-84.3 98.8-121.4 27.4-27.7 54.3-51.6 81.6-75.8a2679 2679 0 0 0 59-53.5c8.3-8 96.4 41 128.6 73.3 20.4 20.5 40.4 44.4 45.3 66.5 4.6 21.2 2.7 42.8.8 64.4q-1 11-1.7 21.9-.6 10.2-2.5 20.4c-2 12.4-4 24.8-1.6 37.6l4.5 22.8c4.1 20.2 8.3 40.4 9.2 61 .3 8.5 5.9 10.2 13.7 7.4 18.6-6.8 32-20.2 45.5-33.8 25-25 41.4-55.7 57.6-86.5 13.8-26 24-52.8 23.4-83.5q-.2-11.6-.2-23.3 0-13.7-.4-27.4c-.9-32.7-10.9-63.7-21.2-94-12.1-35.7-31.5-68.1-52.9-99.2-32.4-47.2-70-89-119-119.9-46.6-29.4-98.5-42.6-152.8-46.9-38.2-3-75.2 4.2-112 13.6-29 7.4-56 20-82.2 33.1a310 310 0 0 0-59.9 40.4c-45.5 38-87.4 78.5-119 129.3a895 895 0 0 0-59.8 116.2c-12.9 29.7-20 61.6-27 93.5l-2 9a276 276 0 0 0 22.3 186.8c22 44.9 60.3 74.3 107.1 91 27.4 9.7 55.3 19 85.3 19 14.7 0 17.2-.4 17-15.5-.1-12.4-2.9-24.5-5.6-36.6a163 163 0 0 1-5.7-38.7q0-13-.8-26m453-190.6c.8-21.6-1-43.1-9.2-63.5-17.8-46.5-59-76.6-91-95.7-13-7.6-25.2-13.1-36.1-18a191 191 0 0 1-26.8-13.7c-10.2-6.8-11-8.7-1.5-17.4q2-1.6 3.5-3.7c10.7-17 32.1-32 49.6-39.5a72 72 0 0 0 39.9-40.7c1-2.5 1.7-4.9-2-8.9-13.8 21-30.4 38.8-57.2 48.6l10-17c10.3-16.8 20.2-33 25.7-53-10.3 2.7-13.3 9.9-15.8 16.1l-1.7 4a466 466 0 0 1-63.7 91.8c-18.1 20.7-37.2 36.4-56.5 52.3a618 618 0 0 0-43.4 38q-16.5 16-33.5 31.4a685 685 0 0 0-59 58.7c-25 29.3-49.2 59.4-71.4 90.9-15.2 21.7-19.7 48.1-23.2 74.6-6 46 1.7 90.7 9.7 135.4 3.5 19.4.2 23.8-19.2 24-23.7.3-45-8-65.6-18.3A265 265 0 0 1 223 664c-28.4-29.2-43.3-64.1-50.8-103.3-6.4-33.9-1.1-67 4.1-100l2.2-14c5-33 16.9-63.7 28.8-94.4q5.6-14.4 10.9-29c18.8-52 49.6-96.4 84.7-138 44-52.5 95.2-96.6 158.3-125.6 55-25.3 112.2-40 172.8-34.3q36.2 3.4 70.6 15.3a336 336 0 0 1 87.5 45.7 399 399 0 0 1 84.5 85.9c26.4 35 46.7 73.6 61.9 114.5a354 354 0 0 1 21.3 94c1.5 17 .7 33.8-.1 50.6L959 447c-.6 19-8.5 35.8-16.3 52.5l-2.8 6.3a311 311 0 0 1-80.2 104.8c-9.4 8.2-16.8 6.5-19.3-5.7a426 426 0 0 1-5.1-33.7l-2.4-18c-3.8-25.5-1.6-50.9.6-76.3q1.7-18.3 2.5-36.7" fill="black"/><path d="M304 559.4c6.9-35.3 14.7-69.1 33.3-99.3a219 219 0 0 1 40.2-50.8c3.4-3 6.5-8.1 15-6.2-67 75.4-103.8 157.6-62.4 258.2-18.4-8.2-29.3-51-26-101.9m135.1-149.9-40.5 54.8c2-35.7 141.3-200.3 176.8-203.6a875 875 0 0 0-136.3 148.8M919 465.3c-3.8 10.5-2.5 22-10.4 30.4-4.7-12 .6-22.7 4.5-33.1 1.4-4 4.7-1.8 6 2.7m16.1-39.2c5-5.4 7.4-3.1 7.5 2 .2 8.3-2 16-11 25 1.3-11 2.1-18.6 3.5-27m-19.9 3.8c-1 5-1 9.5-7.4 10.6-4.5-9.9.8-17.1 5.4-25.5 6.4 4.6 3.2 9.4 2 14.9" fill="black"/></g><g id="mouth-variant30-87a1e798"><path d="M169 100c4.8-14.2 4-16.2-9.8-18.7-10.2-1.8-19.3-6.3-29-9.4-10.9-3.5-18-13.8-29.5-16.5-6 29.8 33.7 56.5 68.2 44.7" fill="white"/><path fill-rule="evenodd" clip-rule="evenodd" d="M97.6 95.6a77 77 0 0 0 67.5 21.2l6.4-2.5c4.8-1.9 9.2-3.5 13.2-5.8 5.2-3 9.3-9.2 4.8-13.8-10-10.3-5-16.2 4-22.2 4-2.6 6.4-6.2 4.3-10.7-2.7-6-8-3.8-12-2a50 50 0 0 1-17.4 3.3c-24.8 2.8-44.9-9-64.8-20.5l-.6-.3c-11.8-7-19-4.6-20.5 9.2a51 51 0 0 0 15.1 44.1m61.6-14.3c13.9 2.5 14.6 4.5 9.7 18.8-34.5 11.8-74.2-15-68.2-44.7 6 1.5 11 5 15.8 8.6a49 49 0 0 0 13.7 8q5 1.5 9.7 3.4c6.3 2.4 12.5 4.8 19.3 6" fill="black"/><path d="M67 36c8.2 3.7 7.7 9.3 4.2 15-2.6 4.5-6.5 7.2-11.7 4-4.8-3-3.7-7.1-1-11 2.2-3 3-7.3 8.5-8" fill="black"/></g><g id="nose-variant08-87a1e798"><path d="M74.2 187A31 31 0 0 0 86 171.1a23 23 0 0 0-4.4-22.8c-5.3-6-12.4-3.7-19-1.7-4.2 1.3-9.5 5.3-12.2-1.2-2.4-5.6 1.8-10 6-12.7a28 28 0 0 1 26.8-2.8c11.9 4.7 16.4 14.5 18.1 25.8 6.7 44.3-31 54.4-60.7 52.5q-3.2-.3-6-2.2c-3.3-2.2-8.6-3.8-7.1-9.1 1.6-6 6.7-5 11.6-4q17.9 3.3 35-5.8" fill="black"/></g><g id="eyes-variant05-87a1e798"><path d="M20 24c5-12 8.8-29.4 24-22.5C64.7 11 58 32.2 53.7 49 52 55.2 39.2 64.8 35.4 63.2 19.1 56.4 16.2 41.5 20 24m226.8 36.8c-8.6 7.5-17 7.6-22.2-1.5-9-16-8.6-32.8 3.3-47.2 2.5-3 13.8-3.6 16.3-1q20.8 22.7 2.6 49.7" fill="black"/></g><g id="glasses-variant06-87a1e798"><path d="M401 28.8c17.5.2 34-.1 50.5.6 9.6.4 19.2 2.3 28.7 3.8 3.4.6 6.2 2.3 7.5 6.1 8.7 25.6 12.5 51.2 1.5 77.2-5.7 13.7-14.6 21-30.8 21.2-26.3.3-52.7 2.5-79.1 2.2-17.3-.1-24.9-5.4-29.4-21.8-3.3-12.2-10.6-23.1-10.2-36.6.3-7.3-6.8-8-12.2-8.6Q314 71.3 308 83.7c-2 4.4-1.8 9.2-1.8 13.9a56 56 0 0 1-15.8 36.6c-10.8 12.7-25.9 8.5-39.6 7.5-22.8-1.6-45.6-4.5-68.4-6.4-12.7-1-23-7.7-23-20.4-.3-27.4-15.2-38.4-39.6-45.7-26.6-8-51.9-20.6-77.8-31-9.7-4-21-5.1-27.4-17.2 12.3-2.3 23.3 2 33.4 7a702 702 0 0 0 97 37.1c5.3 1.7 8.3-.4 10.4-4.5 2-4.2 3.2-8.8 5.3-12.9 9.5-18 24.6-24.3 47.4-21.2 22.2 3 44.4 6.4 67 7.4 25 1.2 30 7 32.3 28.6 10.5-.8 21-5 32-1.6 3.4 1 5.3-4 6.4-7 8-22.1 26.6-25 46.4-25.3 2.6 0 5.1 0 8.8.2" fill="black"/><path d="M192.6 62.4c-.8-.3 1 0 0 .4-6.7 2 50.6 52.8 55.7 48.5 3-2.5-49.5-46.3-55.7-49M213 38.6c-.9-.3 1 0-.1.4-6.7 2 50.7 52.8 55.7 48.5 3-2.5-49.5-46.3-55.6-49m175 23.9c-1-.3 1 0-.2.4-6.6 2 50.7 52.8 55.8 48.5 3-2.5-49.5-46.3-55.7-49m20.4-23.7c-.9-.3 1 0-.1.4-6.6 2 50.7 52.8 55.7 48.5 3-2.5-49.5-46.3-55.6-49" fill="white"/></g><g id="eyebrows-variant02-87a1e798"><path d="M97.9 41.8c6.6-.8 12-1.8 17.5-2.3 4.7-.5 8.2 1.8 10.3 6 1.9 4-1.5 6-3.4 8.8-14.9 21.7-37 16.6-56.8 13-14-2.6-30.4-5.1-37.1-22.7-3.5-9-2.8-12 7.1-13 5.7-.5 11 1.3 16.2 3 14.8 5.1 30.5 7.5 46.2 7.2m130.5.4c5.6-4 10.8-3 16.4-1.8 17.1 3.5 34.3 5.8 50.2-4.7 4.3-2.9 9.2-3.5 12.7.7 3.2 3.9.3 7.8-1.9 11.6-7 12.4-18.9 16.4-31.4 19.6-10 2.6-20.4 2-30.5 1.4-15.9-1-21.8-11-15.5-26.8" fill="black"/></g><clipPath id="clip-87a1e798"><rect width="1744" height="1744" rx="0" ry="0"/></clipPath></defs><g clip-path="url(#clip-87a1e798)"><use transform="translate(532 491)" href="#head-variant01-87a1e798"/><use transform="translate(151 1029.3)" href="#clothes-variant24-87a1e798"/><use transform="translate(266 221.9)" href="#hair-variant61-87a1e798"/><use transform="translate(791 872)" href="#mouth-variant30-87a1e798"/><use transform="translate(901 669)" href="#nose-variant08-87a1e798"/><use transform="translate(805.2 732.6)" href="#eyes-variant05-87a1e798"/><use transform="translate(610.3 681)" href="#glasses-variant06-87a1e798"/><use transform="translate(775 657)" href="#eyebrows-variant02-87a1e798"/></g></svg>