<svg xmlns="http://www.w3.org/2000/svg" viewBox="0 0 1744 1744" fill="none" shape-rendering="auto" aria-hidden="true"><metadata xmlns:rdf="http://www.w3.org/1999/02/22-rdf-syntax-ns#" xmlns:xsi="http://www.w3.org/2001/XMLSchema-instance" xmlns:dc="http://purl.org/dc/elements/1.1/" xmlns:dcterms="http://purl.org/dc/terms/"><rdf:RDF><rdf:Description><dc:title>Notionists</dc:title><dc:creator>Zoish</dc:creator><dc:source xsi:type="dcterms:URI">https://heyzoish.gumroad.com/l/notionists</dc:source><dcterms:license xsi:type="dcterms:URI">https://creativecommons.org/publicdomain/zero/1.0/</dcterms:license><dc:rights>Remix of “Notionists” (https://heyzoish.gumroad.com/l/notionists) by “Zoish”, licensed under “CC0 1.0” (https://creativecommons.org/publicdomain/zero/1.0/)</dc:rights></rdf:Description></rdf:RDF></metadata><defs><g id="head-variant01-82a1dfb9"><path d="M553 723.7c-99 297-363.7 388.6-503.6 19.8-19.3-50.7 31-69.5 66.2-91.9 24.1-15.3 36.8-28.5 35.3-42.2C144 545 114 365.6 114 365.6l-3-5.8s.7-1.6-2.2 1.2c-3 3-9.9 34.2-37 34.2-24.5 0-49.2-10.9-61-86.3C6.3 281.6 8.7 210 39 197c12.5-5.3 24-7.2 35.2-.8s-13-22 112-126C267.5 2.4 395.8-7.5 447.6 4S551 40.8 574 94.5c27.8 65-25.9 114.3-14 262.5-2.2 53.6.8 171.2-146.6 210.6-28 7.5-19.3 48.4 22.7 58.4 67 21 117 72.3 117 97.9" fill="white"/><path d="M7.6 228.9c5.2-16.1 23.7-44.7 42.2-42C71.7 185 83.8 198 94 213a140 140 0 0 1 22.4 61.5c.5 3.7 1 7.6-1.2 11.3-4.5.6-4.9-3-5-5.6-.5-20.7-9.7-38.7-18.9-56.1-6.6-12.5-16.2-24.6-31.4-27.6-17.2-3.5-33 12-40.8 32.2-14.5 37.6-12 74.6 1.4 111 5.8 15.9 13.1 32.1 27.8 43.2 14.8 11.3 32.7 9.3 43.6-5.7 2.5-3.4 5.6-6.7 7-10.6 2.1-5.7 5.4-11 11.3-10.3 6.8 1 8 8.3 8.7 14C126.2 436 137 501 147 566c2.6 17.1 5.6 41.7 3.6 52.1-.7 3.7 0 7-4.5 7.8-4.9.7-7-2.1-7.7-6.5-2.3-17-3-23.6-4-49.6-1.2-34.3-9.6-68-15.3-102a604 604 0 0 1-10.9-97c-8.5 12.7-14.8 23.3-26.5 27.2a40.5 40.5 0 0 1-46.1-12.6 128 128 0 0 1-28.8-55.8c-8.4-34-9.9-67.1.9-100.6m572.7-71.5c6.5 4.4 5.7 10 3.7 15.2-21.6 55.7-17.6 113.8-15.8 171.6 2.1 66.4-14.5 126.8-58.7 177.5-15.4 17.6-35.8 29.8-56.5 40.3-21.4 11-25.9 20.1-19.2 43.6 1.3 4.7 4.4 9.6-.2 14.4s-9.8 3.1-15.4 1.7a406 406 0 0 1-137-68.3c-6-4.5-11-10.6-15.8-16.5-2.5-3-3-7.8.5-10.4 3.7-2.9 6.4.1 9.8 2.7A146 146 0 0 0 352 561c21 2.1 41.5-.2 62.3-.1 11.5 0 20.6-5.9 29.5-10.8 27.8-15.5 54.3-32.8 72.2-60.7a230 230 0 0 0 31.6-80.9c9.6-48 5.3-96.6 5.5-146.2 4.2-36.9 8.1-72.7 27.3-104.8M60.6 238.6c21 1 34.7 28 35.8 70.3-6 18.8-12.8-1-21 2.7-4 14.5 15.1 20 16.3 34-14-.6-21.1-9.3-25.9-19.8-5.5-12.2-1-22.2 9.7-29.9-6.7-13.4-21.7-18-30-30.5 10-3.5 15.1 2.9 21 6.8 5.9 4 9 11.3 17 15-.8-19.8-11.7-34-23-48.6" fill="black"/></g><g id="clothes-variant12-82a1dfb9"><path d="M1321.6 744.7H110.4l8.6-63.2S41.3 655 33.5 639.7s84.3-214 97-245.4c12.6-31.5 76.6-148 135.7-174 39.7-17.3 137.8-75.2 175-91.5 4.8-2.1 16.8-20 24.4-33s15.7 13.4 42-28.5c6.7-10.6 34.7 7 50.7 17.3 13.6 9 36.7 44.5 142.6 37.8 143.6-9 163.1-75.4 179.7-65.7 24 14 53.8 56.5 53.8 56.5s109.8 69 138.7 91.6c59.5 46.4 123.1 81.9 180.6 251.6 19.9 58.6 78 160.2 86 173.2 8.2 13.1-27 36-27 36z" fill="white"/><path d="M1090.5 226.4c-30.2-25.3-60-47-93.8-66.2-2.3-1.3-4.7-3.4-7.4-1.2-3.7 3.2-2.5 7.6-1.5 11.7 6.1 24.7.6 46.4-15.4 63.8a85 85 0 0 1-36 22.7c-9.3 3-12.6 8-9.8 19.7 5.4 21.8 11.7 43.1 11.2 66.9-.7 29-12.8 49.6-29.5 68.8-23 26.6-53.7 35.9-83.7 46.8a383 383 0 0 0-90.2 45.3c-15.2 10.7-23 30-30.6 48a293 293 0 0 0-18.6 77.1c-2.5 18.7 6 34.8 9.7 52 5 23.3 14.4 44.4 30.3 62-3.9.9-7.7.9-12.6.9a183 183 0 0 1-36-137.3c5.3-39.7 18.7-76.8 45.6-105.2 16-17 36.4-26.8 56.3-37 28.7-14.6 60-22.2 88.5-37 29-15.2 51.2-39.3 55.6-79a164 164 0 0 0-6.6-61c-5-19-.5-31.3 16.5-42 9.4-6 19.7-9.4 28.3-18a53 53 0 0 0 17.3-32.9c2.8-27.8-2-51.7-22.2-66.3-11.7-8.4-16-8-25.6 3.3-3.8 4.4-7.2 9-13.4 5.7-1.7-2.1-.3-4 .5-5.8 2.8-5.6 10.7-8.8 8.2-17-3.2-10.7-6.4-22-15.4-28.9-6.4-4.8-13-6.4-20-1.7-3.3 2.2-6.5 4.5-10 6q-2.2.9-4.5 0-2.2-1.1-3.1-3.6c-1.6-3.6.6-5.3 2.8-7.2q5.2-4.4 11-10c-6.4-8-12.1-5.6-18-.9-10.3 8.4-20 18.1-31 24.8a211 211 0 0 1-100 31.7c-33.9 1.4-67.8 3.2-101.6.8-21.7-1.6-41.6-11.5-61.5-20.5-16.4-7.4-31-18.4-46.8-27.1-13.5-7.4-20.5-4.6-28 10-9.5 18.5-7 33.2 8.6 49.4 3.6 3.8 11.3 7.6 7.2 13.5-5 7-10.2-1.5-14.1-4.9-10.8-9.4-20-20.4-21.1-37-.3-4-.5-8-5.2-8.5-3.6-.4-6 .9-8.5 4.5-8.2 12.4-8 18.6 3 36.7 2.5 4.3 5.8 8 2.2 14.2-11-4.8-14.8-17.1-20.7-27.2-6.6 5.5-4.4 11-2.9 16a148 148 0 0 0 62.4 81.8c13.7 9 27.5 18 42.7 22.9 36.4 11.6 72.3 26.3 111.4 23.3 25.9-2 52.2 3 77.7-6.3 6.7-2.4 9.2 2.5 8.5 9.1-2.5 26.3-7.4 51.7-21.2 74-22.7 36.6-55.2 59.4-88.8 80.6-25.8 16.3-54.8 25.3-79 45.5a191 191 0 0 0-46.5 54.3c-22.7 41.2-26.1 85.8-16.3 132.1 5.2 24.8 19.8 43.2 34.4 61.4 5.3 6.6 11.2 12.7 17 19.8-3.8.9-7.7.9-12.5.9-24.9-24.6-46.3-51-53.4-88.3a217 217 0 0 1 .3-77.2c7.8-46 30.5-81.7 62.1-110.1q22.3-19.9 48.4-32.2c43.2-20.5 83.2-46.6 115.5-85.8a105 105 0 0 0 23.8-63.6H659c-27.8 0-54.3-7-80.8-15.8a296 296 0 0 1-70.4-33 163 163 0 0 1-66.8-82.4c-3.2-9-6.4-10.2-13.3-5.7-27.6 17.7-57.8 28.4-86.6 42.9-49.3 24.8-101.5 44.3-137.1 94.5a789 789 0 0 0-45.2 71.5c-28.4 50.8-49.7 105.8-73.8 159.2-13 28.6-26.3 57-37.6 86.5-9 23.4-7.5 27.2 14.7 34 13.4 4 26.3 11.1 40 13.5 36.2 6.4 68.5 24.7 101.7 40.3a530 530 0 0 1 77.1 41.6c4.9 3.4 11.4 2.2 15 9.2q-14.4 1.3-28.8.3c-45.3-26-93-39.7-138.8-62-5 23-10.7 42.1-11.6 62.6h-12.6c-2.8-9.2.5-17.6 2.1-26.3 2.1-11.3 1.2-19.6-11.4-22-20.5-4-37.4-17.3-54.6-29.4-12.1-8.4-16-26.2-11.3-47 5.5-25 15.6-47.6 25.5-70.5C74.9 502 96.4 455 117.6 408c25.8-57 55.5-112 97.7-156.2a261 261 0 0 1 71.6-51.9c22.8-11.7 45.6-23.8 69-33.8 20-8.7 39-19.6 58.7-29 14.6-6.9 28.3-14.7 36-32.2 6.1-13.8 15.5-24.6 31.5-20.1 4.2 1.2 6-1.6 8.1-5 16-24.3 28-26.8 51.8-11.2 6.6 4.3 42.5 24.2 53 29.5 23.8 12 49.6 18 75.7 17.8 26.4-.2 52.8-2.6 79.1-4.5 31-2.2 59.2-15.6 86.1-31.6 9.8-5.8 18.4-14.6 27.8-21.6 11.3-8.4 23.5-6.9 33.5 3.9q6 6 13.2 9.7c13.1 7 17.5 24.3 27.8 32s25.2 7.9 34.6 20.6c6.3 8.6 16.4 11.6 25 17 248.7 157.4 198.5 193.2 296.6 375.9 17.1 31.9 29.5 66.4 46.1 98.5l.6 1c16.3 27 13.1 39.2-14 52.2-7.1 3.4-10.8 6.6-9 16.9 3.3 18.7 4.7 37.8 6.7 57.8-4 1-8 1-13.1 0-4.2-10.9-3.7-21.1-3.7-31.3-.2-17.7-5.8-33.8-10.4-51.4-10.2 4-20 6.2-28.4 11.1-27 15.8-55 27.2-85 33-15.1 3-21.7 13.5-21.7 30.9q.3 4.5 1 8.8-7.7.2-15.2-1.2c-2.6-76 172-113.3 172-113.3s-32.1-68.2-55.2-126.2c-26.7-67.2-42.4-95.4-57.5-133.3-23.2-58.5-113.7-141.4-117.1-144.3" fill="black"/><path d="M550.3 641.4c-10.3-30-7.6-58 5.5-85.1L561 545c2-4.7 5.2-8 9.8-5.6 4.4 2.2 3 6.6 1.7 11-3.4 12-9.4 22.8-12.7 35-7.8 29.1.5 53 16 75 6.4 9 14.9 16.3 16.1 29.2a88 88 0 0 1-41.7-48.3m306.6-450.7c16.4-22 34-33.6 45.2-28.9a35 35 0 0 1-11.2 12 134 134 0 0 0-38 39.3c-15.3 22.7-15.8 46.3-2.4 70.6a98 98 0 0 1 11.5 40.8q1.8 25-19.8 35.3c-.5-.7-1.3-1.7-1.2-2 15.4-21.9 9-44.4 1.6-67-11.5-35.8-8.3-69.3 14.3-100" fill="black"/></g><g id="hair-variant27-82a1dfb9"><path d="M312 297.4c15-22 35.7-36 57-49.4 28.5-18 59-31.6 90.8-42.7 22.3-7.8 45.7-12.8 67.7-21.4 26.8-10.3 54.2-20.3 73.6-43.3 18-21.2 17-33-3.6-48.8-.3-5.2 3-8 7.3-9.2 45-12.8 90.6-23.5 137.8-21.2 45.5 2.2 80.2 23.4 100.6 64.4 11.3 22.7 19.4 47.1 18 73.3a26 26 0 0 0 10.8 24C904.7 249 915 307 884.5 335c-15.5 14.3 8.6 20.5-20.7 64.8-8.6 13-9.3 29-18.2 42.6-1.3-45.3 6-91.7-16.7-136a159 159 0 0 1-78.5 56.2 248 248 0 0 1-130.4 9.2c-30-5.6-60.7-7.9-91.2-9.7a122 122 0 0 0-95.2 33.7 82 82 0 0 0-25.2 56.7c-2 31-4.4 62-2 93 .5 7.9-.8 16.5-10.5 17.9-7.8 1-14-3-19-9.8-8.6-12-7.2-27.4-15.1-40a84 84 0 0 0-57.2-40.4c-3.6-.7-6.5 1-9.7 2.3-10.8 4.6-14.8 1.2-16.7-10.7-4.3-28.3-3.7-56.7.5-84.8 4.5-29.6 15-57.2 33.4-82.5" fill="black"/></g><g id="mouth-variant12-82a1dfb9"><path d="M176 64c-3.3-2.8-6.4-5.1-11.4-2.8-7.9 3.6-16.1 6.5-24.3 9.8 8.5 11.3 17.4 21.9 23.8 34.4 4.2 8.3 11.8 14.4 22 10.5 9.4-3.5 9.3-12.6 8.4-20.7A43 43 0 0 0 176 64" fill="white"/><path fill-rule="evenodd" clip-rule="evenodd" d="M209 97v-4.9c1-6.4-.6-11.9-2-16.6l-1.3-5.2c3-5.6 7-3.3 10.7-1.1 4 2.3 7.5 4.3 9.2-2.9 1.8-7.2-2-15.5-10.5-20.3-7.8 8.7-16.3 7.7-25.4 2.7C183.2 45 176 43 169 46.3c-11 5-22.8 6.5-34.6 8.1L123 56l-2.5.4c-11.3 2-22.5 3.9-32.7-4.6-3.4-2.8-7.4-1-10.4 1.9-3 3-4 6.6-2.1 10.4 1.6 3.2 4 4.7 8.1 4.8 23.3.2 42.8 8.8 57.4 27.2q4.4 5.6 8 11.5l5 7.3c14 19.7 40.7 23.2 52.3-.4C209 109 209 103.3 209 97m-44.4-35.8c5-2.3 8.1 0 11.4 2.9a43 43 0 0 1 18.5 31c.9 8.2 1 17.3-8.4 20.8-10.2 4-17.8-2.2-22-10.5A186 186 0 0 0 144.9 77l-4.6-6 7.3-2.9a281 281 0 0 0 17-7" fill="black"/></g><g id="nose-variant09-82a1dfb9"><path d="M75.1 116.2c3.9 16.3 7.4 31.6 11.2 46.7 5 19.6 2.1 28.4-15.7 35.9-20 8.2-45.5 7-59.6-15.5-2.2-3.5-3.6-6.6-3-10.6.7-3.2 1.9-5.7 5.4-6.3 3.7-.6 5 1.5 6.4 4.6q13.9 29.4 43.7 17.1c10.1-4 13.3-11.8 10-21.6a292 292 0 0 1-13.5-67c-1.5-14.8-4.2-30.2 5.7-43.3h4z" fill="black"/><path d="M31.5 176.5c-5.7-8.1 0-10.7 5.5-12.3 4-1.2 8.2 1 7.9 5.6-.5 8-6.1 8.8-13.4 6.7" fill="black"/></g><g id="eyes-variant02-82a1dfb9"><path d="M212.2 70q19.4.3 37.6 2.4c3 .4 5 3.3 5 6.7q-.1 5-4.7 7c-11.2 4.8-22 8.2-33.7.2-6.5-4.5-9-8.7-4.2-16.4M56 71.4c6.4 2.8 5.6 6.6 3 10.6-5.9 8.6-27.3 12.5-36 6.6-5-3.4-8-8-5.6-14C19.9 68.4 25 69 30.2 71c8.3 3.3 16.5 1.7 25.8.4m168.4-13c-4.2-9.5-9.9-15.2-19.8-15.7-6-.3-7-5.1-8.9-9.8 2-1.5 3.5-3.7 5.3-3.8q31.8-2.6 63.5-.1c6 .4 9.3 8 3.2 10.4-10 4-12.5 13.2-18.5 19.8-8.2 9-15.2 9.1-24.8-.8m-190-29.9c12.2.7 23.1 1 34 2 3.6.3 8 1.8 8 6.7 0 5.6-4.6 5.2-8.3 5.1-6.3 0-9.7 2.7-12.5 8.6-3.4 7.4-6.9 15.3-18 14.8C27 65 22.5 58.5 19.5 50.5c-2.2-5.7-5-8.4-11-8.2-3.4.1-7.1-.2-7.5-4.9-.4-5 3-6 7-7.2a68 68 0 0 1 26.4-1.7" fill="black"/></g><g id="eyebrows-variant06-82a1dfb9"><path d="M52.5 37.6a79 79 0 0 0 27.3-19.8c2.7-3 6.1-5.7 9.9-5 6.7 1.1 16.2-1 18.8 7.5 2.1 7-5.2 10.5-10.3 14.4-13.8 10.5-28.2 19-46.6 16.7-4.6-.5-9.7.2-11-6.2 1.6-5.5 7.3-4.9 11.9-7.6M250.4 15c8.5-1.7 12.6 4.1 17.1 8.2 8.1 7.4 14.7 16.4 26 19.8 3.3 1 5.7 4 4 8-1.5 3.5-4 5.7-8 4.6-14.3-3.8-29.2-5.9-40.6-16.8-10-9.6-10.2-14 1.5-23.7" fill="black"/></g><clipPath id="clip-82a1dfb9"><rect width="1744" height="1744" rx="0" ry="0"/></clipPath></defs><g clip-path="url(#clip-82a1dfb9)"><use transform="translate(532 491)" href="#head-variant01-82a1dfb9"/><use transform="translate(151 1029.3)" href="#clothes-variant12-82a1dfb9"/><use transform="translate(266 221.9)" href="#hair-variant27-82a1dfb9"/><use transform="translate(791 872)" href="#mouth-variant12-82a1dfb9"/><use transform="translate(901 669)" href="#nose-variant09-82a1dfb9"/><use transform="translate(805.2 732.6)" href="#eyes-variant02-82a1dfb9"/><use transform="translate(775 657)" href="#eyebrows-variant06-82a1dfb9"/></g></svg>