<svg xmlns="http://www.w3.org/2000/svg" viewBox="0 0 980 980" fill="none" shape-rendering="auto" aria-hidden="true"><metadata xmlns:rdf="http://www.w3.org/1999/02/22-rdf-syntax-ns#" xmlns:xsi="http://www.w3.org/2001/XMLSchema-instance" xmlns:dc="http://purl.org/dc/elements/1.1/" xmlns:dcterms="http://purl.org/dc/terms/"><rdf:RDF><rdf:Description><dc:title>Lorelei</dc:title><dc:creator>Lisa Wischofsky</dc:creator><dc:source xsi:type="dcterms:URI">https://www.figma.com/community/file/1198749693280469639</dc:source><dcterms:license xsi:type="dcterms:URI">https://creativecommons.org/publicdomain/zero/1.0/</dcterms:license><dc:rights>Remix of “Lorelei” (https://www.figma.com/community/file/1198749693280469639) by “Lisa Wischofsky”, licensed under “CC0 1.0” (https://creativecommons.org/publicdomain/zero/1.0/)</dc:rights></rdf:Description></rdf:RDF></metadata><defs><g id="eyes-variant06-e23d7091"><path d="M325 10q10 3 15 11 3 4 1 10-3 6-10 5-6-3-11-9-9-6-19-2l7 7q5 13 1 26-2 10-11 14t-16-4q-6-10-4-23-7 9-11 20l-4 7q-3-9 1-19 10-25 35-39 12-6 26-4M90 21c31-4 62 14 76 41q3 5 1 10-6-3-7-7-9-12-19-20v16q-1 13-11 21-9 5-19-1-9-6-10-19-1-16 6-28-27 3-52 19l-7 4q-5 1-7-3-2-6 1-11 20-18 48-22" fill="#2b1b17"/></g><g id="eyebrows-variant13-e23d7091"><path d="m327 63 2 2-14 14-21 15-27 18q-6 5-13 7l-8 1-11 20h-2q-2-10 1-20 2-10 8-16l10-4 31-21q12-9 26-13zM10 72q15 0 28 2l26 7 15 1 24 2q11 4 23 6l34 11 3-5q3-2 5 1 7 13 11 25 2 8-6 9-7 0-12-6l-11-9-30-9-20-5-15-3-15-4-24-9c-10-4-20-4-29-9q-5-1-7-5" fill="#1f1714"/></g><g id="nose-variant05-e23d7091"><path d="m36 23 2 2 7 22 15 23q6 9 5 20-2 10-9 16-11 10-25 16-7 5-18 2l6-4 36-24q4-4 4-9-2-9-8-16-8-13-13-25-4-11-2-23" fill="#000000"/></g><g id="mouth-happy06-e23d7091"><path d="M128 40q40-2 78 6l8 4q3 1 2 3-6 3-14 2l-5 5q-10 10-22 16-11 4-22 5-24 1-48-3a147 147 0 0 1-68-28l-12-4q-3-2-2-5h8q24 3 49 2zm42 11q-35-2-69 1l-43 1 23 10q20 7 41 8 15 2 32 1 11-1 21-6 9-5 17-13z" fill="#000000"/></g><g id="head-variant01-e23d7091"><path d="M331 12q63 11 114 48 42 32 65 81 20 43 18 90 0 23-7 44l-2 1 1-21q2-45-13-87-17-46-51-79c-41-40-98-63-155-64a243 243 0 0 0-196 95 207 207 0 0 0-41 139l3 24c8 0 19 1 25 8l-4 2q-8 2-16 1-19 2-33 14a64 64 0 0 0-18 39c-4 32 13 65 40 83q25 17 55 8 6-3 14-2 3 2 5 7 8 19 21 37a251 251 0 0 0 68 63q14 11 29 17 28 12 57 20l32 8 13 3-4 1q-37 2-72-10-18-4-34-12a306 306 0 0 1-85-63l3 28q2 26-6 52-6 19-20 33-14 16-33 27-15 10-32 18-7 4-16 4l9-8 30-21 23-16q11-10 18-23 10-15 13-33 3-22 3-43v-28c-10-13-23-29-27-45-17 8-38 6-55-1q-27-11-43-34-18-24-22-55-2-32 16-56 14-17 35-21-6-22-6-44 0-38 13-74 22-58 70-99a249 249 0 0 1 198-56" fill="black"/><path d="M456 89q35 34 51 79 15 42 13 87l-1 21-5 15q-2 6-2 13l2 56-1 62-3 48q-3 24-15 44-15 29-43 45-20 11-41 16l-39 10-16 3q0 3 2 3 13 6 27 4-6 11-2 21 6 11 17 15 17 7 36 8 12 10 16 25 3 12-2 23-8 15-24 23-20 11-42 18-60 14-121 12-52-1-101-13-25-6-48-17-18-8-32-23-8-9-10-22 17-8 32-18 19-11 33-27 14-14 20-33 8-26 6-52l-3-28q12 13 23 22 28 24 62 41 16 8 34 12 35 12 72 10l4-1-13-3-32-8q-29-8-57-20-15-6-29-17-18-11-34-26a251 251 0 0 1-55-74q-2-5-5-7-8-1-14 2-30 9-55-8a88 88 0 0 1-40-83q3-23 18-39 14-12 33-14 8 1 16-1l4-2c-6-7-17-8-25-8l-3-24 2-46q8-52 39-93 35-47 87-72 52-24 109-23c57 1 114 24 155 64" fill="#f7d4b2"/><path d="M514 291q4 1 4 6 4 16 5 34l1 21q3 33 2 65 0 32-5 65-6 27-22 50-22 33-58 49-24 9-48 13v15l5 6q17 8 36 10 18 4 36 12-5 3-11 4-12 1-23-2-19-1-36-8-12-4-17-15-3-10 2-21-14 2-27-4-2 0-2-3l16-3 39-10q21-5 41-16 28-16 43-45 12-20 15-44l3-48 1-62-2-56q0-7 2-13M56 318q13-1 23 6 8 7 12 16 1 4-3 7l-12 9c-7 6-7 19 0 24q10 8 21 11 4 1 6 4l-5 3q-16 0-28-9-7-5-10-13-3-13 5-24 7-8 17-12-4-9-13-13l-23-5z" fill="black"/><use transform="translate(159 232)" href="#eyes-variant06-e23d7091"/><use transform="translate(164 126)" href="#eyebrows-variant13-e23d7091"/><use transform="translate(359 274)" href="#nose-variant05-e23d7091"/><use transform="translate(223 402)" href="#mouth-happy06-e23d7091"/></g><g id="hair-variant18-e23d7091"><path d="m415 93 8 1 5 3q-2 3-5 4l-11 5q-17 10-32 22l21-8a97 97 0 0 1 73 11l21 14 23 10 21 6 19 5q22-16 33-41l7-19q5 7 6 16 0 28-16 54 20-7 40-4 23 2 39 15 8 6 8 17l-5-2q-7-6-16-10-19-8-41-6l37 18q13 7 22 19 9 11 11 24l6 34 7 16a66 66 0 0 0 38 32l29 16q25 13 44 33 11 13 15 31 2 14-4 26-10 24-33 38-6 4-13 5l10-11 16-23q9-13 11-27-2-14-12-26 3 9 3 17 0 21-12 39-20 24-43 44-11 11-18 26-5 14 0 26 4 12 15 17 9 4 18 2l13-5-5 8-5 8q-4 8-12 14-11 9-25 15-14 8-30 12 21 16 25 41 2 9-2 20l-3-9-9-17q0 18-9 32-5 8-13 12-3 2-5-1l-4-7q-5-9-13-16-6 14-18 23-16 13-35 19-28 13-59 12l-16-1-22-3-42-8q-47-7-95-7l-61 3-19 1q-14 3-28-2-17-6-27-21-14-16-24-36-7 21-3 43 2 7 6 13-17 2-33-3-22-8-39-26-11-14-15-32-2-15 0-30l-4 23v22l1 16 3 12q-5-5-8-12-7-20-6-42 0-19 6-36 4-12 11-23-12-6-21-13-4-3-9-4-14-4-24-15-8-9-11-21-4-15-3-32 6-36 30-62 9-10 15-21 7-12 7-25l-1-27q1-24 12-45 14-24 33-44l18-21c13-15 22-34 35-50q7-9 17-16 16-11 34-8 13 0 24 6 7-16 17-31 11-13 26-24 15-12 33-19 16-6 31-8zM97 450q-13 19-15 41 0 22 13 39-6-23-4-47z" fill="#0b0b0b"/><use transform="translate(131 168)" href="#head-variant01-e23d7091"/><path d="m598 106 3 4q3 7 3 16 0 27-16 50 20-7 40-4 23 2 39 15 8 6 8 17l-6-3q-10-7-22-12-27-7-56 0l18 8q34 21 51 57 8 19 4 39t-17 36a151 151 0 0 1-50 42q-7 4-14 4l10-11q13-12 16-29 1-20-4-38-9-28-28-50 10 41-5 81-9 20-25 36-12 11-27 16-4 1-7-1l6-14q6-12 7-26 1-34-8-66l-5-17q1 29-9 56a94 94 0 0 1-60 57q-8 3-14-1l18-12q14-9 23-22 7-8 11-18 13-23 12-51-3 18-12 33-15 29-39 52-22 21-50 31l-11 1-3-3 4-18q6-24 6-48l-17 28q-17 22-39 37-23 17-49 26a253 253 0 0 0-1 90q6 30 26 54l4 5q-7-2-13-7a97 97 0 0 1-29-47l1 37v16l-5-3-10-8q-16-9-28-22-16-19-23-43 0-5-3-6-21-20-35-46-17-27-18-59-2-49 24-90 31-46 79-73 72-39 152-44 65-3 128 16 5 3 10 1 15-7 26-19 19-18 26-43z" fill="#0b0b0b"/></g><clipPath id="clip-e23d7091"><rect width="980" height="980" rx="0" ry="0"/></clipPath></defs><g clip-path="url(#clip-e23d7091)"><use transform="translate(76 3)" href="#hair-variant18-e23d7091"/></g></svg>