<svg xmlns="http://www.w3.org/2000/svg" viewBox="0 0 980 980" fill="none" shape-rendering="auto" aria-hidden="true"><metadata xmlns:rdf="http://www.w3.org/1999/02/22-rdf-syntax-ns#" xmlns:xsi="http://www.w3.org/2001/XMLSchema-instance" xmlns:dc="http://purl.org/dc/elements/1.1/" xmlns:dcterms="http://purl.org/dc/terms/"><rdf:RDF><rdf:Description><dc:title>Lorelei</dc:title><dc:creator>Lisa Wischofsky</dc:creator><dc:source xsi:type="dcterms:URI">https://www.figma.com/community/file/1198749693280469639</dc:source><dcterms:license xsi:type="dcterms:URI">https://creativecommons.org/publicdomain/zero/1.0/</dcterms:license><dc:rights>Remix of “Lorelei” (https://www.figma.com/community/file/1198749693280469639) by “Lisa Wischofsky”, licensed under “CC0 1.0” (https://creativecommons.org/publicdomain/zero/1.0/)</dc:rights></rdf:Description></rdf:RDF></metadata><defs><g id="eyes-variant16-e33d7224"><path d="M117 20q8-1 14 3 7 8 8 18 2 15-4 30-4 10-13 14-11 2-18-7-6-10-5-22 1-13 6-24 5-8 12-12m170 7q8-3 14 3 7 8 7 18 1 13-5 25-4 7-11 10-9 1-15-5-5-5-5-12-2-14 4-26 3-8 11-13" fill="#2b1b17"/></g><g id="eyebrows-variant06-e33d7224"><path d="M133 11q7 0 12 6 12 12 19 29 4 6 3 14 0 4-4 4l-4-7-17-22q2 8 0 14-3 5-9 5-8-1-14-6-6-4-12-5l-7 2-11-3-20-2-18 2q6-5 13-8 15-6 32-4l10-1q14 1 25 10l-4-19q-1-8 6-9m143 14q5 1 5 5-1 7-4 13 4-4 10-4 5 1 6 5 10-4 18-2 4 1 5 6l-10 5q-7 4-16 5l-7-4q-4 4-10 6-5 1-7-3v-9l-9 15-4 6q-3 1-4-2l2-11q5-12 14-23z" fill="#1f1714"/></g><g id="nose-variant05-e33d7224"><path d="m36 23 2 2 7 22 15 23q6 9 5 20-2 10-9 16-11 10-25 16-7 5-18 2l6-4 36-24q4-4 4-9-2-9-8-16-8-13-13-25-4-11-2-23" fill="#000000"/></g><g id="mouth-happy15-e33d7224"><path d="M235 29q5 1 6 5 3 10-5 19c-5 4-13 8-16 15q-4 6-11 10-10 7-24 7-14-3-26-8l-33-4-9-1q-6 2-13 1t-13-3c-10-1-17 5-26 4q-9-3-10-13 0-9 5-18l-13 6q0-4 3-7 5-6 13-8 3-1 8 1 4 3 2 8-5 9-5 18 2 4 8 3 7-3 16-2l10 2 19-2 21 3 24 6c7 2 13 7 21 5q9-2 16-9 5-5 8-11l15-10 5-5 3-9z" fill="#000000"/></g><g id="head-variant04-e33d7224"><path d="M299 0a231 231 0 0 1 219 204q2 15 0 30 0 5-4 8-4-15-5-29-3-35-16-68A220 220 0 0 0 271 8q-64 6-117 44l-18 13a221 221 0 0 0-78 164q2 34 16 64l17-1q5 3 2 7l-6 1q-24 2-42 18-14 13-17 31-3 24 9 44 14 24 40 34 20 8 43 4 6-1 11 1v3q-7 7-18 7-25 3-48-8a86 86 0 0 1-47-58q-5-29 10-53 12-18 34-26-10-21-12-43-3-27-1-53 3-20 9-38a227 227 0 0 1 99-122c41-28 92-43 142-41" fill="black"/><path d="M338 13a220 220 0 0 1 171 200q1 15 5 29l-2 17v22q-4 8-5 15l-1 23-1 65q0 32-10 61-6 19-19 34-14 18-33 32-17 14-37 24l-22 14-12 8 9-3q-4 19-4 37-1 13 7 22 10 12 25 20 26 16 55 25 11 10 14 25 2 14-5 26-8 15-22 25-20 13-43 22-44 15-92 19-63 5-124-8-26-5-49-17-17-7-28-21-9-9-12-22-2-16 6-30 32-20 49-54 7-17 7-34 2-24 0-47-2-31-8-61 16 18 36 32 26 16 56 26 30 11 63 17 12 4 25 4l8-2q2-1 2-4-9 1-17-2-45-10-87-26-29-10-53-27-26-20-47-47-5-9-12-16v-4q-5-2-11-1-23 4-43-4-26-10-40-34-12-20-9-44 3-18 17-31 18-16 42-18l6-1q3-4-2-7l-17 1q-14-30-16-64 1-21 5-41 7-31 22-59 19-36 51-64l18-13a230 230 0 0 1 184-39" fill="#e8ad8b"/><path d="M512 281q3 6 2 13l1 29q2 40 0 80c-3 31-14 63-36 86q-38 43-93 63l1 8 1 35q2 8 8 13l26 19 32 20 24 12 4 3-18-4q-29-9-55-25-15-8-25-20-8-9-7-22l4-37-9 3 12-8 22-14q20-11 37-24 19-14 33-32 13-15 19-34 10-29 10-61l1-65 1-23q1-7 5-15M82 343c5 5 4 14 0 19l-3 7 7 6 19 9q-1 6-7 5-10-1-19-6-10-4-12-16 2-8 6-14 2-7-2-12 6-3 11 2m49 93q7 7 12 16 20 27 47 47 24 16 53 27a714 714 0 0 0 104 28q0 3-2 4l-8 2q-13-1-25-4a478 478 0 0 1-119-43q-20-14-36-32 6 30 8 61 2 23 0 47 0 17-7 34-17 34-49 54-6 5-15 8l10-9q20-17 33-40 11-15 15-32 5-29 2-58l-2-59 2-10q-16-18-23-41" fill="black"/><use transform="translate(159 232)" href="#eyes-variant16-e33d7224"/><use transform="translate(164 126)" href="#eyebrows-variant06-e33d7224"/><use transform="translate(359 274)" href="#nose-variant05-e33d7224"/><use transform="translate(223 402)" href="#mouth-happy15-e33d7224"/></g><g id="hair-variant16-e33d7224"><path d="M526 83q20-1 37 9l10 5q3 6-3 8l-9-1q-27-5-54 6-13 5-25 15-16 13-25 31 20-10 41-18 37-12 76-4 39 4 71 26 17 14 28 32 11 19 10 40l-1 1-7-19q-10-19-26-34-13-13-30-20-35-13-71-13h-12q15 2 28 7 24 10 47 25 30 23 46 57 16 32 15 69v14l3 21 4 38q3 27 2 54 0 45-6 91c-2 34-8 69-10 104q-3 30-3 61-1 45 18 88l4 13q-4 2-10 1c-13-3-24-13-35-20q-1 13-12 19-23 15-51 17-13 1-25-5l-22-7q-17-5-35-6a432 432 0 0 0-94-1l-56 8-39 6q-23 5-48 6l-8 1q-17 5-35 0-12-5-20-15-8 15-20 29-2 3-6 3h-6q-4-3-6-8l-6-34-11-71q-1-6-3-8a353 353 0 0 1-10-354l5-12q10-38 31-71a286 286 0 0 1 128-110q40-17 81-15 26 3 47 17 0-14 9-26 20-25 50-39 23-11 49-11M122 400a333 333 0 0 0-20 109 377 377 0 0 0 31 150l-5-40-8-98-1-51 1-20v-36z" fill="#1f1714"/><use transform="translate(131 168)" href="#head-variant04-e33d7224"/><path d="m552 87 17 7q5 1 5 7 0 5-7 4-15-4-32-2a95 95 0 0 0-80 58q23-11 47-15 27-3 53 5 29 9 54 27 31 23 48 57 18 38 14 81-2 23-14 45-8 14-22 24-12 10-27 16-7 3-16 4-2 1-3-2v-9q-2-21-8-40-9-33-24-64-10-23-28-41 16 32 14 69-3 28-13 54-10 27-29 49-8 10-22 13 4-6 6-13l7-26 5-40q-12 33-35 58-11 11-24 20-9 6-20 7-5 0-3-5t6-10q17-23 28-50 12-33 12-69a362 362 0 0 1-49 78q-22 23-49 38l-27 13q-6 2-11 0-2-3 0-7l14-65q-1-28-4-54-3 12-9 23-15 27-37 48-3 2-2 5-2 21-2 43 2 21 8 42l9 23q2 3 1 7-2 3-6 4-15 2-30-2-17-2-31-12-5-4-11-4c-28-2-56-13-74-35q-21-24-23-55-5-44 11-84a281 281 0 0 1 150-155q40-17 82-15 26 3 47 17 0-13 8-25 16-22 39-34 19-10 39-15 25-5 48 2" fill="#1f1714"/></g><clipPath id="clip-e33d7224"><rect width="980" height="980" rx="0" ry="0"/></clipPath></defs><g clip-path="url(#clip-e33d7224)"><use transform="translate(76 3)" href="#hair-variant16-e33d7224"/></g></svg>