<svg xmlns="http://www.w3.org/2000/svg" viewBox="0 0 980 980" fill="none" shape-rendering="auto" aria-hidden="true"><metadata xmlns:rdf="http://www.w3.org/1999/02/22-rdf-syntax-ns#" xmlns:xsi="http://www.w3.org/2001/XMLSchema-instance" xmlns:dc="http://purl.org/dc/elements/1.1/" xmlns:dcterms="http://purl.org/dc/terms/"><rdf:RDF><rdf:Description><dc:title>Lorelei</dc:title><dc:creator>Lisa Wischofsky</dc:creator><dc:source xsi:type="dcterms:URI">https://www.figma.com/community/file/1198749693280469639</dc:source><dcterms:license xsi:type="dcterms:URI">https://creativecommons.org/publicdomain/zero/1.0/</dcterms:license><dc:rights>Remix of “Lorelei” (https://www.figma.com/community/file/1198749693280469639) by “Lisa Wischofsky”, licensed under “CC0 1.0” (https://creativecommons.org/publicdomain/zero/1.0/)</dc:rights></rdf:Description></rdf:RDF></metadata><defs><g id="eyes-variant15-e13d6efe"><path d="M325 10q11 3 16 14 3 7-4 11t-12-3q-4-6-11-8-7-1-13 1l4 5q6 10 5 22 0 10-4 20l9-4q1 5-2 9-8 11-20 12-13 3-25-3-5-5-5-13-2-3-1-6 1-15 9-27 11-17 29-26 12-6 25-4M117 56q21 3 43 11l8 3q4 7 0 13-5 3-11 2h-45q-21 1-41-2-4 0-7-3l-14 2q-4 2-7-1-3-4 1-8 4-3 9-4l27-5 9-1-16-1-19-1q-3 0-3-3 0-2 3-3l15-2q24-2 48 3" fill="#2b1b17"/></g><g id="eyebrows-variant06-e13d6efe"><path d="M133 11q7 0 12 6 12 12 19 29 4 6 3 14 0 4-4 4l-4-7-17-22q2 8 0 14-3 5-9 5-8-1-14-6-6-4-12-5l-7 2-11-3-20-2-18 2q6-5 13-8 15-6 32-4l10-1q14 1 25 10l-4-19q-1-8 6-9m143 14q5 1 5 5-1 7-4 13 4-4 10-4 5 1 6 5 10-4 18-2 4 1 5 6l-10 5q-7 4-16 5l-7-4q-4 4-10 6-5 1-7-3v-9l-9 15-4 6q-3 1-4-2l2-11q5-12 14-23z" fill="#1f1714"/></g><g id="nose-variant06-e13d6efe"><path d="M54 97q0 13-10 23-5 5-14 6-9-1-19-5-6-2-11-6l5-4c9-1 17 3 25 4q6-1 9-6 7-8 15-12" fill="#000000"/></g><g id="mouth-happy15-e13d6efe"><path d="M235 29q5 1 6 5 3 10-5 19c-5 4-13 8-16 15q-4 6-11 10-10 7-24 7-14-3-26-8l-33-4-9-1q-6 2-13 1t-13-3c-10-1-17 5-26 4q-9-3-10-13 0-9 5-18l-13 6q0-4 3-7 5-6 13-8 3-1 8 1 4 3 2 8-5 9-5 18 2 4 8 3 7-3 16-2l10 2 19-2 21 3 24 6c7 2 13 7 21 5q9-2 16-9 5-5 8-11l15-10 5-5 3-9z" fill="#000000"/></g><g id="head-variant04-e13d6efe"><path d="M299 0a231 231 0 0 1 219 204q2 15 0 30 0 5-4 8-4-15-5-29-3-35-16-68A220 220 0 0 0 271 8q-64 6-117 44l-18 13a221 221 0 0 0-78 164q2 34 16 64l17-1q5 3 2 7l-6 1q-24 2-42 18-14 13-17 31-3 24 9 44 14 24 40 34 20 8 43 4 6-1 11 1v3q-7 7-18 7-25 3-48-8a86 86 0 0 1-47-58q-5-29 10-53 12-18 34-26-10-21-12-43-3-27-1-53 3-20 9-38a227 227 0 0 1 99-122c41-28 92-43 142-41" fill="black"/><path d="M338 13a220 220 0 0 1 171 200q1 15 5 29l-2 17v22q-4 8-5 15l-1 23-1 65q0 32-10 61-6 19-19 34-14 18-33 32-17 14-37 24l-22 14-12 8 9-3q-4 19-4 37-1 13 7 22 10 12 25 20 26 16 55 25 11 10 14 25 2 14-5 26-8 15-22 25-20 13-43 22-44 15-92 19-63 5-124-8-26-5-49-17-17-7-28-21-9-9-12-22-2-16 6-30 32-20 49-54 7-17 7-34 2-24 0-47-2-31-8-61 16 18 36 32 26 16 56 26 30 11 63 17 12 4 25 4l8-2q2-1 2-4-9 1-17-2-45-10-87-26-29-10-53-27-26-20-47-47-5-9-12-16v-4q-5-2-11-1-23 4-43-4-26-10-40-34-12-20-9-44 3-18 17-31 18-16 42-18l6-1q3-4-2-7l-17 1q-14-30-16-64 1-21 5-41 7-31 22-59 19-36 51-64l18-13a230 230 0 0 1 184-39" fill="#efc0a0"/><path d="M512 281q3 6 2 13l1 29q2 40 0 80c-3 31-14 63-36 86q-38 43-93 63l1 8 1 35q2 8 8 13l26 19 32 20 24 12 4 3-18-4q-29-9-55-25-15-8-25-20-8-9-7-22l4-37-9 3 12-8 22-14q20-11 37-24 19-14 33-32 13-15 19-34 10-29 10-61l1-65 1-23q1-7 5-15M82 343c5 5 4 14 0 19l-3 7 7 6 19 9q-1 6-7 5-10-1-19-6-10-4-12-16 2-8 6-14 2-7-2-12 6-3 11 2m49 93q7 7 12 16 20 27 47 47 24 16 53 27a714 714 0 0 0 104 28q0 3-2 4l-8 2q-13-1-25-4a478 478 0 0 1-119-43q-20-14-36-32 6 30 8 61 2 23 0 47 0 17-7 34-17 34-49 54-6 5-15 8l10-9q20-17 33-40 11-15 15-32 5-29 2-58l-2-59 2-10q-16-18-23-41" fill="black"/><use transform="translate(159 232)" href="#eyes-variant15-e13d6efe"/><use transform="translate(164 126)" href="#eyebrows-variant06-e13d6efe"/><use transform="translate(359 274)" href="#nose-variant06-e13d6efe"/><use transform="translate(223 402)" href="#mouth-happy15-e13d6efe"/></g><g id="hair-variant35-e13d6efe"><path d="M346 129q28-1 55 4 16 1 30 8 17-8 35-8 17 0 32 3 25 5 46 16 16 9 29 21l8 9 9 3q12 4 22 11 28 19 50 44 22 22 32 51c7 21 4 43 1 64l33 34q13 15 21 33 12 23 11 51 0 26-14 48-15 20-27 41c-7 14-5 27-4 42l3 22 16 41q12 27 1 53-8 19-27 30-23 14-48 26-26 14-47 34-6 12-15 23l-7 8q-10 18-28 27-23 10-49 10-15 0-31-4c-31-7-60-27-91-35q-16-6-33-2-14 8-27 20-9 7-22 8-23 2-46-5-20-4-37-13l-21-12q-6-2-12 1l-32 14q-18 8-38 11-14 3-29-2-25-10-35-36-6-15-2-32c3-18 15-34 19-51q3-11-3-19c-7-11-19-14-26-25q-9-14-8-31 1-28 13-51 8-15 20-26l17-21 6-10q-2-11-7-20l-24-51q-10-26-4-52 4-23 14-44 19-36 44-68l16-24 7-12a227 227 0 0 1 109-128q45-24 95-29M75 706q11 9 13 22 2 16-5 31c-5 14-13 26-14 42-2 24 19 48 44 47q-16-2-27-14-11-13-10-29 3-19 12-35 9-17 14-36 1-11-6-19-5-5-11-6zm643-45q0 12-4 23-4 13-12 24-10 16-27 27l-24 15q-12 7-19 18l-11 22 34-26 43-24q16-9 24-24 7-15 3-31-2-12-7-24M79 414q-7 19-6 40 0 13 6 27l26 50q3-30-12-55l-14-30q-3-16 0-33zm577-158q8 18 12 37 1 15 7 29l7 15q4-23-3-45-8-20-23-36" fill="#33231f"/><use transform="translate(131 168)" href="#head-variant04-e13d6efe"/><path d="M348 130q28-1 54 3 16 2 29 8l16-6q23-4 46 0 27 4 52 17 15 9 29 22l10 14q11 2 18 9 13 13 23 28 12 18 20 40 7 23 9 48l6 48q3 7 4 16l-10 11v8l25-8q0 9-7 16-7 6-16 10-20 3-35-9a67 67 0 0 1-19-43q0-27 2-52l2-23v-23q-3-21-17-34-5-5-11-4-17 5-36 5-5 0-6-5 1-10 7-19l-20 11q-12 8-26 14-3 1-7-2-20-16-44-27 4 7 5 15 0 4-4 6-7 1-16-1l-30-1q-13 35-18 71-6 27-15 52-13 38-39 67-11 12-25 22-6 3-10 8-15 16-34 27 0 34 15 65c6 10 15 22 25 28l11 2q1 3-2 5-5 6-13 8-11 2-21 0-16-4-29-14-16-13-23-33-11-24-7-49-20 3-39-2-12-3-19-13h-5q-4-1-6-6l-4-24a322 322 0 0 1 26-181 239 239 0 0 1 86-95q44-25 93-30m44 93-40 5q-11 19-19 42-8 27-9 56c-2 25-2 53-9 78q28-32 42-71l25-85z" fill="#33231f"/></g><clipPath id="clip-e13d6efe"><rect width="980" height="980" rx="0" ry="0"/></clipPath></defs><g clip-path="url(#clip-e13d6efe)"><use transform="translate(76 3)" href="#hair-variant35-e13d6efe"/></g></svg>