<svg xmlns="http://www.w3.org/2000/svg" viewBox="0 0 768 768" fill="none" shape-rendering="auto" aria-hidden="true"><metadata xmlns:rdf="http://www.w3.org/1999/02/22-rdf-syntax-ns#" xmlns:xsi="http://www.w3.org/2001/XMLSchema-instance" xmlns:dc="http://purl.org/dc/elements/1.1/" xmlns:dcterms="http://purl.org/dc/terms/"><rdf:RDF><rdf:Description><dc:title>ToonHead</dc:title><dc:creator>Johan Melin</dc:creator><dc:source xsi:type="dcterms:URI">https://www.figma.com/community/file/1589627891082866389</dc:source><dcterms:license xsi:type="dcterms:URI">https://creativecommons.org/licenses/by/4.0/</dcterms:license><dc:rights>Remix of “ToonHead” (https://www.figma.com/community/file/1589627891082866389) by “Johan Melin”, licensed under “CC BY 4.0” (https://creativecommons.org/licenses/by/4.0/)</dc:rights></rdf:Description></rdf:RDF></metadata><defs><g id="body-body-f284c485"><path d="M308.5.5v69.45l.4.07c120.32 22.8 211.37 128.92 211.6 256.48H.5C.74 198.94 91.8 92.8 212.1 70.02l.4-.07V.5z" fill="#f7d4b2" stroke="black"/><path d="M212 0h97v37s-30.58 9.4-49 9.5c-19.59.1-48-9.5-48-9.5z" fill="black" fill-opacity=".2"/></g><g id="head-head-f284c485"><path d="M4.98 313c-20-77.5 33.5-50 33.5-50C2.66 147.18 30.48.5 197.48.5s194.82 146.68 159 262.5c0 0 53.5-27.5 33.5 50-11.1 43-51 43-51 43-5.93 50.4-91.5 95.5-141.5 95.5S61.91 406.4 55.98 356c0 0-39.9 0-51-43Z" fill="#f7d4b2" stroke="black"/><path d="M15.7 270.5c19.81-10.14 38.7 54.5 30 69-16.5 8.5-55-56.21-30-69m363.96 0c-19.82-10.14-38.7 54.5-30 69 16.5 8.5 55-56.21 30-69M197.48 330c-7.81 0-18-7.5-16-9.5 2-3 8.19 3 16 3s14-6 16-3c1.81 2.17-8.19 9.5-16 9.5" fill="black" fill-opacity=".2"/></g><g id="clothes-shirt-f284c485"><path d="M537.68 295.5h-521c0-114.39 72.89-211.66 174.5-247.39C203.3 43.85 215.82 8.44 228.68 6c15.71 46.5 31.43 56.5 48 67 16.57-10.5 33.29-20.5 49-67 12.86 2.44 25.38 37.85 37.5 42.11 101.61 35.73 174.5 133 174.5 247.4Z" fill="#CBECF7" stroke="black"/><path d="m229.18 127.5-34.5-63 34.5 52.5 42.5-34.5zm94 0 34.5-63-34.5 52.5-41.5-34.5z" fill="black" fill-opacity=".2"/><path d="M537.68 295.5h-521a262.1 262.1 0 0 1 163-243.03c21 30.03 63.03 139.03 97.5 139.03s83.5-109 97.5-139.03c95.57 38.82 163 133 163 243.03Z" fill="#151613" stroke="black"/></g><g id="mouth-sad-f284c485"><path d="M117 28.1c-5.6-6.78-14.7-8.64-23-10.2-6.89-1.3-14.02-.8-21-.8-16.38 0-33.36 1.28-49 6.69-8.05 2.76-19.39 6.73-24 14.3 4.88-1.42 9.12-4.33 14-5.7 14.38-4.1 29.32-4.09 44-5.49 12.54-1.19 25.36-4.59 38-3.73 7.36.5 13.98 3 21 4.91" fill="#3F2626" fill-opacity=".5"/></g><g id="eyes-wide-f284c485"><path d="M68.5 6.47c29 10 22.5 53 22.5 53s-8 21-52.5 11c-27.15-6.1-26.5-41-26.5-41s27.5-33 56.5-23" fill="#F6F1E4"/><circle cx="61" cy="46.47" r="27" fill="#4B2422"/><path d="M13.5 13.97h7s22.06-25.11 53-8c23.5 13 18 43 18 43s1.25-43-37-43-37.5 46-37.5 46-3.18-5.55-4.25-9.75L10 31.47l-10-7.5h18.5z" fill="#4B2422"/><path d="M192.56 6.47c-29 10-22.5 53-22.5 53s8 21 52.5 11c27.15-6.1 26.5-41 26.5-41s-27.5-33-56.5-23" fill="#F6F1E4"/><circle cx="27" cy="27" r="27" transform="matrix(-1 0 0 1 227.06 19.47)" fill="#4B2422"/><path d="M247.56 13.97h-7s-22.06-25.11-53-8c-23.5 13-18 43-18 43s-1.25-43 37-43 37.5 46 37.5 46 3.18-5.55 4.25-9.75l2.75-10.75 10-7.5h-18.5z" fill="#4B2422"/></g><g id="eyebrows-angry-f284c485"><path d="m99.68 73-5.5 19s5.68-4.87 7-8.5c1.68-4.65-1.5-10.5-1.5-10.5m37.49.34 5.5 19s-5.68-4.86-7-8.5c-1.68-4.64 1.5-10.5 1.5-10.5" fill="black" fill-opacity=".2"/><g fill="#4a3028"><path d="M48.09 80.59c15.23.92 27.46 19.57 38.01 9.58 10.56-10-22.3-28.37-39.72-28.3-14.95.07-38.1 11.15-35.8 13.58 2.3 2.44 22.75 4.24 37.5 5.14m140.69.35c-15.24.92-27.47 19.57-38.02 9.58s22.3-28.37 39.72-28.3c14.95.07 38.1 11.15 35.8 13.58-2.3 2.44-22.75 4.24-37.5 5.14"/><path d="M48.09 80.59c15.23.92 27.46 19.57 38.01 9.58 10.56-10-22.3-28.37-39.72-28.3-14.95.07-38.1 11.15-35.8 13.58 2.3 2.44 22.75 4.24 37.5 5.14Zm140.68.35c-15.24.92-27.47 19.57-38.02 9.58s22.3-28.37 39.72-28.3c14.95.07 38.1 11.15 35.8 13.58-2.3 2.44-22.75 4.24-37.5 5.14Z" stroke="black"/></g></g><g id="hair-sideComed-f284c485"><path d="m385.34 402.5 13-5.5s28.48-120.79 13-178c-8.35-30.85-74-47.5-74-47.5s0-81.41-152-47C79.4 148.48 20.36 231.63 38.84 329.5c5.57 29.49 13.47 40.2 19 69.5l8.5 3 24.5-105s70.6-1.43 112-15 100-54.5 100-54.5 39.82 28.78 56.5 54.5c26.2 40.39 26 120.5 26 120.5Z" fill="#4a3028" stroke="black"/></g><clipPath id="clip-f284c485"><rect width="768" height="768" rx="0" ry="0"/></clipPath></defs><g clip-path="url(#clip-f284c485)"><use transform="translate(124 556)" href="#body-body-f284c485"/><use transform="translate(186.52 139.5)" href="#head-head-f284c485"/><use transform="translate(107.32 587.5)" href="#clothes-shirt-f284c485"/><use transform="translate(326 487)" href="#mouth-sad-f284c485"/><use transform="translate(253 367)" href="#eyes-wide-f284c485"/><use transform="translate(265.82 287.36)" href="#eyebrows-angry-f284c485"/><use transform="translate(158.16)" href="#hair-sideComed-f284c485"/></g></svg>