<svg xmlns="http://www.w3.org/2000/svg" viewBox="0 0 768 768" fill="none" shape-rendering="auto" aria-hidden="true"><metadata xmlns:rdf="http://www.w3.org/1999/02/22-rdf-syntax-ns#" xmlns:xsi="http://www.w3.org/2001/XMLSchema-instance" xmlns:dc="http://purl.org/dc/elements/1.1/" xmlns:dcterms="http://purl.org/dc/terms/"><rdf:RDF><rdf:Description><dc:title>ToonHead</dc:title><dc:creator>Johan Melin</dc:creator><dc:source xsi:type="dcterms:URI">https://www.figma.com/community/file/1589627891082866389</dc:source><dcterms:license xsi:type="dcterms:URI">https://creativecommons.org/licenses/by/4.0/</dcterms:license><dc:rights>Remix of “ToonHead” (https://www.figma.com/community/file/1589627891082866389) by “Johan Melin”, licensed under “CC BY 4.0” (https://creativecommons.org/licenses/by/4.0/)</dc:rights></rdf:Description></rdf:RDF></metadata><defs><g id="rearHair-longStraight-eb84b980"><path d="m391.35 88.99-.04.6-.2 3.28a1729 1729 0 0 0-2.15 53.42c-.8 32.87-.8 73.77 2.42 105.72 3.23 31.96 11.48 72.86 18.93 105.76a1876 1876 0 0 0 13.8 56.68l.12.5H23.53l.13-.5.86-3.27a1877 1877 0 0 0 12.93-53.4c7.45-32.9 15.7-73.8 18.93-105.77 3.22-31.96 3.22-72.86 2.42-105.76a1730 1730 0 0 0-2.35-56.69l-.04-.6z" fill="#1f1714" stroke="black"/><path d="m342.88 88.99-.03.61-.14 3.28c-.1 2.85-.27 6.99-.45 12.16-.36 10.34-.79 24.8-1.08 41.25-.57 32.85-.57 73.75 1.72 105.69s8.17 72.85 13.47 105.74a2538 2538 0 0 0 9.8 56.69l.1.54H81.5l.1-.54a1431 1431 0 0 0 2.8-15.44c1.84-10.34 4.34-24.8 7-41.25 5.3-32.9 11.16-73.78 13.46-105.73s2.3-72.85 1.72-105.74a2427 2427 0 0 0-1.67-56.7l-.03-.6z" fill="black" fill-opacity=".2" stroke="black"/></g><g id="body-body-eb84b980"><path d="M308.5.5v69.45l.4.07c120.32 22.8 211.37 128.92 211.6 256.48H.5C.74 198.94 91.8 92.8 212.1 70.02l.4-.07V.5z" fill="#f7d4b2" stroke="black"/><path d="M212 0h97v37s-30.58 9.4-49 9.5c-19.59.1-48-9.5-48-9.5z" fill="black" fill-opacity=".2"/></g><g id="head-head-eb84b980"><path d="M4.98 313c-20-77.5 33.5-50 33.5-50C2.66 147.18 30.48.5 197.48.5s194.82 146.68 159 262.5c0 0 53.5-27.5 33.5 50-11.1 43-51 43-51 43-5.93 50.4-91.5 95.5-141.5 95.5S61.91 406.4 55.98 356c0 0-39.9 0-51-43Z" fill="#f7d4b2" stroke="black"/><path d="M15.7 270.5c19.81-10.14 38.7 54.5 30 69-16.5 8.5-55-56.21-30-69m363.96 0c-19.82-10.14-38.7 54.5-30 69 16.5 8.5 55-56.21 30-69M197.48 330c-7.81 0-18-7.5-16-9.5 2-3 8.19 3 16 3s14-6 16-3c1.81 2.17-8.19 9.5-16 9.5" fill="black" fill-opacity=".2"/></g><g id="clothes-dress-eb84b980"><path d="m130.68 186.5 292 3.5s-5.75-40.84-12-67c-6.25-26.17-18-61.7-18-61.7s-7.31-3.73-12-5.8-12-4.8-12-4.8-56.07 21.8-92 21.8-92-21.5-92-21.5-7.31 2.91-12 5-12 5.7-12 5.7-11.75 34.07-18 59.55-12 65.25-12 65.25Z" fill="#b11f1f" stroke="black"/></g><g id="mouth-agape-eb84b980"><mask id="mouthAgape-a" style="mask-type:alpha"><ellipse cx="57.5" cy="26" rx="20.5" ry="26" fill="#611519"/></mask><g mask="url(#mouthAgape-a)"><ellipse cx="57.5" cy="26" rx="20.5" ry="26" fill="#611519"/><ellipse cx="57.5" cy="51.5" rx="25.5" ry="14.5" fill="#E0564B"/></g></g><g id="eyes-wide-eb84b980"><path d="M68.5 6.47c29 10 22.5 53 22.5 53s-8 21-52.5 11c-27.15-6.1-26.5-41-26.5-41s27.5-33 56.5-23" fill="#F6F1E4"/><circle cx="61" cy="46.47" r="27" fill="#4B2422"/><path d="M13.5 13.97h7s22.06-25.11 53-8c23.5 13 18 43 18 43s1.25-43-37-43-37.5 46-37.5 46-3.18-5.55-4.25-9.75L10 31.47l-10-7.5h18.5z" fill="#4B2422"/><path d="M192.56 6.47c-29 10-22.5 53-22.5 53s8 21 52.5 11c27.15-6.1 26.5-41 26.5-41s-27.5-33-56.5-23" fill="#F6F1E4"/><circle cx="27" cy="27" r="27" transform="matrix(-1 0 0 1 227.06 19.47)" fill="#4B2422"/><path d="M247.56 13.97h-7s-22.06-25.11-53-8c-23.5 13-18 43-18 43s-1.25-43 37-43 37.5 46 37.5 46 3.18-5.55 4.25-9.75l2.75-10.75 10-7.5h-18.5z" fill="#4B2422"/></g><g id="eyebrows-sad-eb84b980"><g fill="#1f1714"><path d="M37.05 41.12c14.96-3.04 24.47-23.2 36.31-14.78s-18.13 31.2-35.4 33.54C23.17 61.9-1.31 54.16.64 51.42c1.94-2.73 21.93-7.36 36.42-10.3m163.34 0c-14.97-3.04-24.47-23.2-36.32-14.78-11.84 8.43 18.14 31.2 35.4 33.54 14.81 2.02 39.28-5.72 37.34-8.46-1.94-2.73-21.94-7.36-36.42-10.3"/><path d="M37.05 41.12c14.96-3.04 24.47-23.2 36.31-14.78s-18.13 31.2-35.4 33.54C23.17 61.9-1.31 54.16.64 51.42c1.94-2.73 21.93-7.36 36.42-10.3Zm163.35 0c-14.97-3.04-24.47-23.2-36.32-14.78-11.84 8.43 18.14 31.2 35.4 33.54 14.81 2.02 39.28-5.72 37.34-8.46-1.94-2.73-21.94-7.36-36.42-10.3Z" stroke="black"/></g></g><g id="hair-spiky-eb84b980"><path d="m56.34 399 11 4s-11.76-36.7 2.5-65.5c5.61-11.34 13.42-14.69 20-25.5 14.69-24.12-1.13-50.76 20-69.5 30.84-27.35 62.97 14.07 104 18 51.5 4.93 105.34-44.04 132.5 0 9.42 15.28 4.06 28.16 11.5 44.5 6.26 13.75 21 32.5 21 32.5l4 66 9.5-4.5c4.33-27.17 13-82.6 13-87s20.67-19.83 39.5-27h-23c12.33-22.5 37.6-69.4 40-77s-18.67 3.17-29.5 9.5c0 0 16.6-20.98 21-37 4.76-17.32 0-46 0-46l-31.5 17 10.5-59-27 11.5 7-65s-29.7 30.5-54.5 38.5c-25.46 8.2-68.5 0-68.5 0l13-30-98 37.5V47.5l-58 37.5V61s-27.5 17.01-42 31.5c-16.22 16.2-34.5 47.5-34.5 47.5l-35.5-24.5 5 77-38-12s2.08 24.06 9.5 37c5.1 8.9 17 20 17 20l-26.5 23h38l-21 35h21z" fill="#1f1714" stroke="black"/></g><clipPath id="clip-eb84b980"><rect width="768" height="768" rx="0" ry="0"/></clipPath></defs><g clip-path="url(#clip-eb84b980)"><use transform="translate(160.62 339.51)" href="#rearHair-longStraight-eb84b980"/><use transform="translate(124 556)" href="#body-body-eb84b980"/><use transform="translate(186.52 139.5)" href="#head-head-eb84b980"/><use transform="translate(107.32 587.5)" href="#clothes-dress-eb84b980"/><use transform="translate(326 487)" href="#mouth-agape-eb84b980"/><use transform="translate(253 367)" href="#eyes-wide-eb84b980"/><use transform="translate(265.82 287.36)" href="#eyebrows-sad-eb84b980"/><use transform="translate(158.16)" href="#hair-spiky-eb84b980"/></g></svg>