<svg xmlns="http://www.w3.org/2000/svg" viewBox="0 0 768 768" fill="none" shape-rendering="auto" aria-hidden="true"><metadata xmlns:rdf="http://www.w3.org/1999/02/22-rdf-syntax-ns#" xmlns:xsi="http://www.w3.org/2001/XMLSchema-instance" xmlns:dc="http://purl.org/dc/elements/1.1/" xmlns:dcterms="http://purl.org/dc/terms/"><rdf:RDF><rdf:Description><dc:title>ToonHead</dc:title><dc:creator>Johan Melin</dc:creator><dc:source xsi:type="dcterms:URI">https://www.figma.com/community/file/1589627891082866389</dc:source><dcterms:license xsi:type="dcterms:URI">https://creativecommons.org/licenses/by/4.0/</dcterms:license><dc:rights>Remix of “ToonHead” (https://www.figma.com/community/file/1589627891082866389) by “Johan Melin”, licensed under “CC BY 4.0” (https://creativecommons.org/licenses/by/4.0/)</dc:rights></rdf:Description></rdf:RDF></metadata><defs><g id="body-body-f884cdf7"><path d="M308.5.5v69.45l.4.07c120.32 22.8 211.37 128.92 211.6 256.48H.5C.74 198.94 91.8 92.8 212.1 70.02l.4-.07V.5z" fill="#dda37a" stroke="black"/><path d="M212 0h97v37s-30.58 9.4-49 9.5c-19.59.1-48-9.5-48-9.5z" fill="black" fill-opacity=".2"/></g><g id="head-head-f884cdf7"><path d="M4.98 313c-20-77.5 33.5-50 33.5-50C2.66 147.18 30.48.5 197.48.5s194.82 146.68 159 262.5c0 0 53.5-27.5 33.5 50-11.1 43-51 43-51 43-5.93 50.4-91.5 95.5-141.5 95.5S61.91 406.4 55.98 356c0 0-39.9 0-51-43Z" fill="#dda37a" stroke="black"/><path d="M15.7 270.5c19.81-10.14 38.7 54.5 30 69-16.5 8.5-55-56.21-30-69m363.96 0c-19.82-10.14-38.7 54.5-30 69 16.5 8.5 55-56.21 30-69M197.48 330c-7.81 0-18-7.5-16-9.5 2-3 8.19 3 16 3s14-6 16-3c1.81 2.17-8.19 9.5-16 9.5" fill="black" fill-opacity=".2"/></g><g id="clothes-turtleNeck-f884cdf7"><path d="M60.18 135.21c-43.73 58.54-52.5 169.5-52.5 169.5h553s-21.02-104.28-54-157.5c-43.1-69.48-139-102.47-157-106.97s.49-32.1-8.5-37.99c-5.88-3.85-12.5 0-12.5 0s-28.43 23.5-50.5 23.5c-22.06 0-49-23.5-49-23.5s-9.5-2.64-14.5 0c-9.5 5 5 35.5-9.5 38-19.8 3.41-103.5 39.43-145 95Z" fill="#f97316" stroke="black"/><path d="M277.18 53.71c-24.5 0-68.5-15.5-68.5-15.5s43.23 24.5 68.5 24.5 67-26.5 67-26.5-42.5 17.5-67 17.5" fill="black" fill-opacity=".2"/></g><g id="mouth-angry-f884cdf7"><mask id="mouthAngry-a" style="mask-type:alpha"><path d="M58 41.5c19.7 0 33.84 11.72 47.59 2.85C109.95 41.53 93.04 0 58 0S6.32 41.54 10.68 44.35C24.43 53.22 38.3 41.5 58 41.5" fill="#611519"/></mask><g mask="url(#mouthAngry-a)"><path d="M58.13 51.89c19.7 0 33.7 1.33 47.46-7.54C109.95 41.53 93.17 0 58.13 0S6.32 41.54 10.68 44.35c13.75 8.87 27.75 7.54 47.45 7.54" fill="#611519"/><path d="M58.13 53.66c.04 0 18.64 0 29.27-1.33 7-.87 12.86-5.32 12.86-5.32s-1.76-4.3-3.54-6.65c-1.49-1.95-4.43-4.43-4.44-4.44A180 180 0 0 0 58.13 33a180 180 0 0 0-34.15 2.92s-2.95 2.5-4.43 4.44C17.77 42.7 16 47 16 47c.02.01 5.87 4.45 12.86 5.32 10.65 1.33 29.27 1.33 29.27 1.33m0-55.65c.04 0 18.64 0 29.27 1.33 7 .88 12.86 5.32 12.86 5.32s-1.76 4.31-3.54 6.65c-1.49 1.95-4.43 4.43-4.44 4.44a180 180 0 0 1-34.15 2.92c-11.62.1-22.88-.85-34.15-2.92 0 0-2.95-2.49-4.43-4.44C17.77 8.97 16 4.66 16 4.65c.02 0 5.87-4.45 12.86-5.32C39.51-2 58.13-2 58.13-2" fill="#F6F1E4"/></g></g><g id="eyes-wide-f884cdf7"><path d="M68.5 6.47c29 10 22.5 53 22.5 53s-8 21-52.5 11c-27.15-6.1-26.5-41-26.5-41s27.5-33 56.5-23" fill="#F6F1E4"/><circle cx="61" cy="46.47" r="27" fill="#4B2422"/><path d="M13.5 13.97h7s22.06-25.11 53-8c23.5 13 18 43 18 43s1.25-43-37-43-37.5 46-37.5 46-3.18-5.55-4.25-9.75L10 31.47l-10-7.5h18.5z" fill="#4B2422"/><path d="M192.56 6.47c-29 10-22.5 53-22.5 53s8 21 52.5 11c27.15-6.1 26.5-41 26.5-41s-27.5-33-56.5-23" fill="#F6F1E4"/><circle cx="27" cy="27" r="27" transform="matrix(-1 0 0 1 227.06 19.47)" fill="#4B2422"/><path d="M247.56 13.97h-7s-22.06-25.11-53-8c-23.5 13-18 43-18 43s-1.25-43 37-43 37.5 46 37.5 46 3.18-5.55 4.25-9.75l2.75-10.75 10-7.5h-18.5z" fill="#4B2422"/></g><g id="eyebrows-raised-f884cdf7"><g fill="#33231f"><path d="M38.57 70.7c15.17-1.74 30.44 14.5 39.1 2.83S50.78 49.47 33.64 52.56c-14.71 2.66-35.6 17.6-32.9 19.6s23.14.21 37.83-1.46m160.76-20.21c-15.26-.4-29.07 17.1-38.7 6.23C150.97 45.84 185.3 30.4 202.65 32c14.89 1.36 36.99 14.41 34.48 16.64-2.51 2.22-23.03 2.24-37.81 1.85"/><path d="M38.57 70.7c15.17-1.74 30.44 14.5 39.1 2.83S50.78 49.47 33.64 52.56c-14.71 2.66-35.6 17.6-32.9 19.6s23.14.21 37.83-1.46Zm160.76-20.21c-15.26-.4-29.07 17.1-38.7 6.23C150.97 45.84 185.3 30.4 202.65 32c14.89 1.36 36.99 14.41 34.48 16.64-2.51 2.22-23.03 2.24-37.81 1.85Z" stroke="black"/></g></g><g id="hair-spiky-f884cdf7"><path d="m56.34 399 11 4s-11.76-36.7 2.5-65.5c5.61-11.34 13.42-14.69 20-25.5 14.69-24.12-1.13-50.76 20-69.5 30.84-27.35 62.97 14.07 104 18 51.5 4.93 105.34-44.04 132.5 0 9.42 15.28 4.06 28.16 11.5 44.5 6.26 13.75 21 32.5 21 32.5l4 66 9.5-4.5c4.33-27.17 13-82.6 13-87s20.67-19.83 39.5-27h-23c12.33-22.5 37.6-69.4 40-77s-18.67 3.17-29.5 9.5c0 0 16.6-20.98 21-37 4.76-17.32 0-46 0-46l-31.5 17 10.5-59-27 11.5 7-65s-29.7 30.5-54.5 38.5c-25.46 8.2-68.5 0-68.5 0l13-30-98 37.5V47.5l-58 37.5V61s-27.5 17.01-42 31.5c-16.22 16.2-34.5 47.5-34.5 47.5l-35.5-24.5 5 77-38-12s2.08 24.06 9.5 37c5.1 8.9 17 20 17 20l-26.5 23h38l-21 35h21z" fill="#33231f" stroke="black"/></g><clipPath id="clip-f884cdf7"><rect width="768" height="768" rx="0" ry="0"/></clipPath></defs><g clip-path="url(#clip-f884cdf7)"><use transform="translate(124 556)" href="#body-body-f884cdf7"/><use transform="translate(186.52 139.5)" href="#head-head-f884cdf7"/><use transform="translate(107.32 587.5)" href="#clothes-turtleNeck-f884cdf7"/><use transform="translate(326 487)" href="#mouth-angry-f884cdf7"/><use transform="translate(253 367)" href="#eyes-wide-f884cdf7"/><use transform="translate(265.82 287.36)" href="#eyebrows-raised-f884cdf7"/><use transform="translate(158.16)" href="#hair-spiky-f884cdf7"/></g></svg>