<svg xmlns="http://www.w3.org/2000/svg" viewBox="0 0 768 768" fill="none" shape-rendering="auto" aria-hidden="true"><metadata xmlns:rdf="http://www.w3.org/1999/02/22-rdf-syntax-ns#" xmlns:xsi="http://www.w3.org/2001/XMLSchema-instance" xmlns:dc="http://purl.org/dc/elements/1.1/" xmlns:dcterms="http://purl.org/dc/terms/"><rdf:RDF><rdf:Description><dc:title>ToonHead</dc:title><dc:creator>Johan Melin</dc:creator><dc:source xsi:type="dcterms:URI">https://www.figma.com/community/file/1589627891082866389</dc:source><dcterms:license xsi:type="dcterms:URI">https://creativecommons.org/licenses/by/4.0/</dcterms:license><dc:rights>Remix of “ToonHead” (https://www.figma.com/community/file/1589627891082866389) by “Johan Melin”, licensed under “CC BY 4.0” (https://creativecommons.org/licenses/by/4.0/)</dc:rights></rdf:Description></rdf:RDF></metadata><defs><g id="rearHair-shoulderHigh-ea827956"><path d="M223.88.5c69.54 0 138.96 29.45 167.55 88.2 6.94 14.27 7.73 25.3 5.89 34.88-1.85 9.61-6.34 17.74-10.05 26.3-3.7 8.54-6.57 17.43-5.03 28.4 1.53 10.93 7.47 23.87 21.25 40.53 17.88 21.61 23.35 40.5 19.69 56.66-3.66 16.18-16.5 29.8-35.6 40.77-38.2 21.97-101.13 33.23-164.1 33.5-62.95.29-125.81-10.41-163.88-32.24-19.03-10.9-31.8-24.55-35.36-40.92-3.57-16.36 2.02-35.6 20.03-57.77 13.53-16.64 19.34-29.6 20.83-40.52 1.5-10.95-1.35-19.84-4.99-28.37-3.61-8.56-8.01-16.7-9.8-26.3-1.74-9.58-.9-20.62 6.05-34.88C84.94 29.95 154.34.5 223.88.5Z" fill="#1f1714" stroke="black"/><path d="M100.48 89.08c41.82-117.45 202.94-117.45 244.76 0 5.08 14.28 5.66 25.33 4.31 34.92-1.35 9.63-4.64 17.77-7.35 26.31s-4.8 17.39-3.67 28.3 5.45 23.82 15.53 40.47c13.07 21.6 17.1 40.5 14.4 56.71-2.68 16.2-12.08 29.8-26.02 40.75-27.9 21.92-73.86 33.16-119.87 33.44s-91.92-10.4-119.72-32.17C88.96 306.93 79.62 293.31 77 276.9c-2.61-16.4 1.5-35.66 14.66-57.82 9.9-16.66 14.14-29.57 15.23-40.47s-1-19.77-3.65-28.3c-2.66-8.53-5.88-16.68-7.18-26.3-1.3-9.6-.67-20.65 4.41-34.93Z" fill="black" fill-opacity=".2" stroke="black"/></g><g id="body-body-ea827956"><path d="M308.5.5v69.45l.4.07c120.32 22.8 211.37 128.92 211.6 256.48H.5C.74 198.94 91.8 92.8 212.1 70.02l.4-.07V.5z" fill="#efc0a0" stroke="black"/><path d="M212 0h97v37s-30.58 9.4-49 9.5c-19.59.1-48-9.5-48-9.5z" fill="black" fill-opacity=".2"/></g><g id="head-head-ea827956"><path d="M4.98 313c-20-77.5 33.5-50 33.5-50C2.66 147.18 30.48.5 197.48.5s194.82 146.68 159 262.5c0 0 53.5-27.5 33.5 50-11.1 43-51 43-51 43-5.93 50.4-91.5 95.5-141.5 95.5S61.91 406.4 55.98 356c0 0-39.9 0-51-43Z" fill="#efc0a0" stroke="black"/><path d="M15.7 270.5c19.81-10.14 38.7 54.5 30 69-16.5 8.5-55-56.21-30-69m363.96 0c-19.82-10.14-38.7 54.5-30 69 16.5 8.5 55-56.21 30-69M197.48 330c-7.81 0-18-7.5-16-9.5 2-3 8.19 3 16 3s14-6 16-3c1.81 2.17-8.19 9.5-16 9.5" fill="black" fill-opacity=".2"/></g><g id="clothes-openJacket-ea827956"><path d="M347.68 291V60.5s-40.54 28.56-71 27-68.5-27-68.5-27V291z" fill="#151613"/><path d="M347.68 291V60.5s-40.54 28.56-71 27-68.5-27-68.5-27V291z" fill="black" fill-opacity=".2" stroke="black"/><g fill="#151613"><path d="M503.18 91.5C484.1 73.5 325.68 37 325.68 37s14.17 26.29 15 50.5c2.69 78.5-5 205-5 205h217s-19.5-172.7-49.5-201M.68 292.5h227.5s-8.95-126.5-8.5-205c.13-23.24 9.5-50.5 9.5-50.5s-102.1 16.64-129.5 33c-36 21.5-99 222.5-99 222.5"/><path d="M503.18 91.5C484.1 73.5 325.68 37 325.68 37s14.17 26.29 15 50.5c2.69 78.5-5 205-5 205h217s-19.5-172.7-49.5-201ZM.68 292.5h227.5s-8.95-126.5-8.5-205c.13-23.24 9.5-50.5 9.5-50.5s-102.1 16.64-129.5 33c-36 21.5-99 222.5-99 222.5Z" stroke="black"/></g></g><g id="mouth-agape-ea827956"><mask id="mouthAgape-a" style="mask-type:alpha"><ellipse cx="57.5" cy="26" rx="20.5" ry="26" fill="#611519"/></mask><g mask="url(#mouthAgape-a)"><ellipse cx="57.5" cy="26" rx="20.5" ry="26" fill="#611519"/><ellipse cx="57.5" cy="51.5" rx="25.5" ry="14.5" fill="#E0564B"/></g></g><g id="eyes-bow-ea827956"><path d="m21.5 40.9-4.25-11c27.75 0 40.74-15.53 64.25 0C98.14 40.9 96 51.67 96 51.67s-2.75-16.93-41-16.93c-22.71 0-28 19-47 10zm218.59 0 4.25-11c-27.75 0-40.74-15.53-64.25 0-16.64 11-14.5 21.76-14.5 21.76s2.75-16.93 41-16.93c22.71 0 28 19 47 10z" fill="#4B2422"/></g><g id="eyebrows-angry-ea827956"><path d="m99.68 73-5.5 19s5.68-4.87 7-8.5c1.68-4.65-1.5-10.5-1.5-10.5m37.49.34 5.5 19s-5.68-4.86-7-8.5c-1.68-4.64 1.5-10.5 1.5-10.5" fill="black" fill-opacity=".2"/><g fill="#1f1714"><path d="M48.09 80.59c15.23.92 27.46 19.57 38.01 9.58 10.56-10-22.3-28.37-39.72-28.3-14.95.07-38.1 11.15-35.8 13.58 2.3 2.44 22.75 4.24 37.5 5.14m140.69.35c-15.24.92-27.47 19.57-38.02 9.58s22.3-28.37 39.72-28.3c14.95.07 38.1 11.15 35.8 13.58-2.3 2.44-22.75 4.24-37.5 5.14"/><path d="M48.09 80.59c15.23.92 27.46 19.57 38.01 9.58 10.56-10-22.3-28.37-39.72-28.3-14.95.07-38.1 11.15-35.8 13.58 2.3 2.44 22.75 4.24 37.5 5.14Zm140.68.35c-15.24.92-27.47 19.57-38.02 9.58s22.3-28.37 39.72-28.3c14.95.07 38.1 11.15 35.8 13.58-2.3 2.44-22.75 4.24-37.5 5.14Z" stroke="black"/></g></g><g id="hair-sideComed-ea827956"><path d="m385.34 402.5 13-5.5s28.48-120.79 13-178c-8.35-30.85-74-47.5-74-47.5s0-81.41-152-47C79.4 148.48 20.36 231.63 38.84 329.5c5.57 29.49 13.47 40.2 19 69.5l8.5 3 24.5-105s70.6-1.43 112-15 100-54.5 100-54.5 39.82 28.78 56.5 54.5c26.2 40.39 26 120.5 26 120.5Z" fill="#1f1714" stroke="black"/></g><clipPath id="clip-ea827956"><rect width="768" height="768" rx="0" ry="0"/></clipPath></defs><g clip-path="url(#clip-ea827956)"><use transform="translate(160.62 339.51)" href="#rearHair-shoulderHigh-ea827956"/><use transform="translate(124 556)" href="#body-body-ea827956"/><use transform="translate(186.52 139.5)" href="#head-head-ea827956"/><use transform="translate(107.32 587.5)" href="#clothes-openJacket-ea827956"/><use transform="translate(326 487)" href="#mouth-agape-ea827956"/><use transform="translate(253 367)" href="#eyes-bow-ea827956"/><use transform="translate(265.82 287.36)" href="#eyebrows-angry-ea827956"/><use transform="translate(158.16)" href="#hair-sideComed-ea827956"/></g></svg>