<svg xmlns="http://www.w3.org/2000/svg" viewBox="0 0 768 768" fill="none" shape-rendering="auto" aria-hidden="true"><metadata xmlns:rdf="http://www.w3.org/1999/02/22-rdf-syntax-ns#" xmlns:xsi="http://www.w3.org/2001/XMLSchema-instance" xmlns:dc="http://purl.org/dc/elements/1.1/" xmlns:dcterms="http://purl.org/dc/terms/"><rdf:RDF><rdf:Description><dc:title>ToonHead</dc:title><dc:creator>Johan Melin</dc:creator><dc:source xsi:type="dcterms:URI">https://www.figma.com/community/file/1589627891082866389</dc:source><dcterms:license xsi:type="dcterms:URI">https://creativecommons.org/licenses/by/4.0/</dcterms:license><dc:rights>Remix of “ToonHead” (https://www.figma.com/community/file/1589627891082866389) by “Johan Melin”, licensed under “CC BY 4.0” (https://creativecommons.org/licenses/by/4.0/)</dc:rights></rdf:Description></rdf:RDF></metadata><defs><g id="rearHair-neckHigh-ed84bca6"><path d="M223.88.5c69.54 0 138.96 29.45 167.55 88.2 6.95 14.29 8.58 25.69 7.78 35.7-.8 10.05-4.04 18.72-6.9 27.6-2.84 8.85-5.28 17.9-4.38 28.56s5.13 22.9 15.54 38.21c2.53 3.73 3.19 7.1 2.31 10.14-.87 3.07-3.33 5.93-7.26 8.56-7.87 5.28-21.37 9.5-38.73 12.73-34.67 6.45-84.43 8.85-134.35 7.92-49.9-.94-99.93-5.22-135.14-12.14-17.6-3.46-31.46-7.56-39.73-12.22-4.14-2.33-6.8-4.75-7.89-7.22-1.06-2.4-.66-4.97 1.6-7.73 9.4-11.57 13.1-21.96 13.8-31.93.7-9.95-1.6-19.45-4.19-29.24-5.16-19.57-11.44-40.4 2.44-68.93C84.93 30.01 154.34.54 223.88.54Z" fill="#33231f" stroke="black"/><path d="M95.13 88.88c44.2-117.19 214.45-117.19 258.64 0 5.37 14.25 6.64 25.63 6.02 35.64s-3.13 18.67-5.33 27.52c-2.2 8.83-4.08 17.83-3.39 28.43.7 10.62 3.96 22.8 12 38.06 1.96 3.72 2.48 7.1 1.8 10.18-.69 3.09-2.6 5.94-5.62 8.55-6.05 5.24-16.45 9.44-29.84 12.65-26.77 6.42-65.19 8.82-103.74 7.9s-77.18-5.2-104.36-12.1c-13.56-3.45-24.22-7.54-30.58-12.16-3.19-2.3-5.25-4.71-6.09-7.19-.83-2.45-.5-5.04 1.23-7.8 7.26-11.53 10.12-21.87 10.66-31.78s-1.23-19.36-3.22-29.11c-3.99-19.5-8.85-40.32 1.88-68.79Z" fill="black" fill-opacity=".2" stroke="black"/></g><g id="body-body-ed84bca6"><path d="M308.5.5v69.45l.4.07c120.32 22.8 211.37 128.92 211.6 256.48H.5C.74 198.94 91.8 92.8 212.1 70.02l.4-.07V.5z" fill="#efc0a0" stroke="black"/><path d="M212 0h97v37s-30.58 9.4-49 9.5c-19.59.1-48-9.5-48-9.5z" fill="black" fill-opacity=".2"/></g><g id="head-head-ed84bca6"><path d="M4.98 313c-20-77.5 33.5-50 33.5-50C2.66 147.18 30.48.5 197.48.5s194.82 146.68 159 262.5c0 0 53.5-27.5 33.5 50-11.1 43-51 43-51 43-5.93 50.4-91.5 95.5-141.5 95.5S61.91 406.4 55.98 356c0 0-39.9 0-51-43Z" fill="#efc0a0" stroke="black"/><path d="M15.7 270.5c19.81-10.14 38.7 54.5 30 69-16.5 8.5-55-56.21-30-69m363.96 0c-19.82-10.14-38.7 54.5-30 69 16.5 8.5 55-56.21 30-69M197.48 330c-7.81 0-18-7.5-16-9.5 2-3 8.19 3 16 3s14-6 16-3c1.81 2.17-8.19 9.5-16 9.5" fill="black" fill-opacity=".2"/></g><g id="clothes-dress-ed84bca6"><path d="m130.68 186.5 292 3.5s-5.75-40.84-12-67c-6.25-26.17-18-61.7-18-61.7s-7.31-3.73-12-5.8-12-4.8-12-4.8-56.07 21.8-92 21.8-92-21.5-92-21.5-7.31 2.91-12 5-12 5.7-12 5.7-11.75 34.07-18 59.55-12 65.25-12 65.25Z" fill="#147f3c" stroke="black"/></g><g id="mouth-sad-ed84bca6"><path d="M117 28.1c-5.6-6.78-14.7-8.64-23-10.2-6.89-1.3-14.02-.8-21-.8-16.38 0-33.36 1.28-49 6.69-8.05 2.76-19.39 6.73-24 14.3 4.88-1.42 9.12-4.33 14-5.7 14.38-4.1 29.32-4.09 44-5.49 12.54-1.19 25.36-4.59 38-3.73 7.36.5 13.98 3 21 4.91" fill="#3F2626" fill-opacity=".5"/></g><g id="eyes-humble-ed84bca6"><path d="m21.5 33.75-4.25 11c27.75 0 40.74 15.54 64.25 0C98.14 33.75 96 23 96 23s-2.75 16.93-41 16.93c-22.71 0-28-19-47-10zm218.59 0 4.25 11c-27.75 0-40.74 15.54-64.25 0-16.64-11-14.5-21.75-14.5-21.75s2.75 16.93 41 16.93c22.71 0 28-19 47-10z" fill="#4B2422"/></g><g id="eyebrows-sad-ed84bca6"><g fill="#33231f"><path d="M37.05 41.12c14.96-3.04 24.47-23.2 36.31-14.78s-18.13 31.2-35.4 33.54C23.17 61.9-1.31 54.16.64 51.42c1.94-2.73 21.93-7.36 36.42-10.3m163.34 0c-14.97-3.04-24.47-23.2-36.32-14.78-11.84 8.43 18.14 31.2 35.4 33.54 14.81 2.02 39.28-5.72 37.34-8.46-1.94-2.73-21.94-7.36-36.42-10.3"/><path d="M37.05 41.12c14.96-3.04 24.47-23.2 36.31-14.78s-18.13 31.2-35.4 33.54C23.17 61.9-1.31 54.16.64 51.42c1.94-2.73 21.93-7.36 36.42-10.3Zm163.35 0c-14.97-3.04-24.47-23.2-36.32-14.78-11.84 8.43 18.14 31.2 35.4 33.54 14.81 2.02 39.28-5.72 37.34-8.46-1.94-2.73-21.94-7.36-36.42-10.3Z" stroke="black"/></g></g><g id="hair-spiky-ed84bca6"><path d="m56.34 399 11 4s-11.76-36.7 2.5-65.5c5.61-11.34 13.42-14.69 20-25.5 14.69-24.12-1.13-50.76 20-69.5 30.84-27.35 62.97 14.07 104 18 51.5 4.93 105.34-44.04 132.5 0 9.42 15.28 4.06 28.16 11.5 44.5 6.26 13.75 21 32.5 21 32.5l4 66 9.5-4.5c4.33-27.17 13-82.6 13-87s20.67-19.83 39.5-27h-23c12.33-22.5 37.6-69.4 40-77s-18.67 3.17-29.5 9.5c0 0 16.6-20.98 21-37 4.76-17.32 0-46 0-46l-31.5 17 10.5-59-27 11.5 7-65s-29.7 30.5-54.5 38.5c-25.46 8.2-68.5 0-68.5 0l13-30-98 37.5V47.5l-58 37.5V61s-27.5 17.01-42 31.5c-16.22 16.2-34.5 47.5-34.5 47.5l-35.5-24.5 5 77-38-12s2.08 24.06 9.5 37c5.1 8.9 17 20 17 20l-26.5 23h38l-21 35h21z" fill="#33231f" stroke="black"/></g><clipPath id="clip-ed84bca6"><rect width="768" height="768" rx="0" ry="0"/></clipPath></defs><g clip-path="url(#clip-ed84bca6)"><use transform="translate(160.62 339.51)" href="#rearHair-neckHigh-ed84bca6"/><use transform="translate(124 556)" href="#body-body-ed84bca6"/><use transform="translate(186.52 139.5)" href="#head-head-ed84bca6"/><use transform="translate(107.32 587.5)" href="#clothes-dress-ed84bca6"/><use transform="translate(326 487)" href="#mouth-sad-ed84bca6"/><use transform="translate(253 367)" href="#eyes-humble-ed84bca6"/><use transform="translate(265.82 287.36)" href="#eyebrows-sad-ed84bca6"/><use transform="translate(158.16)" href="#hair-spiky-ed84bca6"/></g></svg>