<svg xmlns="http://www.w3.org/2000/svg" viewBox="0 0 80 80" fill="none" shape-rendering="auto" aria-hidden="true"><metadata xmlns:rdf="http://www.w3.org/1999/02/22-rdf-syntax-ns#" xmlns:xsi="http://www.w3.org/2001/XMLSchema-instance" xmlns:dc="http://purl.org/dc/elements/1.1/" xmlns:dcterms="http://purl.org/dc/terms/"><rdf:RDF><rdf:Description><dc:title>Dylan! The Avatar Generator</dc:title><dc:creator>Natalia Spivak</dc:creator><dc:source xsi:type="dcterms:URI">https://www.figma.com/community/file/1356575240759683500</dc:source><dcterms:license xsi:type="dcterms:URI">https://creativecommons.org/licenses/by/4.0/</dcterms:license><dc:rights>Remix of 鈥淒ylan! The Avatar Generator鈥?(https://www.figma.com/community/file/1356575240759683500) by 鈥淣atalia Spivak鈥? licensed under 鈥淐C BY 4.0鈥?(https://creativecommons.org/licenses/by/4.0/)</dc:rights></rdf:Description></rdf:RDF></metadata><defs><g id="mood-superHappy-854b0517"><path d="M22.45 17.34q-9.46-.26-18.92.21S2.68 29.83 13.4 30.3c9.6.42 9.03-12.96 9.03-12.96" fill="white"/><path d="M22.45 16.34q-9.46-.26-18.92.21c-.57.03-.96.44-1 1-.3 4.37 1.29 9.41 5 11.96 2.88 1.97 7.2 2.5 10.35.87 2.7-1.39 4.18-4.28 4.9-7.1.5-1.9.76-3.97.68-5.93-.05-1.28-2.05-1.29-2 0 .14 3.56-.62 8.2-3.5 10.6-2.35 1.95-6.15 1.7-8.71.27-2.27-1.26-3.6-3.56-4.23-6.02-.4-1.5-.6-3.06-.5-4.64l-1 1q9.46-.45 18.93-.2c1.29.02 1.29-1.98 0-2z" fill="black"/></g><g id="hair-shaggy-854b0517"><path d="m60.52 36.54.57-.5c.1-.09-.14.1-.03.02l.24-.17q.52-.35 1.06-.62l.26-.12.05-.02.05-.02.58-.21q.6-.18 1.2-.28c.52-.08.85-.76.7-1.23-.18-.56-.67-.79-1.23-.7a9.3 9.3 0 0 0-4.87 2.43c-.38.36-.4 1.06 0 1.41s1 .38 1.4 0zm-51.8-1.16h.14-.04l.3.06.52.14.28.1q.06 0 .12.04c.02 0 .22.1.06.02-.14-.06 0 0 .03 0l.15.08.26.13q.24.13.47.3.12.06.24.16l.03.02.05.04q.46.38.82.83c.33.4 1.07.37 1.4 0 .4-.43.37-.98 0-1.4a7.3 7.3 0 0 0-4.83-2.53c-.52-.06-1.02.5-1 1 .03.6.44.94 1 1z" fill="#4a3028"/><path d="M71.54 47.51c-.64-2.77-3.3-4.28-3.3-4.28a13 13 0 0 1-.2 10.87c.2-3.41-2.98-4.7-2.98-4.7 0 11.3-10.44 13.86-10.44 13.86 4.05-5.97 2.13-11.08 2.13-11.08-2.13 2.77-5.54 2.34-5.54 2.34 4.9-3.84 4.7-11.08 4.7-11.08l-3.63 2.34c4.05-7.46.43-19.39.43-19.39l-1.5 4.69-7.45-6.82-.43 4.05-9.59-6.18 2.13 6.82-13.64-10.23s-5.33 11.3.85 23.65c0 0-4.05-.64-5.97-4.69 0 0 .85 11.3 8.1 15.98 0 0-1.92 2.34-6.6-2.13 0 0-.44 8.95 7.87 14.06 0 0-10 .64-14.06-13.21 0 0-3.84.64-2.34 7.03 0 0-5.97-2.13-4.26-10.44 0 0-1.57-.8-3.64 4.93 0 0-3.76-28.24 10.67-42.64C26.5-2.37 53.97 1.1 63.77 13.4c12.19 15.29 7.77 34.11 7.77 34.11" fill="#4a3028"/></g><clipPath id="clip-854b0517"><rect width="80" height="80" rx="0" ry="0"/></clipPath></defs><g clip-path="url(#clip-854b0517)"><path d="M19.07 30.47s1.57-20.23 21.59-20.23S62.3 30.55 62.3 30.55s9.43-.8 9.43 7.6c0 8.42-9.28 7.13-9.28 7.13S60.9 67.15 42.03 67.15c-21.11 0-23.4-20.8-23.4-20.8s-9 .72-9.93-6.25c-1.08-8.2 10.37-9.64 10.37-9.64" fill="#e8ad8b"/><path d="m64.3 39.49.46-.41.1-.09c.12-.1-.13.1-.02.02l.24-.17q.5-.35 1.06-.62l.26-.12.05-.02.05-.02.58-.21q.6-.18 1.2-.28c.52-.08.85-.76.7-1.23-.18-.56-.67-.8-1.23-.7a9.3 9.3 0 0 0-4.87 2.43c-.38.36-.4 1.06 0 1.4.4.36 1 .4 1.4 0zm-51.8-1.16.14.01c-.27-.02-.11-.01-.04 0l.3.05.52.14.28.09.12.05c.02 0 .22.09.06.02-.14-.1 0-.04.03-.03l.15.06.26.13.47.3.27.22q.47.38.83.83c.33.4 1.07.37 1.41 0 .4-.43.36-.98 0-1.4a7.3 7.3 0 0 0-4.84-2.53c-.52-.06-1.02.5-1 1 .03.59.44.94 1 1m18.3-1.9v4.54c0 .52.46 1.02 1 1s1-.44 1-1V36.4c0-.52-.46-1.02-1-1s-1 .44-1 1M49.2 36l-.15 4.81a1 1 0 0 0 1 1c.56-.02.98-.44 1-1l.15-4.8a1 1 0 0 0-1-1 1 1 0 0 0-1 1" fill="black"/><use transform="translate(27.82 26.75)" href="#mood-superHappy-854b0517"/><use transform="translate(3.78 2.95)" href="#hair-shaggy-854b0517"/></g></svg>