<svg xmlns="http://www.w3.org/2000/svg" viewBox="0 0 280 280" fill="none" shape-rendering="auto" aria-hidden="true"><metadata xmlns:rdf="http://www.w3.org/1999/02/22-rdf-syntax-ns#" xmlns:xsi="http://www.w3.org/2001/XMLSchema-instance" xmlns:dc="http://purl.org/dc/elements/1.1/" xmlns:dcterms="http://purl.org/dc/terms/"><rdf:RDF><rdf:Description><dc:title>Avataaars</dc:title><dc:creator>Pablo Stanley</dc:creator><dc:source xsi:type="dcterms:URI">https://avataaars.com/</dc:source><dcterms:license xsi:type="dcterms:URI">https://avataaars.com/</dcterms:license><dc:rights>Remix of “Avataaars” (https://avataaars.com/) by “Pablo Stanley”, licensed under “Free for personal and commercial use” (https://avataaars.com/)</dc:rights></rdf:Description></rdf:RDF></metadata><defs><g id="clothes-blazerAndShirt-55803248"><path d="M100.5 37.13c18.5 0 33.5-9.61 33.5-21.48q0-.52-.04-1.05A72 72 0 0 1 200 86.36v8.95H0v-8.95a72 72 0 0 1 67.05-71.83q-.05.55-.05 1.12c0 11.87 15 21.48 33.5 21.48" fill="#E6E6E6"/><path d="M100.5 44.07c21.89 0 39.63-12.05 39.63-26.92q0-.9-.08-1.79-3-.51-6.1-.76.06.52.05 1.05c0 11.87-15 21.48-33.5 21.48S67 27.52 67 15.65q0-.57.05-1.12-3.08.2-6.08.67-.1.97-.1 1.95c0 14.87 17.74 26.92 39.63 26.92" fill="black" fill-opacity=".16"/><path d="M68.78 14.43 69 13.3c-2.96.06-6 1-6 1l-.42.67A72 72 0 0 0 0 86.36v8.95h74s-10.7-51.56-5.24-80.8zM126 95.3s11-53 5-82c2.96.06 6 1 6 1l.42.67A72 72 0 0 1 200 86.36v8.95z" fill="#b1e2ff"/><path fill-rule="evenodd" clip-rule="evenodd" d="M69 13.3c-6 29 5 82 5 82H58l-14-36 6-9-6-6 19-30s3.04-.94 6-1m62 0c6 29-5 82-5 82h16l14-36-6-9 6-6-19-30s-3.04-.94-6-1" fill="black" fill-opacity=".15"/><path d="m151.42 71.07.87-2.24 6.27-4.7a4 4 0 0 1 4.85.05l6.6 5.13z" fill="#E6E6E6"/></g><g id="mouth-vomit-55803248"><path fill-rule="evenodd" clip-rule="evenodd" d="M26 24.4C27.14 13.9 30.24 5 46 5s18.92 8.96 20 19.5c.08.84-.83 1.5-1.96 1.5-6.69 0-9.37-1.5-18.05-1.5-8.7 0-13.25 1.5-17.9 1.5-1.16 0-2.2-.55-2.1-1.6" fill="black" fill-opacity=".7"/><path d="M59.86 9.1c-.8.57-1.8.9-2.86.9H36c-1.3 0-2.49-.5-3.38-1.31C35.56 6.39 39.8 5 46 5c6.54 0 10.9 1.54 13.86 4.1" fill="white"/><path d="M34 19a6 6 0 0 0-6 6v7a6 6 0 0 0 12 0v-2h.08a6 6 0 0 1 11.84 0H52a6 6 0 0 0 12 0v-5a6 6 0 0 0-6-6z" fill="#7BB24B"/><path d="M64 25a6 6 0 0 0-6-6H34a6 6 0 0 0-6 6v6a6 6 0 0 0 12 0v-2h.08a6 6 0 0 1 11.84 0H52a6 6 0 0 0 12 0z" fill="#88C553"/></g><g id="nose-default-55803248"><path fill-rule="evenodd" clip-rule="evenodd" d="M0 0c0 4.42 5.37 8 12 8s12-3.58 12-8" fill="black" fill-opacity=".16"/></g><g id="eyes-side-55803248"><path d="M13 8c-4.84 0-9 2.65-10.84 6.45-.54 1.1.39 1.85 1.28 1.12a15 15 0 0 1 9.8-3.22 6 6 0 1 0 10.7 2.8 2 2 0 0 0-.12-.74l-.15-.38a6 6 0 0 0-1.64-2.48C19.9 9.32 16.5 8 13 8m58 0c-4.84 0-9 2.65-10.84 6.45-.54 1.1.39 1.85 1.28 1.12a15 15 0 0 1 9.8-3.22 6 6 0 1 0 10.7 2.8 2 2 0 0 0-.12-.74l-.15-.38a6 6 0 0 0-1.64-2.48C77.9 9.32 74.5 8 71 8" fill="black" fill-opacity=".6"/></g><g id="eyebrows-sadConcerned-55803248"><path d="M30.17 5.6c-1.48 8.38-14.1 14.17-23.24 10.42a2.04 2.04 0 0 0-2.63 1c-.44.97.03 2.1 1.05 2.5 11.44 4.7 26.83-2.37 28.76-13.3a1.9 1.9 0 0 0-1.64-2.2 2 2 0 0 0-2.3 1.57m35.93 0c1.5 8.39 14.1 14.18 23.25 10.43 1.01-.41 2.2.03 2.62 1s-.03 2.1-1.04 2.5c-11.45 4.7-26.84-2.37-28.77-13.3a1.9 1.9 0 0 1 1.65-2.2 2 2 0 0 1 2.32 1.57" fill="black" fill-opacity=".6"/></g><g id="top-bob-55803248"><path d="M39 145c-.62-30.84 28.32-95.2 39-108 7.92-9.5 29.7-17.45 54-17s46.86 5.81 55 16c12.32 15.43 37.87 74.08 38 109 .1 24.8-9.54 49.66-23 51-7.6.76-17.26-.23-28.86-1.4-5.3-.55-11.02-1.13-17.14-1.6v-12.4a56 56 0 0 0 32-50.6v-28.44a130 130 0 0 1-26.9-19.88c3.35 6.24 7.19 11.9 11.51 16.2-30.54-8.59-51.7-26.16-64.35-39.94C102.4 69.02 91.97 85.24 76 97.57V130a56 56 0 0 0 32 50.61v13.14c-6.94.95-13.4 2.16-19.35 3.27-10.85 2.02-19.98 3.73-27.26 2.98-14.22-1.47-21.88-30.2-22.38-55" fill="#4a3028"/></g><clipPath id="clip-55803248"><rect width="280" height="280" rx="0" ry="0"/></clipPath></defs><g clip-path="url(#clip-55803248)"><path d="M140 36a56 56 0 0 0-56 56v6.17A12 12 0 0 0 74 110v14a12 12 0 0 0 10.3 11.88A56 56 0 0 0 116 180.6V199h-4a72 72 0 0 0-72 72v9h200v-9a72 72 0 0 0-72-72h-4v-18.38a56 56 0 0 0 31.7-44.73A12 12 0 0 0 206 124v-14a12 12 0 0 0-10-11.83V92a56 56 0 0 0-56-56" fill="#e8ad8b"/><path d="M116 180.61v8a56 56 0 0 0 24 5.39 56 56 0 0 0 24-5.39v-8a56 56 0 0 1-24 5.39 56 56 0 0 1-24-5.39" fill="black" fill-opacity=".1"/><use transform="translate(40 184.7)" href="#clothes-blazerAndShirt-55803248"/><use transform="translate(94 140)" href="#mouth-vomit-55803248"/><use transform="translate(128 130)" href="#nose-default-55803248"/><use transform="translate(98 98)" href="#eyes-side-55803248"/><use transform="translate(91.86 82)" href="#eyebrows-sadConcerned-55803248"/><use transform="translate(8)" href="#top-bob-55803248"/></g></svg>