<svg xmlns="http://www.w3.org/2000/svg" viewBox="0 0 360 360" fill="none" shape-rendering="auto" aria-hidden="true"><metadata xmlns:rdf="http://www.w3.org/1999/02/22-rdf-syntax-ns#" xmlns:xsi="http://www.w3.org/2001/XMLSchema-instance" xmlns:dc="http://purl.org/dc/elements/1.1/" xmlns:dcterms="http://purl.org/dc/terms/"><rdf:RDF><rdf:Description><dc:title>Avatar Illustration System</dc:title><dc:creator>Micah Lanier</dc:creator><dc:source xsi:type="dcterms:URI">https://www.figma.com/community/file/829741575478342595</dc:source><dcterms:license xsi:type="dcterms:URI">https://creativecommons.org/licenses/by/4.0/</dcterms:license><dc:rights>Remix of “Avatar Illustration System” (https://www.figma.com/community/file/829741575478342595) by “Micah Lanier”, licensed under “CC BY 4.0” (https://creativecommons.org/licenses/by/4.0/)</dc:rights></rdf:Description></rdf:RDF></metadata><defs><g id="head-standard-cc46e7b7"><path d="M140.05 297.55c-14.4-20-25.67-58.67-27-78l-68.5-29.5-28.5 107.5z" fill="#f7d4b2" stroke="black" stroke-width="4"/><path d="M116.42 241.74q-3.15.3-6.37.3c-30.78 0-56.05-21.56-58.76-49.09l61.76 26.6c.38 5.48 1.55 13.31 3.37 22.19" fill="black" style="mix-blend-mode:multiply"/><path d="M60.1 4.1a75.7 75.7 0 0 1 91.16 55.5l.05.23.02.06.05.2.05.2 16.4 68.42.08.34.08.34v.01l.1.4.14.64a75.72 75.72 0 0 1-147.25 35.28l-.2-.72L4.06 95.16 4 94.89A75.7 75.7 0 0 1 60.09 4.1Z" fill="#f7d4b2" stroke="black" stroke-width="4"/></g><g id="mouth-sad-cc46e7b7"><path d="M25.87 46.11c1.71-7.95 8.07-24.76 19.77-28.34 11.7-3.59 17.7 8.45 19.23 14.92" stroke="#000000" stroke-width="4"/></g><g id="eyebrows-eyelashesDown-cc46e7b7"><path d="M9.07 29.5c6.17 2.5 21.1 3 31.5-15M76.07 7c5.17 5.33 18.1 12.8 28.5 0M19.22 29.46l-6.15-5.43m85.23-11.6 1.78-7.99M27.67 25.81l-4.05-7.13m66.6-6.66.93-8.15M34.75 20.2l-2.2-7.9m49.52-1.27-.78-8.16" stroke="#1f1714" stroke-width="4" stroke-linecap="round"/></g><g id="hair-dougFunny-cc46e7b7"><path d="M165 68c14.67-.67 40.4-8.8 26-36m-52 34c14.67-.67 40.4-8.8 26-36m-62 47c14.67-.67 40.4-8.8 26-36" stroke="#1f1714" stroke-width="4"/></g><g id="eyes-smilingShadow-cc46e7b7"><path d="M68.47 32.36c1.86 6.36-5.04 1.48-11.4 3.33-6.36 1.86-9.78 9.76-11.64 3.4a12 12 0 0 1 23.04-6.73m63.79-9.19c1.64 6.42-4.69 1.52-11.11 3.15-6.43 1.64-10.51 9.19-12.15 2.77a12 12 0 0 1 23.26-5.92" fill="#d2eff3"/><path d="M56.73 29.8c5.11-.6 9.81 2.45 11.48 7.1.26.73-.48 1.37-1.23 1.17a20 20 0 0 0-7.32-.48c-4.4.53-8.2 2.37-10.65 4.89-.58.6-1.6.4-1.72-.4l-.03-.24a10.83 10.83 0 0 1 9.47-12.04m64.02-9.86c5.05-.6 9.7 2.41 11.36 7 .26.74-.48 1.38-1.23 1.18-2.2-.58-4.67-.77-7.23-.47-4.35.52-8.1 2.35-10.54 4.83-.58.6-1.6.4-1.72-.4l-.03-.22a10.73 10.73 0 0 1 9.4-11.92" fill="#2b1b17"/></g><g id="nose-pointed-cc46e7b7"><path d="M6.9 0c0 14 7 25 7 25s-3.5 6-13.5 4" stroke="black" stroke-width="4"/></g><g id="ears-attached-cc46e7b7"><path d="M29.5 5.18A24 24 0 0 0 22.08 4c-10.5 0-19 6.5-18 18.5 1.04 12.5 8.5 17 19 17A20 20 0 0 0 30 38.23" stroke="black" stroke-width="8"/><path d="M30.5 38.04a19 19 0 0 1-7.42 1.46c-10.5 0-17.96-4.5-19-17-1-12 7.5-18.5 18-18.5 3.14 0 6.19.6 8.92 1.73z" fill="#f7d4b2"/><path d="M26.5 12.5c-4-1.83-12.8-2.8-16 8" stroke="black" stroke-width="4"/><path d="M16 13c2.17 1.83 6.3 7.5 5.5 15.5" stroke="black" stroke-width="4"/></g><g id="clothes-crew-cc46e7b7"><path d="M136.98 16.94a86 86 0 0 1 23.8 3.35c6.87 1.84 13.83 4.31 21.75 6.13l.15.03.14.01c46.12 3.8 73.78 24.3 93.86 52.5H3.36c16.3-29.34 39.48-48.02 77.07-56.59 16.01-3.64 34.66-5.46 56.55-5.46Z" fill="#9287ff" stroke="black" stroke-width="4"/><path d="m68.91 24.58 9.16-19.6a1 1 0 0 1 1.25-.51c37.92 13.42 72.42 12.48 104.4 3.57a1 1 0 0 1 1.08.38l13.93 19.05a.98.98 0 0 1-.42 1.5c-33.6 13.2-96.66 10.95-128.9-3.07a1 1 0 0 1-.5-1.32Z" fill="#9287ff" stroke="black" stroke-width="4"/><path opacity=".75" d="m68.91 24.58 9.16-19.6a1 1 0 0 1 1.25-.51c37.92 13.42 72.42 12.48 104.4 3.57a1 1 0 0 1 1.08.38l13.93 19.05a.98.98 0 0 1-.42 1.5c-33.6 13.2-96.66 10.95-128.9-3.07a1 1 0 0 1-.5-1.32Z" fill="white" stroke="black" stroke-width="4"/></g><clipPath id="clip-cc46e7b7"><rect width="360" height="360" rx="0" ry="0"/></clipPath></defs><g clip-path="url(#clip-cc46e7b7)"><use transform="translate(93.95 44.95)" href="#head-standard-cc46e7b7"/><use transform="translate(157.13 182.89)" href="#mouth-sad-cc46e7b7"/><use transform="translate(127.93 99)" href="#eyebrows-eyelashesDown-cc46e7b7"/><use transform="translate(24 -1)" href="#hair-dougFunny-cc46e7b7"/><use transform="translate(100 111)" href="#eyes-smilingShadow-cc46e7b7"/><use transform="rotate(-8 1175.7 -1254.11)" href="#nose-pointed-cc46e7b7"/><use transform="translate(85 155)" href="#ears-attached-cc46e7b7"/><use transform="translate(37.02 284)" href="#clothes-crew-cc46e7b7"/></g></svg>