<svg xmlns="http://www.w3.org/2000/svg" viewBox="0 0 360 360" fill="none" shape-rendering="auto" aria-hidden="true"><metadata xmlns:rdf="http://www.w3.org/1999/02/22-rdf-syntax-ns#" xmlns:xsi="http://www.w3.org/2001/XMLSchema-instance" xmlns:dc="http://purl.org/dc/elements/1.1/" xmlns:dcterms="http://purl.org/dc/terms/"><rdf:RDF><rdf:Description><dc:title>Avatar Illustration System</dc:title><dc:creator>Micah Lanier</dc:creator><dc:source xsi:type="dcterms:URI">https://www.figma.com/community/file/829741575478342595</dc:source><dcterms:license xsi:type="dcterms:URI">https://creativecommons.org/licenses/by/4.0/</dcterms:license><dc:rights>Remix of “Avatar Illustration System” (https://www.figma.com/community/file/829741575478342595) by “Micah Lanier”, licensed under “CC BY 4.0” (https://creativecommons.org/licenses/by/4.0/)</dc:rights></rdf:Description></rdf:RDF></metadata><defs><g id="head-standard-cb44a78d"><path d="M140.05 297.55c-14.4-20-25.67-58.67-27-78l-68.5-29.5-28.5 107.5z" fill="#f7d4b2" stroke="black" stroke-width="4"/><path d="M116.42 241.74q-3.15.3-6.37.3c-30.78 0-56.05-21.56-58.76-49.09l61.76 26.6c.38 5.48 1.55 13.31 3.37 22.19" fill="black" style="mix-blend-mode:multiply"/><path d="M60.1 4.1a75.7 75.7 0 0 1 91.16 55.5l.05.23.02.06.05.2.05.2 16.4 68.42.08.34.08.34v.01l.1.4.14.64a75.72 75.72 0 0 1-147.25 35.28l-.2-.72L4.06 95.16 4 94.89A75.7 75.7 0 0 1 60.09 4.1Z" fill="#f7d4b2" stroke="black" stroke-width="4"/></g><g id="mouth-sad-cb44a78d"><path d="M25.87 46.11c1.71-7.95 8.07-24.76 19.77-28.34 11.7-3.59 17.7 8.45 19.23 14.92" stroke="#000000" stroke-width="4"/></g><g id="eyebrows-eyelashesDown-cb44a78d"><path d="M9.07 29.5c6.17 2.5 21.1 3 31.5-15M76.07 7c5.17 5.33 18.1 12.8 28.5 0M19.22 29.46l-6.15-5.43m85.23-11.6 1.78-7.99M27.67 25.81l-4.05-7.13m66.6-6.66.93-8.15M34.75 20.2l-2.2-7.9m49.52-1.27-.78-8.16" stroke="#1f1714" stroke-width="4" stroke-linecap="round"/></g><g id="hair-turban-cb44a78d"><path d="M247.73 112.8C247.73 46.7 211.27 2 166.86 2 109.96 2 52 23.34 52 124.25c0 24.97 10.66 43.58 25.56 57.29a43 43 0 0 1-3.5-4.92c-2.88-26.98 29.17-47.7 60.54-67.95 16.65-10.76 33.11-21.4 44.05-32.77 9.6 5.43 37.79 28.2 43.16 37.42 2.88 4.94 7.5 21.87 10.67 41.63 10.34-12.42 15.25-24.84 15.25-42.16Z" fill="#1f1714" stroke="black" stroke-width="4"/><path d="M179.26 75.25c13.18-11.95 32.89-39.21 31.62-56.92" stroke="black" stroke-width="4"/></g><g id="eyes-round-cb44a78d"><ellipse cx="58.12" cy="36.93" rx="9" ry="10" transform="rotate(-6.78 58.12 36.93)" fill="#2b1b17"/><ellipse cx="122.15" cy="26.92" rx="9" ry="10" transform="rotate(-6.28 122.15 26.92)" fill="#2b1b17"/></g><g id="nose-curve-cb44a78d"><path d="M6.9 4c-.34 3.83 0 12.2 4 15 5 3.5-.5 12-10.5 10" stroke="black" stroke-width="4"/></g><g id="earrings-stud-cb44a78d"><circle cx="27" cy="4" r="4" fill="#e0ddff"/><circle cx="28" cy="3" r="1" fill="white"/></g><g id="ears-detached-cb44a78d"><path d="m36 41.54-.53.57c-3.67 3.94-8.47 6.9-13.95 6.9-3.31 0-6.43-.5-8.86-1.88a9 9 0 0 1-4.6-7.08 8 8 0 0 1 .25-3.2c-3.55-3.12-5.7-7.81-6.22-14.18-.57-6.54 1.5-11.8 5.3-15.38 3.76-3.56 9.04-5.3 14.68-5.3 4.7 0 9.23 1.25 12.97 3.54l.95.59z" stroke="black" stroke-width="4"/><path d="M22.08 4c10.5 0 20 6.78 20 17q0 1-.1 1.97C41.41 32.94 32.62 47 21.5 47c-6.32 0-10.83-1.9-11.46-7.18a5.7 5.7 0 0 1 .68-3.6c-3.7-2.65-6.1-7.04-6.65-13.72-1-12 7.5-18.5 18-18.5" fill="#f7d4b2"/><path d="M26.5 12.5c-4-1.83-12.8-2.8-16 8" stroke="black" stroke-width="4"/><path d="M16 13c2.17 1.83 6.3 7.5 5.5 15.5" stroke="black" stroke-width="4"/><use transform="translate(0 39)" href="#earrings-stud-cb44a78d"/></g><g id="clothes-crew-cb44a78d"><path d="M136.98 16.94a86 86 0 0 1 23.8 3.35c6.87 1.84 13.83 4.31 21.75 6.13l.15.03.14.01c46.12 3.8 73.78 24.3 93.86 52.5H3.36c16.3-29.34 39.48-48.02 77.07-56.59 16.01-3.64 34.66-5.46 56.55-5.46Z" fill="#d2eff3" stroke="black" stroke-width="4"/><path d="m68.91 24.58 9.16-19.6a1 1 0 0 1 1.25-.51c37.92 13.42 72.42 12.48 104.4 3.57a1 1 0 0 1 1.08.38l13.93 19.05a.98.98 0 0 1-.42 1.5c-33.6 13.2-96.66 10.95-128.9-3.07a1 1 0 0 1-.5-1.32Z" fill="#d2eff3" stroke="black" stroke-width="4"/><path opacity=".75" d="m68.91 24.58 9.16-19.6a1 1 0 0 1 1.25-.51c37.92 13.42 72.42 12.48 104.4 3.57a1 1 0 0 1 1.08.38l13.93 19.05a.98.98 0 0 1-.42 1.5c-33.6 13.2-96.66 10.95-128.9-3.07a1 1 0 0 1-.5-1.32Z" fill="white" stroke="black" stroke-width="4"/></g><clipPath id="clip-cb44a78d"><rect width="360" height="360" rx="0" ry="0"/></clipPath></defs><g clip-path="url(#clip-cb44a78d)"><use transform="translate(93.95 44.95)" href="#head-standard-cb44a78d"/><use transform="translate(157.13 182.89)" href="#mouth-sad-cb44a78d"/><use transform="translate(127.93 99)" href="#eyebrows-eyelashesDown-cb44a78d"/><use transform="translate(24 -1)" href="#hair-turban-cb44a78d"/><use transform="translate(100 111)" href="#eyes-round-cb44a78d"/><use transform="rotate(-8 1175.7 -1254.11)" href="#nose-curve-cb44a78d"/><use transform="translate(85 155)" href="#ears-detached-cb44a78d"/><use transform="translate(37.02 284)" href="#clothes-crew-cb44a78d"/></g></svg>