<svg xmlns="http://www.w3.org/2000/svg" viewBox="0 0 440 440" fill="none" shape-rendering="auto" aria-hidden="true"><metadata xmlns:rdf="http://www.w3.org/1999/02/22-rdf-syntax-ns#" xmlns:xsi="http://www.w3.org/2001/XMLSchema-instance" xmlns:dc="http://purl.org/dc/elements/1.1/" xmlns:dcterms="http://purl.org/dc/terms/"><rdf:RDF><rdf:Description><dc:title>Face Generator</dc:title><dc:creator>The Visual Team</dc:creator><dc:source xsi:type="dcterms:URI">https://www.figma.com/community/file/986078800058673824</dc:source><dcterms:license xsi:type="dcterms:URI">https://creativecommons.org/licenses/by/4.0/</dcterms:license><dc:rights>Remix of “Face Generator” (https://www.figma.com/community/file/986078800058673824) by “The Visual Team”, licensed under “CC BY 4.0” (https://creativecommons.org/licenses/by/4.0/)</dc:rights></rdf:Description></rdf:RDF></metadata><defs><g id="hair-long09-8ea1b024"><path d="M302.8 72h-10.1c-101.3 0-183.3 94-183.3 210v222.2h376.8V282c0-116-82.1-210-183.4-210" fill="#0b0b0b"/></g><g id="head-variant05-8ea1b024"><path d="M14 87.3C14 71 27 58 43.3 58h185.4C245 58 258 71 258 87.3v241.4c0 16.2-13 29.3-29.3 29.3H43.3C27 358 14 345 14 328.7z" fill="#f7d4b2"/><path d="M258 328.7c0 16.2-13 29.3-29.3 29.3H43.3C27 358 14 345 14 328.7v-22C14 323 27 336 43.3 336h185.4c16.2 0 29.3-13 29.3-29.2z" fill="black" fill-opacity=".2"/></g><g id="mouth-variant0404-8ea1b024"><path d="M86.8 40.9c0 17.2-14 4.1-31.2 4.1s-31.2 13.1-31.2-4a31.2 31.2 0 1 1 62.4 0" fill="#F9F9F9"/></g><g id="ears-variant08-8ea1b024"><path d="M50.9 0A40.4 40.4 0 0 0 11 31.3V93c24.3-3.3 67.7-24.5 74-45 6.2-20.6-1-48-34.1-48" fill="#f7d4b2"/><path d="M49.3 11.7c-19 0-27 15-28.6 22.5v44.1c17.5-2.3 48.5-17.5 53-32.2S73 11.7 49.3 11.7" fill="black" fill-opacity=".2"/><path d="M32.4 46.7c0-11.3-7.8-15-11.7-15.4v33.3a18.5 18.5 0 0 0 11.7-18" fill="#f7d4b2"/></g><g id="eyes-variant25-8ea1b024"><path d="M66.8 63.8A24 24 0 1 1 26 41zm54.6 0A24 24 0 1 0 162 41z" fill="white"/><path d="M25.5 18.5c7.5 5 40 26 49 31.5M164 19c-7.5 5-40 26-49 31.5" stroke="black" stroke-width="3.7" stroke-linecap="round"/><path d="M26 19c7.5 5 40 26 49 31.5m89.5-31c-7.5 5-40 26-49 31.5" stroke="black" stroke-width="3.7" stroke-linecap="round"/></g><g id="nose-variant11-8ea1b024"><path d="M67 22.4a17 17 0 0 1-16.4 21.4H17A17 17 0 0 1 .6 22.4 17 17 0 0 0 16.9 35h33.7c7.8 0 14.4-5.3 16.3-12.5" fill="black" fill-opacity=".2"/></g><g id="frontHair-variant12-8ea1b024"><path d="M346 112c6.5 15.9 11.5 34.5 11.5 70-11 0-73.7 6-114.5-10s-46.9-28.5-60-48c-13 27-37 38-73.5 48s-83.3 7.5-99.5 10c0-23.1 2-46 10.9-67.4A176 176 0 0 1 183 6a175 175 0 0 1 124 51.5 166 166 0 0 1 39 54.5" fill="#0b0b0b"/></g><clipPath id="clip-8ea1b024"><rect width="440" height="440" rx="0" ry="0"/></clipPath></defs><g clip-path="url(#clip-8ea1b024)"><use transform="translate(9 2.7)scale(.71048)" href="#hair-long09-8ea1b024"/><use transform="translate(123.5 168)scale(.71856)" href="#head-variant05-8ea1b024"/><use transform="translate(179.7 330.6)scale(.71856)" href="#mouth-variant0404-8ea1b024"/><use transform="translate(294 246.9)scale(.71856)" href="#ears-variant08-8ea1b024"/><use transform="matrix(-.71856 0 0 .71856 146 246.9)" href="#ears-variant08-8ea1b024"/><use transform="translate(152 240)scale(.71856)" href="#eyes-variant25-8ea1b024"/><use transform="translate(195.6 288)scale(.71856)" href="#nose-variant11-8ea1b024"/><use transform="translate(123.6 155)scale(.52237)" href="#frontHair-variant12-8ea1b024"/></g></svg>