<svg xmlns="http://www.w3.org/2000/svg" viewBox="0 0 440 440" fill="none" shape-rendering="auto" aria-hidden="true"><metadata xmlns:rdf="http://www.w3.org/1999/02/22-rdf-syntax-ns#" xmlns:xsi="http://www.w3.org/2001/XMLSchema-instance" xmlns:dc="http://purl.org/dc/elements/1.1/" xmlns:dcterms="http://purl.org/dc/terms/"><rdf:RDF><rdf:Description><dc:title>Face Generator</dc:title><dc:creator>The Visual Team</dc:creator><dc:source xsi:type="dcterms:URI">https://www.figma.com/community/file/986078800058673824</dc:source><dcterms:license xsi:type="dcterms:URI">https://creativecommons.org/licenses/by/4.0/</dcterms:license><dc:rights>Remix of “Face Generator” (https://www.figma.com/community/file/986078800058673824) by “The Visual Team”, licensed under “CC BY 4.0” (https://creativecommons.org/licenses/by/4.0/)</dc:rights></rdf:Description></rdf:RDF></metadata><defs><g id="hair-short16-8da1ae91"><path d="M153.1 149.4c-30.2 28.5-103.6 121.5 0 245.1 27.7 33 248.2 11.2 271 0C514.4 350 457.5 131.7 284.4 162c-80.6 14-93-48.6-131.3-12.5" fill="#33231f"/></g><g id="head-variant01-8da1ae91"><path d="M255 265.5v.9c0 31-53.1 80.6-118.6 80.6S17.8 297.5 17.8 266.4V99H255z" fill="#dda37a"/><path d="M17.8 245.9v.9c0 31.1 53 80.6 118.6 80.6S255 278 255 246.8v-1 20.6c0 31-53.1 80.6-118.6 80.6S17.8 297.5 17.8 266.4z" fill="black" fill-opacity=".2"/><ellipse cx="135.5" cy="105" rx="119.5" ry="105" fill="#dda37a"/></g><g id="mouth-variant0501-8da1ae91"><path d="M110.4 38.6c0 17-24.4 4.1-54.6 4.1s-54.6 13-54.6-4 24.4-31 54.6-31 54.6 13.8 54.6 30.8" fill="#DE8383"/><path fill-rule="evenodd" clip-rule="evenodd" d="M4.3 45.8c7.5-12 27.7-20.5 51.5-20.5s44 8.5 51.5 20.5c-4.2 2.8-12.4 1.5-23-.2-8.3-1.3-18-2.9-28.5-2.9s-20.2 1.6-28.5 3c-10.6 1.6-18.8 2.9-23 .1" fill="#C06E6E"/><path fill-rule="evenodd" clip-rule="evenodd" d="M103.3 23.5h-95C17.7 14 35.4 7.8 55.8 7.8s38.2 6.3 47.5 15.7" fill="#F9F9F9"/></g><g id="ears-variant08-8da1ae91"><path d="M50.9 0A40.4 40.4 0 0 0 11 31.3V93c24.3-3.3 67.7-24.5 74-45 6.2-20.6-1-48-34.1-48" fill="#dda37a"/><path d="M49.3 11.7c-19 0-27 15-28.6 22.5v44.1c17.5-2.3 48.5-17.5 53-32.2S73 11.7 49.3 11.7" fill="black" fill-opacity=".2"/><path d="M32.4 46.7c0-11.3-7.8-15-11.7-15.4v33.3a18.5 18.5 0 0 0 11.7-18" fill="#dda37a"/></g><g id="eyes-variant11-8da1ae91"><path d="M133.9 17.7c3.7-3 9.3-8.7 20.4-8.7 9.4 0 17.3 6.4 18.7 8.7m-118 0c-3.6-3-9.3-8.7-20.3-8.7-9.4 0-17.3 6.4-18.7 8.7" stroke="black" stroke-width="7" stroke-linecap="round"/><path d="m22 40 35.5 15.5L22 76m147.5-36L134 55.5 169.5 76" stroke="black" stroke-width="4" stroke-linecap="round" stroke-linejoin="round"/></g><g id="details-variant03-8da1ae91"><rect width="56.3" height="43.4" rx="21.7" fill="#FFC6C6"/><rect x="180" width="56.3" height="43.4" rx="21.7" fill="#FFC6C6"/></g><g id="nose-variant05-8da1ae91"><path d="M34 16c-3.7.8-11 4-11 10.5 0 8.2 7.3 10.6 11 11.7" stroke="black" stroke-opacity=".5" stroke-width="4" stroke-linecap="round" stroke-linejoin="round"/></g><g id="frontHair-variant06-8da1ae91"><path d="M347 115c6.5 15.9 11.5 34.5 11.5 70-11 0-47.9-4.6-107.3-23-59.5-18.4-101.6-50-114.7-69.5.3 6 0 34-19.7 55A124 124 0 0 1 11 185c0-23.1 2-46 10.9-67.4A176 176 0 0 1 184 9a175 175 0 0 1 124 51.5 166 166 0 0 1 39 54.5" fill="#33231f"/></g><clipPath id="clip-8da1ae91"><rect width="440" height="440" rx="0" ry="0"/></clipPath></defs><g clip-path="url(#clip-8da1ae91)"><use transform="translate(9 2.7)scale(.71048)" href="#hair-short16-8da1ae91"/><use transform="translate(123.5 168)scale(.71856)" href="#head-variant01-8da1ae91"/><use transform="translate(179.7 330.6)scale(.71856)" href="#mouth-variant0501-8da1ae91"/><use transform="translate(294 246.9)scale(.71856)" href="#ears-variant08-8da1ae91"/><use transform="matrix(-.71856 0 0 .71856 146 246.9)" href="#ears-variant08-8da1ae91"/><use transform="translate(152 240)scale(.71856)" href="#eyes-variant11-8da1ae91"/><use transform="translate(135.2 300.2)scale(.71856)" href="#details-variant03-8da1ae91"/><use transform="translate(195.6 288)scale(.71856)" href="#nose-variant05-8da1ae91"/><use transform="translate(123.6 155)scale(.52237)" href="#frontHair-variant06-8da1ae91"/></g></svg>