<svg xmlns="http://www.w3.org/2000/svg" viewBox="0 0 440 440" fill="none" shape-rendering="auto" aria-hidden="true"><metadata xmlns:rdf="http://www.w3.org/1999/02/22-rdf-syntax-ns#" xmlns:xsi="http://www.w3.org/2001/XMLSchema-instance" xmlns:dc="http://purl.org/dc/elements/1.1/" xmlns:dcterms="http://purl.org/dc/terms/"><rdf:RDF><rdf:Description><dc:title>Face Generator</dc:title><dc:creator>The Visual Team</dc:creator><dc:source xsi:type="dcterms:URI">https://www.figma.com/community/file/986078800058673824</dc:source><dcterms:license xsi:type="dcterms:URI">https://creativecommons.org/licenses/by/4.0/</dcterms:license><dc:rights>Remix of “Face Generator” (https://www.figma.com/community/file/986078800058673824) by “The Visual Team”, licensed under “CC BY 4.0” (https://creativecommons.org/licenses/by/4.0/)</dc:rights></rdf:Description></rdf:RDF></metadata><defs><g id="hair-long12-8fa1b1b7"><path d="M91.5 229.2C105 110 206.8 50.4 299.5 54.2c142 5.6 195 107.4 201.3 175 4 41.7 35 84 37.4 125.7 5.6 31 5.2 65-6.9 97.8-28.2 77-179 133.3-250.3 106.4-44.6-16.7-62.1-59-43.1-97.3a216 216 0 0 1-46.9-17.6c-76-41.1-108.8-132.8-99.5-215" fill="#4a3028"/></g><g id="head-variant06-8fa1b1b7"><path d="M136 15c103.2 3 112.2 97.8 114 138.3.5 12.7 3.3 23.8 6 34.9 3.3 13 6.5 26 6 41a110 110 0 0 1-12 51.8c-12.8 27-64.4 56-114 56-52.2 0-102.3-30.5-115.6-65.1A142 142 0 0 1 9 215.5c-.6-16.8 3-29.7 6.5-42.3q2.9-9.6 4.8-20 1-6.2 2-15.3C27 95 36 15 136 15" fill="#e8ad8b"/><path d="M9.5 209c1.2 11.6 4.4 25 10.7 41.3 13.3 34.5 63.5 65 115.6 65 49.6 0 101.2-29 114-56 7-14.6 10.3-27.2 11.5-38.4 2 16.7.4 35.4-11.3 60-12.8 27-64.4 56-114 56.1-52.2 0-102.3-30.5-115.6-65.1C9.8 244.6 7.9 225 9.4 209" fill="black" fill-opacity=".2"/></g><g id="mouth-variant0301-8fa1b1b7"><path d="M87 22.2c0 17-14.2 30.9-31.7 30.9a31.3 31.3 0 0 1-31.6-30.9c0-17 4.2-15 31.6-15 25.4 0 31.7-2 31.7 15" fill="#DE8383"/><path fill-rule="evenodd" clip-rule="evenodd" d="M86.8 20.8H23.6c.3-14.2 4.2-14.2 23.8-14h15.2c18.5-.2 23.9-.2 24.2 14" fill="#F9F9F9"/><path fill-rule="evenodd" clip-rule="evenodd" d="M81.7 39a32 32 0 0 1-26.2 13.4 32 32 0 0 1-26.6-14A43 43 0 0 1 55 31c11.2 0 21 3.2 26.7 8" fill="#C06E6E"/></g><g id="ears-variant03-8fa1b1b7"><rect x="2" y="3" width="88.1" height="88.1" rx="44.1" fill="#e8ad8b"/><path d="m59 22.5-39 29L63.5 71" stroke="black" stroke-opacity=".2" stroke-width="5" stroke-linecap="round" stroke-linejoin="round"/></g><g id="eyes-variant32-8fa1b1b7"><path d="M17 26.1c4.3-3.3 11-10 23.8-10.1a30 30 0 0 1 21.8 10.1" stroke="black" stroke-width="8.3" stroke-linecap="round"/><path d="M17 63.1c4.3-3.3 11-10 23.8-10.1a30 30 0 0 1 21.8 10.1" stroke="black" stroke-width="4.1" stroke-linecap="round"/><path d="M126 26.1c4.3-3.3 11-10 23.8-10.1a30 30 0 0 1 21.8 10.1" stroke="black" stroke-width="8.3" stroke-linecap="round"/><path d="M126 63.1c4.3-3.3 11-10 23.8-10.1a30 30 0 0 1 21.8 10.1" stroke="black" stroke-width="4.1" stroke-linecap="round"/></g><g id="nose-variant04-8fa1b1b7"><path d="M32.8 10c-7.1 9.5-20.2 29-16 31 4.3 2 18.6 2.5 25.3 2.5" stroke="black" stroke-opacity=".5" stroke-width="4" stroke-linecap="round" stroke-linejoin="round"/></g><g id="frontHair-variant01-8fa1b1b7"><path d="M371 185.5a185.5 185.5 0 0 0-371 0z" fill="#4a3028"/></g><clipPath id="clip-8fa1b1b7"><rect width="440" height="440" rx="0" ry="0"/></clipPath></defs><g clip-path="url(#clip-8fa1b1b7)"><use transform="translate(9 2.7)scale(.71048)" href="#hair-long12-8fa1b1b7"/><use transform="translate(123.5 168)scale(.71856)" href="#head-variant06-8fa1b1b7"/><use transform="translate(179.7 330.6)scale(.71856)" href="#mouth-variant0301-8fa1b1b7"/><use transform="translate(294 246.9)scale(.71856)" href="#ears-variant03-8fa1b1b7"/><use transform="matrix(-.71856 0 0 .71856 146 246.9)" href="#ears-variant03-8fa1b1b7"/><use transform="translate(152 240)scale(.71856)" href="#eyes-variant32-8fa1b1b7"/><use transform="translate(195.6 288)scale(.71856)" href="#nose-variant04-8fa1b1b7"/><use transform="translate(123.6 155)scale(.52237)" href="#frontHair-variant01-8fa1b1b7"/></g></svg>