<svg xmlns="http://www.w3.org/2000/svg" viewBox="0 0 440 440" fill="none" shape-rendering="auto" aria-hidden="true"><metadata xmlns:rdf="http://www.w3.org/1999/02/22-rdf-syntax-ns#" xmlns:xsi="http://www.w3.org/2001/XMLSchema-instance" xmlns:dc="http://purl.org/dc/elements/1.1/" xmlns:dcterms="http://purl.org/dc/terms/"><rdf:RDF><rdf:Description><dc:title>Face Generator</dc:title><dc:creator>The Visual Team</dc:creator><dc:source xsi:type="dcterms:URI">https://www.figma.com/community/file/986078800058673824</dc:source><dcterms:license xsi:type="dcterms:URI">https://creativecommons.org/licenses/by/4.0/</dcterms:license><dc:rights>Remix of “Face Generator” (https://www.figma.com/community/file/986078800058673824) by “The Visual Team”, licensed under “CC BY 4.0” (https://creativecommons.org/licenses/by/4.0/)</dc:rights></rdf:Description></rdf:RDF></metadata><defs><g id="hair-long13-8aa1a9d8"><path d="M297.4 49c63-24.5 58.5 20.5 85 40.4 8.3-5 42-8 55 0 35.4 22 10 39.3 43.4 63 44.5 31.5 19.5 47 17 74s19.8 33 34 49c22.5 25.5 16.5 70 0 85.5s12.5 13 10 70c-2.5 56.9-42 41.4-61 55.4s-.5 33-43.5 48-32.5-8.5-92-9.5c-37-.6-39.4 35-91.9 21.5-27-7-28.9-44.7-63.4-21.5-48.5 32.5-104-8.1-100-45.1s-33.3-22.3-39.5-48.9c-13.7-58.4 25.3-68.2 18.5-87.4-9-25.5-19.5-37.5-8-77.5 12.8-44.6 48-36 35-68-13-31.9 8.5-51.5 30-65.5s40-9.5 35-27.5 11.8-56 50.4-56c37.5 0 42 17.2 86 0" fill="#1f1714"/></g><g id="head-variant03-8aa1a9d8"><path d="M254 244.7q.4 2.2.4 4.6c0 29.8-53.3 77.4-119 77.4S16.1 279 16.1 249.3V248H16V124h238z" fill="#efc0a0"/><path d="M16.2 229.6v.9c0 29.9 53.4 77.4 119.1 77.4 65.8 0 119.1-47.5 119.1-77.4v-.9 19.7c0 29.8-53.3 77.4-119 77.4S16.1 279 16.1 249.3v-19.7" fill="black" fill-opacity=".2"/><path d="M254 128.5c0 55.9-54.2 101.8-120 101.8S15 185 15 129C15 73.3 68.3 28 134 28s120 44.6 120 100.5" fill="#efc0a0"/></g><g id="mouth-variant0504-8aa1a9d8"><path d="M112.2 40.8c0 17-24.5 4.1-54.6 4.1S2.9 58 2.9 41s24.5-31 54.7-31c30.1 0 54.6 13.8 54.6 30.8" fill="#F9F9F9"/></g><g id="ears-variant06-8aa1a9d8"><rect x="7" y="5" width="80" height="80" rx="21.3" fill="#efc0a0"/><rect x="15.9" y="13.9" width="62.2" height="62.2" rx="12.4" fill="black" fill-opacity=".2"/><rect x="8.8" y="28.1" width="17.8" height="35.5" rx="5.3" fill="#efc0a0"/></g><g id="eyes-variant18-8aa1a9d8"><path d="M71.9 66.5S47.6 78.2 36.2 78.2 5 66.5 5 66.5s22-11.7 33.5-11.7 33.4 11.7 33.4 11.7m114.4 0S162 78.2 150.6 78.2s-31.2-11.7-31.2-11.7 22-11.7 33.5-11.7 33.4 11.7 33.4 11.7" fill="white"/><circle cx="40.1" cy="66.5" r="11.7" fill="black"/><circle cx="151.2" cy="66.5" r="11.7" fill="black"/><rect y="18" width="76.9" height="20.1" fill="#403E3E"/><rect x="112.4" y="18" width="76.9" height="20.1" fill="#403E3E"/></g><g id="nose-variant03-8aa1a9d8"><path d="M28.4 10c-7.1 9.5-12 31.5-7.8 33.5 4.2 2.1 10.4 0 17 0" stroke="black" stroke-opacity=".5" stroke-width="4" stroke-linecap="round" stroke-linejoin="round"/></g><g id="frontHair-variant03-8aa1a9d8"><path d="M104 67.2c2.7-21 39-24.4 57.5-22.6s21.7 3 44 10.7c22.4 7.8 70.2 33 59.3 59.4-8.7 21.2-32.1 12.4-42.8 5.3 2.5 11 5 34.9-4.8 41.8-9.6 6.9-21.8-6-26.8-13.4-2.6 6-12.9 18.5-32.3 19.8s-15.4-24.8-11-38c-8.5-.1-26.8-3.5-32-16.7-5.4-13.2 11.3-21.2 20.3-23.5-10.7.7-33.4-6.7-31.3-22.8" fill="#1f1714"/><path d="M347 113c6.5 15.9 11.5 34.5 11.5 70-11 0-38.5 11-92.5-18-54.8-29.5-68.9-59.5-82-79q-19.4 40.4-72.5 73.5C76 181.7 27.2 180.5 11 183c0-23.1 2-46 10.9-67.4A176 176 0 0 1 184 7a175 175 0 0 1 124 51.5 166 166 0 0 1 39 54.5" fill="#1f1714"/></g><clipPath id="clip-8aa1a9d8"><rect width="440" height="440" rx="0" ry="0"/></clipPath></defs><g clip-path="url(#clip-8aa1a9d8)"><use transform="translate(9 2.7)scale(.71048)" href="#hair-long13-8aa1a9d8"/><use transform="translate(123.5 168)scale(.71856)" href="#head-variant03-8aa1a9d8"/><use transform="translate(179.7 330.6)scale(.71856)" href="#mouth-variant0504-8aa1a9d8"/><use transform="translate(294 246.9)scale(.71856)" href="#ears-variant06-8aa1a9d8"/><use transform="matrix(-.71856 0 0 .71856 146 246.9)" href="#ears-variant06-8aa1a9d8"/><use transform="translate(152 240)scale(.71856)" href="#eyes-variant18-8aa1a9d8"/><use transform="translate(195.6 288)scale(.71856)" href="#nose-variant03-8aa1a9d8"/><use transform="translate(123.6 155)scale(.52237)" href="#frontHair-variant03-8aa1a9d8"/></g></svg>