<svg xmlns="http://www.w3.org/2000/svg" viewBox="0 0 440 440" fill="none" shape-rendering="auto" aria-hidden="true"><metadata xmlns:rdf="http://www.w3.org/1999/02/22-rdf-syntax-ns#" xmlns:xsi="http://www.w3.org/2001/XMLSchema-instance" xmlns:dc="http://purl.org/dc/elements/1.1/" xmlns:dcterms="http://purl.org/dc/terms/"><rdf:RDF><rdf:Description><dc:title>Face Generator</dc:title><dc:creator>The Visual Team</dc:creator><dc:source xsi:type="dcterms:URI">https://www.figma.com/community/file/986078800058673824</dc:source><dcterms:license xsi:type="dcterms:URI">https://creativecommons.org/licenses/by/4.0/</dcterms:license><dc:rights>Remix of “Face Generator” (https://www.figma.com/community/file/986078800058673824) by “The Visual Team”, licensed under “CC BY 4.0” (https://creativecommons.org/licenses/by/4.0/)</dc:rights></rdf:Description></rdf:RDF></metadata><defs><g id="hair-short12-91a1b4dd"><path d="M298.6 107c8.5 0 38.5 39.2 55 53.4l34.7-42.5c39.7 69.8 107.1 223 59.5 277a138 138 0 0 1-38.3 29 155 155 0 0 1-207.7 15.5 90 90 0 0 1-47-44.5c-12.6-12.3-34.2-50.1-19-102.5 19-65.5 67.5-164 75.5-174.5 6.4-8.4 28.7 24.4 39.3 42.2l.7-.2c18-20.3 38.7-52.9 47.3-52.9" fill="#0b0b0b"/></g><g id="head-variant02-91a1b4dd"><path d="M238.1 64.7C203 14.7 116.6 1.4 65.3 34 14 67 2.5 121.2 10 180.8c3.1 24.1 7 43 9 63.5 6.6 63.2 93 94.7 118.6 94.7 40.4 0 108.3-44.3 116.8-94.7 7.7-46 7-42.4 7.5-63.5.6-21 11.3-66.1-23.9-116.1" fill="#e8ad8b"/><path d="M254.3 244.6C246 295 178 339.5 137.6 339.5c-24 0-101.7-27.9-116.4-83.8 22.6 47.6 92.6 71.3 115.6 71.3 39 0 102.9-38.9 118-85.2z" fill="black" fill-opacity=".2"/></g><g id="mouth-variant0303-91a1b4dd"><path d="M88.7 26.3c0 17-15 30.8-33.3 30.8C37 57 22 43.3 22 26.3s4.4-15 33.3-15c34.2 0 33.3-2 33.3 15" fill="#DE8383"/><path fill-rule="evenodd" clip-rule="evenodd" d="M83.1 12c-5 4.9-15.5 9.2-27.5 9.2-11.6 0-21.7-4-27-8.7 3-1.3 8.9-1.2 20.6-1.2h15c9.4 0 15.4 0 19 .7" fill="#F9F9F9"/></g><g id="ears-variant01-91a1b4dd"><rect y="6" width="88" height="88.1" rx="44" fill="#e8ad8b"/><rect x="9.8" y="15.8" width="68.4" height="68.5" rx="34.2" fill="black" fill-opacity=".2"/><rect x="3.9" y="33.4" width="37.2" height="37.2" rx="18.6" fill="#e8ad8b"/></g><g id="eyes-variant27-91a1b4dd"><path d="M43.4 45.9a7 7 0 0 1 13.9 0v13.8a7 7 0 0 1-13.9 0zm98 0a7 7 0 1 1 13.9 0v13.8a7 7 0 0 1-13.9 0z" fill="black"/><path d="M34.2 32c-.8 3 .4 10.2 11.5 13.9M132.2 32c-.8 3 .4 10.2 11.5 13.9" stroke="black" stroke-width="4.6" stroke-linecap="round" stroke-linejoin="round"/></g><g id="nose-variant12-91a1b4dd"><path d="M50.2 22.4a16.9 16.9 0 1 1-32.6 0 16.9 16.9 0 0 0 32.6 0" fill="black" fill-opacity=".2"/></g><g id="frontHair-variant03-91a1b4dd"><path d="M104 67.2c2.7-21 39-24.4 57.5-22.6s21.7 3 44 10.7c22.4 7.8 70.2 33 59.3 59.4-8.7 21.2-32.1 12.4-42.8 5.3 2.5 11 5 34.9-4.8 41.8-9.6 6.9-21.8-6-26.8-13.4-2.6 6-12.9 18.5-32.3 19.8s-15.4-24.8-11-38c-8.5-.1-26.8-3.5-32-16.7-5.4-13.2 11.3-21.2 20.3-23.5-10.7.7-33.4-6.7-31.3-22.8" fill="#0b0b0b"/><path d="M347 113c6.5 15.9 11.5 34.5 11.5 70-11 0-38.5 11-92.5-18-54.8-29.5-68.9-59.5-82-79q-19.4 40.4-72.5 73.5C76 181.7 27.2 180.5 11 183c0-23.1 2-46 10.9-67.4A176 176 0 0 1 184 7a175 175 0 0 1 124 51.5 166 166 0 0 1 39 54.5" fill="#0b0b0b"/></g><clipPath id="clip-91a1b4dd"><rect width="440" height="440" rx="0" ry="0"/></clipPath></defs><g clip-path="url(#clip-91a1b4dd)"><use transform="translate(9 2.7)scale(.71048)" href="#hair-short12-91a1b4dd"/><use transform="translate(123.5 168)scale(.71856)" href="#head-variant02-91a1b4dd"/><use transform="translate(179.7 330.6)scale(.71856)" href="#mouth-variant0303-91a1b4dd"/><use transform="translate(294 246.9)scale(.71856)" href="#ears-variant01-91a1b4dd"/><use transform="matrix(-.71856 0 0 .71856 146 246.9)" href="#ears-variant01-91a1b4dd"/><use transform="translate(152 240)scale(.71856)" href="#eyes-variant27-91a1b4dd"/><use transform="translate(195.6 288)scale(.71856)" href="#nose-variant12-91a1b4dd"/><use transform="translate(123.6 155)scale(.52237)" href="#frontHair-variant03-91a1b4dd"/></g></svg>