<svg xmlns="http://www.w3.org/2000/svg" viewBox="0 0 440 440" fill="none" shape-rendering="auto" aria-hidden="true"><metadata xmlns:rdf="http://www.w3.org/1999/02/22-rdf-syntax-ns#" xmlns:xsi="http://www.w3.org/2001/XMLSchema-instance" xmlns:dc="http://purl.org/dc/elements/1.1/" xmlns:dcterms="http://purl.org/dc/terms/"><rdf:RDF><rdf:Description><dc:title>Face Generator</dc:title><dc:creator>The Visual Team</dc:creator><dc:source xsi:type="dcterms:URI">https://www.figma.com/community/file/986078800058673824</dc:source><dcterms:license xsi:type="dcterms:URI">https://creativecommons.org/licenses/by/4.0/</dcterms:license><dc:rights>Remix of “Face Generator” (https://www.figma.com/community/file/986078800058673824) by “The Visual Team”, licensed under “CC BY 4.0” (https://creativecommons.org/licenses/by/4.0/)</dc:rights></rdf:Description></rdf:RDF></metadata><defs><g id="hair-short17-f6a49273"><path d="M384.6 147h-174a89 89 0 0 0-89 89v147a89 89 0 0 0 89 89h174a89 89 0 0 0 89-89V236a89 89 0 0 0-89-89" fill="#33231f"/></g><g id="head-variant03-f6a49273"><path d="M254 244.7q.4 2.2.4 4.6c0 29.8-53.3 77.4-119 77.4S16.1 279 16.1 249.3V248H16V124h238z" fill="#f7d4b2"/><path d="M16.2 229.6v.9c0 29.9 53.4 77.4 119.1 77.4 65.8 0 119.1-47.5 119.1-77.4v-.9 19.7c0 29.8-53.3 77.4-119 77.4S16.1 279 16.1 249.3v-19.7" fill="black" fill-opacity=".2"/><path d="M254 128.5c0 55.9-54.2 101.8-120 101.8S15 185 15 129C15 73.3 68.3 28 134 28s120 44.6 120 100.5" fill="#f7d4b2"/></g><g id="mouth-variant0501-f6a49273"><path d="M110.4 38.6c0 17-24.4 4.1-54.6 4.1s-54.6 13-54.6-4 24.4-31 54.6-31 54.6 13.8 54.6 30.8" fill="#DE8383"/><path fill-rule="evenodd" clip-rule="evenodd" d="M4.3 45.8c7.5-12 27.7-20.5 51.5-20.5s44 8.5 51.5 20.5c-4.2 2.8-12.4 1.5-23-.2-8.3-1.3-18-2.9-28.5-2.9s-20.2 1.6-28.5 3c-10.6 1.6-18.8 2.9-23 .1" fill="#C06E6E"/><path fill-rule="evenodd" clip-rule="evenodd" d="M103.3 23.5h-95C17.7 14 35.4 7.8 55.8 7.8s38.2 6.3 47.5 15.7" fill="#F9F9F9"/></g><g id="ears-variant05-f6a49273"><path d="M4 27.3C4 15.5 13.5 6 25.3 6h37.2C74.3 6 84 15.5 84 27.3v37.3C84 76.4 74.4 86 62.6 86H25.3A21.3 21.3 0 0 1 4 64.6z" fill="#f7d4b2"/><path d="M12.9 46A31 31 0 1 1 75 46a31 31 0 1 1-62.1 0" fill="black" fill-opacity=".2"/></g><g id="eyes-variant01-f6a49273"><path d="M66.8 64.3A24 24 0 1 1 26 41.5zm54.6 0A24 24 0 1 0 162 41.5z" fill="white"/><path d="M24.5 18.5c7.5 5 40 26 49 31.5M163 19c-7.5 5-40 26-49 31.5" stroke="black" stroke-width="3.7" stroke-linecap="round"/><path d="M56.7 58.7a12.9 12.9 0 1 1-20.6-11.5zm74.8 0A12.9 12.9 0 1 0 152 47.2z" fill="black"/></g><g id="nose-variant09-f6a49273"><path d="M56.8 34.2A11.3 11.3 0 0 1 45 49a11.3 11.3 0 0 1-21.8 0h-1a11.3 11.3 0 0 1-10.7-15 11 11 0 0 0 11.7 7.7 11.3 11.3 0 0 0 21.8 0h1c5 0 9.2-3.1 10.7-7.6" fill="black" fill-opacity=".2"/></g><g id="frontHair-variant02-f6a49273"><path d="M346 113c6.5 15.9 11.5 34.5 11.5 70-11 0-38.5 11-92.5-18-54.8-29.5-68.9-59.5-82-79q-19.4 40.4-72.5 73.5C75 181.7 26.2 180.5 10 183c0-23.1 2-46 10.9-67.4A176 176 0 0 1 183 7a175 175 0 0 1 124 51.5 166 166 0 0 1 39 54.5" fill="#33231f"/><path d="M274 59c-11.6-28.6-41.2-46.3-87-39.6-30.2 3.7-48.3 24.3-67.4 39.6s-44.3 49.6-24.2 83.5c20.1 33.8 163.5 72.5 212.8 6.7 26.6-35.6-22.6-61.6-34.2-90.2" fill="#33231f"/></g><clipPath id="clip-f6a49273"><rect width="440" height="440" rx="0" ry="0"/></clipPath></defs><g clip-path="url(#clip-f6a49273)"><use transform="translate(9 2.7)scale(.71048)" href="#hair-short17-f6a49273"/><use transform="translate(123.5 168)scale(.71856)" href="#head-variant03-f6a49273"/><use transform="translate(179.7 330.6)scale(.71856)" href="#mouth-variant0501-f6a49273"/><use transform="translate(294 246.9)scale(.71856)" href="#ears-variant05-f6a49273"/><use transform="matrix(-.71856 0 0 .71856 146 246.9)" href="#ears-variant05-f6a49273"/><use transform="translate(152 240)scale(.71856)" href="#eyes-variant01-f6a49273"/><use transform="translate(195.6 288)scale(.71856)" href="#nose-variant09-f6a49273"/><use transform="translate(123.6 155)scale(.52237)" href="#frontHair-variant02-f6a49273"/></g></svg>