<svg xmlns="http://www.w3.org/2000/svg" viewBox="0 0 440 440" fill="none" shape-rendering="auto" aria-hidden="true"><metadata xmlns:rdf="http://www.w3.org/1999/02/22-rdf-syntax-ns#" xmlns:xsi="http://www.w3.org/2001/XMLSchema-instance" xmlns:dc="http://purl.org/dc/elements/1.1/" xmlns:dcterms="http://purl.org/dc/terms/"><rdf:RDF><rdf:Description><dc:title>Face Generator</dc:title><dc:creator>The Visual Team</dc:creator><dc:source xsi:type="dcterms:URI">https://www.figma.com/community/file/986078800058673824</dc:source><dcterms:license xsi:type="dcterms:URI">https://creativecommons.org/licenses/by/4.0/</dcterms:license><dc:rights>Remix of “Face Generator” (https://www.figma.com/community/file/986078800058673824) by “The Visual Team”, licensed under “CC BY 4.0” (https://creativecommons.org/licenses/by/4.0/)</dc:rights></rdf:Description></rdf:RDF></metadata><defs><g id="hair-long03-88a1a6b2"><path fill-rule="evenodd" clip-rule="evenodd" d="M93.1 223C106.7 106.6 208.5 48.5 301.3 52c142.2 5.7 195.1 105 201.5 171 2.5 25.7 15.8 51.6 25.8 77.5 12.8 11 30.8 30 32 40.8 1.5 11.4-10 32-14.4 43 7.7-8.2 20.3-19.4 28.3 2.9 10.2 28.3-11 26.1 9.1 37 6 3.2 18.2 7.6 15 17.3a62 62 0 0 1-25.7 22.5c-25.5 13.4-44.4 17.3-48.7-6.2-1.2-6.4 6.5-13-2.9-11.2-8 1.4-15.5-.4-21.5-4-3 11.4-11 10.7 2.3 21.5 5.4 4.4 16.6 11 11.5 20a61 61 0 0 1-29.2 17c-15.5 4.7-28.4 6.8-36.7 3.5-7.1 6-13.7 9.3-24.3 12.5-15.8 4.8-29 6.8-37.2 3.2l.3.6c3.7 6.4 12.1 17.3 4.8 23.5a55 55 0 0 1-32.4 3.4c-23.4-3.5-39.7-9.6-40.6-24.2l-4.9 1.5c-16.3 5-29.7 7-38 2.9-2 12.8-17.4 19.5-39 24.4a55 55 0 0 1-32.5-1c-7.7-5.6.1-17.2 3.5-23.8 10-19.5-1.7-9.4-8.7-27.2A137 137 0 0 1 173 506c1.8 7.4 3.2 16.1-3.5 18.3-12-.4-19.5-2.7-31.5-10-25.4-15.4-40-30.4-27-48.5 3.6-4.9 12.8-1.7 5.7-9.3a42 42 0 0 1-4-5A34 34 0 0 1 85 462.7c-9.6-1-1.5 4.9-2.4 11.3-3.2 23.7-22.4 21.4-48.7 10.2A59 59 0 0 1 7 463.9c-3.7-9.4 8.3-14.7 14.2-18.4C41.1 433 20 437 28.8 408c7-22.7 20.2-12.6 28.3-5.3-5-10.4-17.4-29.9-16.6-41.4.6-7.2 8.4-18.6 17.2-29C67 300.9 88.2 265 93.1 223m174.3 283q-.9 1-.5 1.8zM435 474q1.4 1.9 5 5c1.6-3 2.7-5-3.2-5z" fill="#1f1714"/></g><g id="head-variant07-88a1a6b2"><path d="M270 189v-1.6C270 115.8 209.6 31 135 31S0 115.8 0 187.4v3.2c0 71.5 60.4 129.5 135 129.5s135-58 135-129.5z" fill="#f7d4b2"/><path d="M269.6 180.8q.4 5 .4 9.8c0 71.5-60.4 129.5-135 129.5S0 262 0 190.6q0-4.8.4-9.8c5.1 67 63.4 119.8 134.6 119.8s129.5-52.8 134.6-119.8" fill="black" fill-opacity=".2"/></g><g id="mouth-variant0707-88a1a6b2"><path fill-rule="evenodd" clip-rule="evenodd" d="M44.3 36.8a2.6 2.6 0 0 1 3.5-.7C52 38.8 66.4 41.7 85.1 22a2.6 2.6 0 1 1 3.7 3.5C69 46.3 51.8 45 45 40.4a2.6 2.6 0 0 1-.7-3.6" fill="black"/></g><g id="ears-variant08-88a1a6b2"><path d="M50.9 0A40.4 40.4 0 0 0 11 31.3V93c24.3-3.3 67.7-24.5 74-45 6.2-20.6-1-48-34.1-48" fill="#f7d4b2"/><path d="M49.3 11.7c-19 0-27 15-28.6 22.5v44.1c17.5-2.3 48.5-17.5 53-32.2S73 11.7 49.3 11.7" fill="black" fill-opacity=".2"/><path d="M32.4 46.7c0-11.3-7.8-15-11.7-15.4v33.3a18.5 18.5 0 0 0 11.7-18" fill="#f7d4b2"/></g><g id="eyes-variant26-88a1a6b2"><path d="M129.4 18.7c3.7-2.9 9.4-8.7 20.6-8.7a26 26 0 0 1 18.8 8.7m-150.4 0C22 15.8 27.8 10 38.9 10a26 26 0 0 1 18.9 8.7" stroke="black" stroke-width="3.7" stroke-linecap="round"/><circle cx="39.4" cy="56.8" r="28.4" fill="white"/><circle cx="149.7" cy="56.8" r="28.4" fill="white"/><circle cx="39.4" cy="56.8" r="15.3" fill="black"/><circle cx="149.7" cy="56.8" r="15.3" fill="black"/></g><g id="nose-variant06-88a1a6b2"><path d="M32 2v27c-3.7.7-11 4-11 10.5 0 8.2 7.3 10.5 11 11.7" stroke="black" stroke-opacity=".5" stroke-width="4" stroke-linecap="round" stroke-linejoin="round"/></g><g id="frontHair-variant10-88a1a6b2"><path d="M346 115c6.5 15.9 11.5 34.5 11.5 70-11 0-38.5 11-92.5-18-54.8-29.5-68.9-59.5-82-79q-19.4 40.4-72.5 73.5C75 183.7 26.2 182.5 10 185c0-23.1 2-46 10.9-67.4A176 176 0 0 1 183 9a175 175 0 0 1 124 51.5 166 166 0 0 1 39 54.5" fill="#1f1714"/><path d="M182 130c10.4-22.4 12-39.5 12-47.5-4.5-25-20.5-14-22-7.5s.5 17-1.5 43c-1.6 20.8-22.3 46-34 54a91 91 0 0 0 45.5-42" fill="#1f1714"/></g><clipPath id="clip-88a1a6b2"><rect width="440" height="440" rx="0" ry="0"/></clipPath></defs><g clip-path="url(#clip-88a1a6b2)"><use transform="translate(9 2.7)scale(.71048)" href="#hair-long03-88a1a6b2"/><use transform="translate(123.5 168)scale(.71856)" href="#head-variant07-88a1a6b2"/><use transform="translate(179.7 330.6)scale(.71856)" href="#mouth-variant0707-88a1a6b2"/><use transform="translate(294 246.9)scale(.71856)" href="#ears-variant08-88a1a6b2"/><use transform="matrix(-.71856 0 0 .71856 146 246.9)" href="#ears-variant08-88a1a6b2"/><use transform="translate(152 240)scale(.71856)" href="#eyes-variant26-88a1a6b2"/><use transform="translate(195.6 288)scale(.71856)" href="#nose-variant06-88a1a6b2"/><use transform="translate(123.6 155)scale(.52237)" href="#frontHair-variant10-88a1a6b2"/></g></svg>