<svg xmlns="http://www.w3.org/2000/svg" viewBox="0 0 440 440" fill="none" shape-rendering="auto" aria-hidden="true"><metadata xmlns:rdf="http://www.w3.org/1999/02/22-rdf-syntax-ns#" xmlns:xsi="http://www.w3.org/2001/XMLSchema-instance" xmlns:dc="http://purl.org/dc/elements/1.1/" xmlns:dcterms="http://purl.org/dc/terms/"><rdf:RDF><rdf:Description><dc:title>Face Generator</dc:title><dc:creator>The Visual Team</dc:creator><dc:source xsi:type="dcterms:URI">https://www.figma.com/community/file/986078800058673824</dc:source><dcterms:license xsi:type="dcterms:URI">https://creativecommons.org/licenses/by/4.0/</dcterms:license><dc:rights>Remix of “Face Generator” (https://www.figma.com/community/file/986078800058673824) by “The Visual Team”, licensed under “CC BY 4.0” (https://creativecommons.org/licenses/by/4.0/)</dc:rights></rdf:Description></rdf:RDF></metadata><defs><g id="hair-long15-89a1a845"><path d="M298.7 59C475 64.2 490.4 226.8 493.4 296.3a241 241 0 0 0 3.5 32.5 217 217 0 0 1 21.5 52.3c22.4 79-7.9 91.5 0 106.1 6.2 11.7 36.5 4.9 51 0-3 9.6-17.5 31-51 40-33.6 9.1-76-17.4-93-31.9-2.8 3-4.2 14.6 12.3 36.3 16.6 21.6 7 53 0 66 .8-7-6.6-24.2-42-36.8a85 85 0 0 1-54-54.3c-.8 2-4 7.1-5.3 31-1.8 33.8-50 45.1-73.9 46.6 8-8.7 22-32.2 14-56.8-8-24.7-16.8-31.6-20.1-32-9 6.9-26 28.2-22.4 58.5 3.5 30.3-38.5 36-60 35.1 4.7-1.6 14-8.7 14-24.3 0-19.5-16.7-8.7-39.1-33-12.2-13.2-11.3-30.4-7.1-43.6-8.4 11-25 23-55 27.9-46.2 7.4-60.7-20.8-62.2-35.7 5.4 2.9 20.3 7 36.4 0 20.1-8.7 10.6-27 5.6-72a77 77 0 0 1 19.2-58.6c2.7-16.2 10.7-27.5 15.2-53.3 10.3-60 3.3-237.3 197.6-237.3" fill="#0b0b0b"/></g><g id="head-variant06-89a1a845"><path d="M136 15c103.2 3 112.2 97.8 114 138.3.5 12.7 3.3 23.8 6 34.9 3.3 13 6.5 26 6 41a110 110 0 0 1-12 51.8c-12.8 27-64.4 56-114 56-52.2 0-102.3-30.5-115.6-65.1A142 142 0 0 1 9 215.5c-.6-16.8 3-29.7 6.5-42.3q2.9-9.6 4.8-20 1-6.2 2-15.3C27 95 36 15 136 15" fill="#dda37a"/><path d="M9.5 209c1.2 11.6 4.4 25 10.7 41.3 13.3 34.5 63.5 65 115.6 65 49.6 0 101.2-29 114-56 7-14.6 10.3-27.2 11.5-38.4 2 16.7.4 35.4-11.3 60-12.8 27-64.4 56-114 56.1-52.2 0-102.3-30.5-115.6-65.1C9.8 244.6 7.9 225 9.4 209" fill="black" fill-opacity=".2"/></g><g id="mouth-variant0202-89a1a845"><path d="M86.7 22.6a31.2 31.2 0 1 1-62.5 0c0-17.3 14-4.2 31.3-4.2 17.2 0 31.2-13 31.2 4.2" fill="#DE8383"/><path fill-rule="evenodd" clip-rule="evenodd" d="M85.3 31.9H25.6q-1.4-4.4-1.4-9.3c0-11.3 6-9.6 15-7 4.7 1.2 10.3 2.8 16.3 2.8s11.5-1.6 16.3-2.9c9-2.5 14.9-4.2 14.9 7q0 5-1.4 9.4" fill="#F9F9F9"/></g><g id="ears-variant05-89a1a845"><path d="M4 27.3C4 15.5 13.5 6 25.3 6h37.2C74.3 6 84 15.5 84 27.3v37.3C84 76.4 74.4 86 62.6 86H25.3A21.3 21.3 0 0 1 4 64.6z" fill="#dda37a"/><path d="M12.9 46A31 31 0 1 1 75 46a31 31 0 1 1-62.1 0" fill="black" fill-opacity=".2"/></g><g id="eyes-variant23-89a1a845"><path d="M2 32.6C8.9 30.4 19.4 26 40 26c17.6 0 32.3 4.9 35 6.6m40 0c6.9-2.2 17.4-6.6 38-6.6 17.6 0 32.3 4.9 35 6.6" stroke="black" stroke-width="3.7" stroke-linecap="round"/><path d="M71.6 60.8s-24 11.6-35.4 11.6S5.3 60.8 5.3 60.8s21.8-11.6 33.2-11.6c11.3 0 33.1 11.6 33.1 11.6m113 0s-24 11.6-35.4 11.6-30.9-11.6-30.9-11.6 21.8-11.6 33.2-11.6c11.3 0 33.1 11.6 33.1 11.6" fill="white"/><circle cx="40.1" cy="60.8" r="11.6" fill="black"/><circle cx="149.8" cy="60.8" r="11.6" fill="black"/></g><g id="nose-variant09-89a1a845"><path d="M56.8 34.2A11.3 11.3 0 0 1 45 49a11.3 11.3 0 0 1-21.8 0h-1a11.3 11.3 0 0 1-10.7-15 11 11 0 0 0 11.7 7.7 11.3 11.3 0 0 0 21.8 0h1c5 0 9.2-3.1 10.7-7.6" fill="black" fill-opacity=".2"/></g><g id="frontHair-variant10-89a1a845"><path d="M346 115c6.5 15.9 11.5 34.5 11.5 70-11 0-38.5 11-92.5-18-54.8-29.5-68.9-59.5-82-79q-19.4 40.4-72.5 73.5C75 183.7 26.2 182.5 10 185c0-23.1 2-46 10.9-67.4A176 176 0 0 1 183 9a175 175 0 0 1 124 51.5 166 166 0 0 1 39 54.5" fill="#0b0b0b"/><path d="M182 130c10.4-22.4 12-39.5 12-47.5-4.5-25-20.5-14-22-7.5s.5 17-1.5 43c-1.6 20.8-22.3 46-34 54a91 91 0 0 0 45.5-42" fill="#0b0b0b"/></g><clipPath id="clip-89a1a845"><rect width="440" height="440" rx="0" ry="0"/></clipPath></defs><g clip-path="url(#clip-89a1a845)"><use transform="translate(9 2.7)scale(.71048)" href="#hair-long15-89a1a845"/><use transform="translate(123.5 168)scale(.71856)" href="#head-variant06-89a1a845"/><use transform="translate(179.7 330.6)scale(.71856)" href="#mouth-variant0202-89a1a845"/><use transform="translate(294 246.9)scale(.71856)" href="#ears-variant05-89a1a845"/><use transform="matrix(-.71856 0 0 .71856 146 246.9)" href="#ears-variant05-89a1a845"/><use transform="translate(152 240)scale(.71856)" href="#eyes-variant23-89a1a845"/><use transform="translate(195.6 288)scale(.71856)" href="#nose-variant09-89a1a845"/><use transform="translate(123.6 155)scale(.52237)" href="#frontHair-variant10-89a1a845"/></g></svg>