<svg xmlns="http://www.w3.org/2000/svg" viewBox="0 0 440 440" fill="none" shape-rendering="auto" aria-hidden="true"><metadata xmlns:rdf="http://www.w3.org/1999/02/22-rdf-syntax-ns#" xmlns:xsi="http://www.w3.org/2001/XMLSchema-instance" xmlns:dc="http://purl.org/dc/elements/1.1/" xmlns:dcterms="http://purl.org/dc/terms/"><rdf:RDF><rdf:Description><dc:title>Face Generator</dc:title><dc:creator>The Visual Team</dc:creator><dc:source xsi:type="dcterms:URI">https://www.figma.com/community/file/986078800058673824</dc:source><dcterms:license xsi:type="dcterms:URI">https://creativecommons.org/licenses/by/4.0/</dcterms:license><dc:rights>Remix of “Face Generator” (https://www.figma.com/community/file/986078800058673824) by “The Visual Team”, licensed under “CC BY 4.0” (https://creativecommons.org/licenses/by/4.0/)</dc:rights></rdf:Description></rdf:RDF></metadata><defs><g id="hair-short06-8ba1ab6b"><path d="M238.5 72c-2 2.2-4.6 8.8.3 17 6 10 11.4-.8 30.6 5 10.4 3 15.3 12.2 17.2 20.4 1-8.3 5.8-19.8 20-31.6 21.7-18.2 38-8 43.4-.8-3.7.2-12.7 2.7-19 11.3-5.8 8-1.3 13.8 8.4 25.4 20-13.7 30.2-8.3 34.2-15 4-6.8-9-20.4-16-26.3 5.8-1.5 21.4-.7 36.7 13.8 15.2 14.6 14.8 44.8 12.6 58.2 2.5.4 9-2.4 15-17.8s25.2-20.2 34-20.7c-3.8 1.8-10.4 11-5.8 33.3a52 52 0 0 1-11 45c1.1-.2 4.8-.1 17.6-7 18-9.7 39 11.8 47.3 23.7-7-1.5-23.6-1.4-33.8 10.6l-4.3 5.4a77 77 0 0 1 .9 16.6c8 1 19.7 0 30.5-8.3 14.5-11.4 30.7 8.6 37 20-2.3-2-9-4.5-17 .4-10.1 6 .8 11.4-4.8 30.6-3 10.4-12.2 15.3-20.4 17.3 8.4 1 19.9 5.7 31.8 19.8 18.3 21.6 8.3 38 1 43.4-.2-3.2-2-10.2-8-16a57 57 0 0 1-7.3 14.2c-12 17.3-42 21.5-55.5 21.4-.1 2.5 3.7 8.4 19.8 12s23.9 22 25.7 30.6c-2.4-3.5-12.5-8.6-33.8-.7a50 50 0 0 1-34.7 1.1l-3 9.6 1.1 1.7c12.4 16.3-5.6 40.3-16.1 50.3a41 41 0 0 0-4.3-19 53 53 0 0 1-24.8 11.7q1.9 2.3 4 4.4c13.5 12.6-3.7 31.7-14 39.6 1.5-2.6 3-9.5-3-16.7-7.6-9-11.2 2.5-31 0-7-1-12-4.7-15.6-9.3q-3 2-6.2 3.6c-2 6.6-6 14.2-13.2 22.6-18.5 21.3-36.2 14-42.7 7.6 3.7-.8 12.1-4.7 16.9-14.2 4.3-8.5-.5-13.4-11-22.6a92 92 0 0 1-13.6-8.6c-8.4 3.3-13.6 3-15.7 7.5-3.5 7.3 10.7 19.6 18.2 25-5.8 1.9-21.3 2.5-37.8-10.7-11.6-9.3-16-27.1-17.4-41.5l-.8.2q-6.3 1.5-12.2 2l-.5 1.4c-4.7 15.9-23.5 22.3-32.3 23.6 3.6-2 9.2-11.3 3.6-31.7a48 48 0 0 1-23.7-36c-14.1-1.2-28.8-14.4-35.8-22.8 7 .8 23.6-.7 32.7-13.5q2.5-3.3 4-6.1a51 51 0 0 0-5.1-16.2 41 41 0 0 0-27 11c-13.5 12.6-31.4-6-38.6-16.7 2.5 1.7 9.3 3.7 17-1.9 9.4-7-1.9-11.3 2-31 2-10 10-15.7 17.5-18.5v-.5c-8.3-.6-19.6-4.6-32-17-20-19.9-11.5-37-4.7-43 .5 3.6 3.8 12.3 13 17.7 8 4.7 13 .8 22-8.2-7.4-14.9-4.2-23-9.9-26.4-6.9-4-20.5 8.9-26.5 15.9-1.4-6-.6-21.5 14-36.7 14.7-15.1 45-14.5 58.3-12.2.5-2.5-2.3-9-17.7-15s-20-25.5-20.5-34.4c1.8 4 11 10.6 33.3 6.1a50 50 0 0 1 40.7 8.3l2.5-3.6q-1.4-3.8-5.1-11c-9.6-18.1 12-39 24-47.2-1.6 7-1.6 23.6 10.3 34l.9.7a62 62 0 0 1 21.5-5c-.4-7-2.6-15.1-8.5-22.8C207 94.2 227 78.1 238.5 72" fill="#1f1714"/></g><g id="head-variant04-8ba1ab6b"><circle cx="135.2" cy="143.2" r="121.2" fill="#e8ad8b"/><rect x="14" y="140.5" width="242.4" height="191.2" fill="#e8ad8b"/><path d="M14 312h242v20H14z" fill="black" fill-opacity=".2"/></g><g id="mouth-variant0702-8ba1ab6b"><path fill-rule="evenodd" clip-rule="evenodd" d="m87.2 16.1 4.6-3.8a3.2 3.2 0 1 1 4 5l-6.4 5.5q-3.3 3-7.9 5.7a49 49 0 0 1-26.1 6.2 51 51 0 0 1-38.6-18 3.2 3.2 0 0 1 5-3.9 45 45 0 0 0 33.6 15.5A43 43 0 0 0 78.3 23a48 48 0 0 0 9-6.9" fill="black"/></g><g id="ears-variant01-8ba1ab6b"><rect y="6" width="88" height="88.1" rx="44" fill="#e8ad8b"/><rect x="9.8" y="15.8" width="68.4" height="68.5" rx="34.2" fill="black" fill-opacity=".2"/><rect x="3.9" y="33.4" width="37.2" height="37.2" rx="18.6" fill="#e8ad8b"/></g><g id="eyes-variant11-8ba1ab6b"><path d="M133.9 17.7c3.7-3 9.3-8.7 20.4-8.7 9.4 0 17.3 6.4 18.7 8.7m-118 0c-3.6-3-9.3-8.7-20.3-8.7-9.4 0-17.3 6.4-18.7 8.7" stroke="black" stroke-width="7" stroke-linecap="round"/><path d="m22 40 35.5 15.5L22 76m147.5-36L134 55.5 169.5 76" stroke="black" stroke-width="4" stroke-linecap="round" stroke-linejoin="round"/></g><g id="nose-variant10-8ba1ab6b"><path d="M53.8 26.3a10 10 0 0 1-10.4 13.4 10 10 0 0 1-19.4 0h-1a10 10 0 0 1-9.5-13.4A10 10 0 0 0 24 33a10 10 0 0 0 19.4 0h.9a10 10 0 0 0 9.5-6.7" fill="black" fill-opacity=".2"/></g><g id="frontHair-variant04-8ba1ab6b"><path d="M248 178.5a64 64 0 0 0-18.6-45c-5.9-5.8-12.9-61-20.6-64.2a64 64 0 0 0-48.6 0c-7.7 3.2-14.7 58.4-20.6 64.3a64 64 0 0 0-18.6 44.9z" fill="#1f1714"/><path d="M346 114c6.5 15.9 11.5 34.5 11.5 70-11 0-38.5 11-92.5-18-54.8-29.5-68.9-59.5-82-79q-19.4 40.4-72.5 73.5C75 182.7 26.2 181.5 10 184c0-23.1 2-46 10.9-67.4A176 176 0 0 1 183 8a175 175 0 0 1 124 51.5 166 166 0 0 1 39 54.5" fill="#1f1714"/></g><clipPath id="clip-8ba1ab6b"><rect width="440" height="440" rx="0" ry="0"/></clipPath></defs><g clip-path="url(#clip-8ba1ab6b)"><use transform="translate(9 2.7)scale(.71048)" href="#hair-short06-8ba1ab6b"/><use transform="translate(123.5 168)scale(.71856)" href="#head-variant04-8ba1ab6b"/><use transform="translate(179.7 330.6)scale(.71856)" href="#mouth-variant0702-8ba1ab6b"/><use transform="translate(294 246.9)scale(.71856)" href="#ears-variant01-8ba1ab6b"/><use transform="matrix(-.71856 0 0 .71856 146 246.9)" href="#ears-variant01-8ba1ab6b"/><use transform="translate(152 240)scale(.71856)" href="#eyes-variant11-8ba1ab6b"/><use transform="translate(195.6 288)scale(.71856)" href="#nose-variant10-8ba1ab6b"/><use transform="translate(123.6 155)scale(.52237)" href="#frontHair-variant04-8ba1ab6b"/></g></svg>