<svg xmlns="http://www.w3.org/2000/svg" viewBox="0 0 440 440" fill="none" shape-rendering="auto" aria-hidden="true"><metadata xmlns:rdf="http://www.w3.org/1999/02/22-rdf-syntax-ns#" xmlns:xsi="http://www.w3.org/2001/XMLSchema-instance" xmlns:dc="http://purl.org/dc/elements/1.1/" xmlns:dcterms="http://purl.org/dc/terms/"><rdf:RDF><rdf:Description><dc:title>Face Generator</dc:title><dc:creator>The Visual Team</dc:creator><dc:source xsi:type="dcterms:URI">https://www.figma.com/community/file/986078800058673824</dc:source><dcterms:license xsi:type="dcterms:URI">https://creativecommons.org/licenses/by/4.0/</dcterms:license><dc:rights>Remix of “Face Generator” (https://www.figma.com/community/file/986078800058673824) by “The Visual Team”, licensed under “CC BY 4.0” (https://creativecommons.org/licenses/by/4.0/)</dc:rights></rdf:Description></rdf:RDF></metadata><defs><g id="hair-short05-8ca1acfe"><path d="M105.6 355.5C117 429 133 449.2 162.6 486c47.3 72.2 222.5 105.7 289.2-15.2C560.6 273.5 421.8 141 306 141c-96 0-109.6 36-126 68-57-12.5-83 91-74.5 146.5" fill="#0b0b0b"/></g><g id="head-variant07-8ca1acfe"><path d="M270 189v-1.6C270 115.8 209.6 31 135 31S0 115.8 0 187.4v3.2c0 71.5 60.4 129.5 135 129.5s135-58 135-129.5z" fill="#e8ad8b"/><path d="M269.6 180.8q.4 5 .4 9.8c0 71.5-60.4 129.5-135 129.5S0 262 0 190.6q0-4.8.4-9.8c5.1 67 63.4 119.8 134.6 119.8s129.5-52.8 134.6-119.8" fill="black" fill-opacity=".2"/></g><g id="mouth-variant0501-8ca1acfe"><path d="M110.4 38.6c0 17-24.4 4.1-54.6 4.1s-54.6 13-54.6-4 24.4-31 54.6-31 54.6 13.8 54.6 30.8" fill="#DE8383"/><path fill-rule="evenodd" clip-rule="evenodd" d="M4.3 45.8c7.5-12 27.7-20.5 51.5-20.5s44 8.5 51.5 20.5c-4.2 2.8-12.4 1.5-23-.2-8.3-1.3-18-2.9-28.5-2.9s-20.2 1.6-28.5 3c-10.6 1.6-18.8 2.9-23 .1" fill="#C06E6E"/><path fill-rule="evenodd" clip-rule="evenodd" d="M103.3 23.5h-95C17.7 14 35.4 7.8 55.8 7.8s38.2 6.3 47.5 15.7" fill="#F9F9F9"/></g><g id="ears-variant06-8ca1acfe"><rect x="7" y="5" width="80" height="80" rx="21.3" fill="#e8ad8b"/><rect x="15.9" y="13.9" width="62.2" height="62.2" rx="12.4" fill="black" fill-opacity=".2"/><rect x="8.8" y="28.1" width="17.8" height="35.5" rx="5.3" fill="#e8ad8b"/></g><g id="eyes-variant07-8ca1acfe"><path d="M134.1 18.7c3.7-3 9.4-8.7 20.4-8.7 9.4 0 17.3 6.4 18.7 8.7m-117.9 0C51.6 15.7 46 10 35 10c-9.3 0-17.2 6.4-18.7 8.7" stroke="black" stroke-width="3.7" stroke-linecap="round"/><circle cx="38.2" cy="58" r="28.2" fill="white"/><circle cx="151.8" cy="58" r="28.2" fill="white"/><circle cx="38.2" cy="58" r="15.2" fill="black"/><circle cx="151.8" cy="58" r="15.2" fill="black"/><path d="M151.3 28.2a28 28 0 0 1 28 24.4h-56a28 28 0 0 1 28-24.4M38 28.2a28 28 0 0 1 28 24.4H10a28 28 0 0 1 28-24.4" fill="#CD9166"/></g><g id="nose-variant04-8ca1acfe"><path d="M32.8 10c-7.1 9.5-20.2 29-16 31 4.3 2 18.6 2.5 25.3 2.5" stroke="black" stroke-opacity=".5" stroke-width="4" stroke-linecap="round" stroke-linejoin="round"/></g><g id="frontHair-variant08-8ca1acfe"><path d="M115.3 118.7c-3.5-17 23.9-29.6 38.9-33.1 15-3.6 17.8-3.6 37.4-3.6s63.8 6.8 62.4 30.3c-1.2 18.8-21.9 18.3-32.1 15.7 4.9 8 13.2 25.9 7.5 33.8-5.7 8-18.8 1.2-24.6-3.2-.5 5.5-5.2 18-20 24.3C170 189 166 167.7 166 156c-6.6 2.3-21.9 4.6-29.6-4.2s3.3-19.6 9.7-24c-8.2 3.5-28 3.9-30.7-9.2" fill="#0b0b0b"/><path d="M346 113c6.5 15.9 11.5 34.5 11.5 70-11 0-38.5 11-92.5-18-54.8-29.5-68.9-59.5-82-79q-19.4 40.4-72.5 73.5C75 181.7 26.2 180.5 10 183c0-23.1 2-46 10.9-67.4A176 176 0 0 1 183 7a175 175 0 0 1 124 51.5 166 166 0 0 1 39 54.5" fill="#0b0b0b"/></g><clipPath id="clip-8ca1acfe"><rect width="440" height="440" rx="0" ry="0"/></clipPath></defs><g clip-path="url(#clip-8ca1acfe)"><use transform="translate(9 2.7)scale(.71048)" href="#hair-short05-8ca1acfe"/><use transform="translate(123.5 168)scale(.71856)" href="#head-variant07-8ca1acfe"/><use transform="translate(179.7 330.6)scale(.71856)" href="#mouth-variant0501-8ca1acfe"/><use transform="translate(294 246.9)scale(.71856)" href="#ears-variant06-8ca1acfe"/><use transform="matrix(-.71856 0 0 .71856 146 246.9)" href="#ears-variant06-8ca1acfe"/><use transform="translate(152 240)scale(.71856)" href="#eyes-variant07-8ca1acfe"/><use transform="translate(195.6 288)scale(.71856)" href="#nose-variant04-8ca1acfe"/><use transform="translate(123.6 155)scale(.52237)" href="#frontHair-variant08-8ca1acfe"/></g></svg>