<svg xmlns="http://www.w3.org/2000/svg" viewBox="0 0 762 762" fill="none" shape-rendering="auto" aria-hidden="true"><metadata xmlns:rdf="http://www.w3.org/1999/02/22-rdf-syntax-ns#" xmlns:xsi="http://www.w3.org/2001/XMLSchema-instance" xmlns:dc="http://purl.org/dc/elements/1.1/" xmlns:dcterms="http://purl.org/dc/terms/"><rdf:RDF><rdf:Description><dc:title>Adventurer</dc:title><dc:creator>Lisa Wischofsky</dc:creator><dc:source xsi:type="dcterms:URI">https://www.figma.com/community/file/1184595184137881796</dc:source><dcterms:license xsi:type="dcterms:URI">https://creativecommons.org/licenses/by/4.0/</dcterms:license><dc:rights>Remix of “Adventurer” (https://www.figma.com/community/file/1184595184137881796) by “Lisa Wischofsky”, licensed under “CC BY 4.0” (https://creativecommons.org/licenses/by/4.0/)</dc:rights></rdf:Description></rdf:RDF></metadata><defs><g id="head-default-bd5ae3c7"><path d="M252.8 2a225 225 0 0 1 104.8 42.3c6.2 4.9 12.5 9.4 18 15a225 225 0 0 1 71.8 149 58.5 58.5 0 0 1 50.9 42.2 71 71 0 0 1-27.7 76.5 64 64 0 0 1-37.8 11.7c-5.1 0-10-1.6-15.1-1.8q-2.7 3.5-4.8 7.3a223 223 0 0 1-167.1 102.7c-11 .7-21.9 2-33 .7A223.7 223.7 0 0 1 34 105.3 223 223 0 0 1 208.8.6a216 216 0 0 1 44 1.3" fill="black"/><path fill-rule="evenodd" clip-rule="evenodd" d="M355.6 50.3A216 216 0 0 0 219.8 6.2a197 197 0 0 0-39 4A218 218 0 0 0 67.2 375.8 218.5 218.5 0 0 0 327.6 416c35-18.8 64.3-47.3 84.4-81.5l-3-1.6q-4.4-2-8-5c-2.2-2-.3-5.8 2.7-4.7q2.3 1.1 4.4 2.4 2.2 1.6 4.7 2.6a55 55 0 0 0 54.9-6.2 64.5 64.5 0 0 0 25-69.8 53 53 0 0 0-24-31c-13.4-8-30-9-44.7-3.7l-2.3 1c-1.6.7-3.4 1.4-5 1.2-2.5-.2-2.8-4.2-.6-5.2 8-4 16.5-5.6 25.4-6.4A217 217 0 0 0 373 65l-3.6-3.3c-4.3-4-8.6-8.1-13.8-11.3m107.6 196.2c2-1.2 1.3-5.1-1.4-5-2 0-4.2.8-6.2 1.6l-1.4.5a95 95 0 0 0-25.5 12.3c-2.2 2-2.2 4.4.1 6.2l5.2 2.8a36 36 0 0 1 13 9.3c-.2 1.8-2 3.3-3.4 4.4l-.2.2c-3.9 3-8.8 5-13.6 7l-7.2 3.1c-1.6.8-2.5 2.2-1.5 3.9 1 2 3.2 1.1 5 .5l.6-.2 5.4-2.3c5.4-2.3 11-4.5 15.4-8 2.7-2.1 5.1-5.1 5.4-8.7-.5-3.4-2.7-5.7-5.3-7.8-3.5-2.8-7.7-5-11.6-7.2l-1.1-.6q8-4.5 16.7-7.7l4.8-1.7a52 52 0 0 0 6.8-2.6" fill="#dda37a"/></g><g id="eyes-variant12-bd5ae3c7"><path d="M273.6 9.5A64 64 0 0 1 302.1 43a64 64 0 0 1 .5 45c-1 3-2.9 5.3-6.3 4.9-15-.8-30 .1-45 .5q-15 1.5-30 3.8-15.6 2.9-31 6.1c-4.3-.1-5.3-4.2-7.2-7.3a65.5 65.5 0 0 1 47.1-94.2 65 65 0 0 1 43.4 7.7" fill="black"/><path d="M242.3 6.7a59 59 0 0 1 54.4 80.6l-3.2-.3a27 27 0 0 0 1.4-15.4 26.6 26.6 0 1 0-50.1 16.9 287 287 0 0 0-34 5.2c-6.7 1.2-13.4 3.2-20.2 4a60 60 0 0 1 10.7-75.9 59 59 0 0 1 41-15.1" fill="white"/><path d="M76.3 23.9a54.8 54.8 0 0 1 42.8 81.8c-1.1 1.8-2.9 4-5 4.7-3 .8-6.6-.2-9.6-.9q-13-3-26.3-5.1-19.4-1.4-39 0c-4.7.4-9.7 1.4-14.5 1-2.3-1-3.7-4.2-4.6-6.4a55 55 0 0 1 56.2-75" fill="black"/><path d="M85.8 31.5a49.3 49.3 0 0 1 26.7 74l-4.1-.7c4.1-4.4 7-9.8 6.8-16A22.6 22.6 0 0 0 71.5 80c-2.5 6-1.9 12 .4 18-7.6.3-15-.4-22.6.3l-22 1.8q-1-1.5-1.8-3.4a49.2 49.2 0 0 1 60.3-65.2" fill="white"/></g><g id="eyebrows-variant01-bd5ae3c7"><path d="M297.9 50c1.6 1 1 2.9 1.2 4.5v34c.2 2.8-2.5 4.3-4.7 5l-120 41.2c-2.6.2-2.9-1.8-3.6-3.7l-5-18c1 5.8 1 11.7 1.4 17.5 0 1.4.4 4-1 4.9-2 1.4-4 0-4.6-2Q156.3 114 150.9 95c-.3-1.8-.6-3.9 1.4-4.9q3.1-.6 4 2.5l3.7 13.7q-1-7.9-1.2-15.8c0-1.3-.1-3.7 1.7-3.8l4.4-.7 123.6-35.2c3.3-.9 6-2.1 9.4-.8M8.4 82.4c13.6 1.4 27.3 1.4 41 2.5 21 1.1 42 2.7 63.1 3.5 7.8.8 15.6 1 23.4 1.6 2.8 2.2 1.1 8.1 2 11.4.5-3 .1-7 1.9-9.5 2.1-1.8 5-.2 4.7 2.6l-7 42.2c-.8 2.9-4.5 2.5-5.3-.2l-.3-14.8c-1 4.3-1.4 8.7-2.4 13-.5 1.6-1.2 2.8-3.1 2.4L7.5 115.8q-2.8-.5-3-3.3c-1.5-8-2.6-16-4.2-24-.2-1.7-.8-3.1.5-4.6 2.2-2.2 4.8-1.6 7.6-1.5" fill="black"/></g><g id="mouth-variant25-bd5ae3c7"><path d="M129.3 23.4c11 1.4 21.9 7 27.2 17a31 31 0 0 1 3.3 21.2 54 54 0 0 1-14.5 27.6 77 77 0 0 1-44.8 23 93 93 0 0 1-42.9-3 77 77 0 0 1-23.8-13 62 62 0 0 1-19.5-25.6 33 33 0 0 1-1.8-17.2A21 21 0 0 1 25.3 38a37 37 0 0 1 21.2-1.8c9 1.2 16.7 5 24.7 9.1a72 72 0 0 1 58.1-22" fill="black"/><path d="M124.5 29c8.8.3 17.4 3.2 23.7 9.6q-4.7 5.5-11 8.5c-1.7.9-3.7 1.7-5 3-2.5 3-3.7 8.2-6.7 10.5-3.6-1.2-6.8-3.9-10-5.8a175 175 0 0 1-44 4.5q-16.5.4-33-2.4c-1.8-.3-4-1-5.8-.4Q29.5 59 26.9 62l-5.5-8.6-2.7-1.2c2.7-6 8.4-9.6 14.8-10.4a54 54 0 0 1 34 8.6c2 1 3.6 2.3 5.8.9 2.8-2.2 5.1-5 8-7.1 12-9.6 27.7-16 43.2-15.3" fill="white"/><path d="M151.8 43.7a29 29 0 0 1 2.2 17.7c-2 9.5-7 17.8-13.9 24.6a75 75 0 0 1-41.6 20.7 89 89 0 0 1-34-1.7A71 71 0 0 1 27 81a39 39 0 0 1-9.3-23c2.6 2.7 3.8 6.3 6.3 9 4.2 3.3 7.7-2.1 10.5-4.7a219 219 0 0 0 80.2-1.2c3.7 1.5 8.4 6 12.7 5 6-2.3 6-11.9 12.3-13.6a43 43 0 0 0 12.2-8.8" fill="#8F2E45"/></g><g id="details-mustache-bd5ae3c7"><path d="M156.8 3.2c6.3 4.7 7.6 15 14 20s14.5 7.3 22.2 3.6c1 1.3 2.3 2.3 1.3 4.1-4 7-11.2 10.4-18.7 12.5a41 41 0 0 1-29.4-2.6c-6.3-3.5-9.9-9.1-14.4-14.5a60 60 0 0 1-20.4 18.8c-5.8 3-13.3 5-19.8 3.3-6.3-1.8-12-6.1-12.2-13.1-.2-2.4 1.2-2.7 3.1-3.1 1.3 1.3 2.3 2.7 4.2 3 3.5.7 7-1.2 9.1-3.8 5.4-6.4 4.5-17 10.4-22.6 6.2-5.9 16.9-8.1 24.5-4 7.7-5.2 18-6.9 26.1-1.6" fill="black"/></g><g id="hair-short15-bd5ae3c7"><path d="M564 .8c1.9-.6 3.6-1.2 5.6-.6l2.4 3c-3.4 5-6 10.4-8.7 16a181 181 0 0 0-19.5 82.3 383 383 0 0 1 105 5.6c2 .4 3.5 1 3.7 3.3.1 3-2.8 3.5-5 5a178 178 0 0 0-30.9 25 201 201 0 0 0-36.5 51.2c30 5.2 59 20 83.1 38.2 2 1.5 4.5 3.2 5.7 5.5-.5 4.1-4.6 4.3-7.7 5.7a254 254 0 0 0-54 27.4q19.3 12 36.2 27.2c1.6 1.7 3.6 3 3 5.7-.1 1.8-2.9 2.9-4.3 3.6q-11.7 5-23.8 9.1c-2.3.8-3.3 0-4.5-1.9a194 194 0 0 0-39.8-44 215 215 0 0 0-39.3-26.8c-2.7-1.3-5-2.6-8-2.5q-8.6 0-17.1.5c-32 2.5-63.6 10.3-93 23.1-15.6 7-31.3 15.6-44.4 26.6-2 1.6-4 4.1-6.6 5-5.8-1-11.5-3.4-17-5.4-18.8-7-35.1-20-49-34.2Q283.3 237.8 271 218c-6.2-9.5-12-19.1-16.4-29.6-1.4-3.2-3.2-6.6-3.7-10.1 0-1.3 1.2-3.6 2.8-3.2 3 1 6 2.9 9 4.2a92 92 0 0 0 18.5 6.3c12 3.4 24.6 5.8 36.9 8.3-1.2-7.7-1.2-15.4-.9-23.2a202 202 0 0 1 15.4-63.4 230 230 0 0 1 24.3-44.9A213 213 0 0 1 393.5 21c2.6-1.9 5.4-4.4 8.7-2.2 2.2 1 1.1 3.7 1 5.5-3.7 17-.4 34.6 4.3 51.2 2.6 9.3 6.7 17.9 11 26.5q5.3-7 11.5-13.3a420 420 0 0 1 69.8-55.3A344 344 0 0 1 564 .8" fill="black"/><path d="M563.3 7.3a193 193 0 0 0-25.1 81.1l-.1 16.3c1 .8 2 2.5 3.5 2.5 6.3-.5 12.6-1.5 19-1.5 11.3 0 22.5-.3 33.8.7 16.3.4 32.3 2.8 48.4 5.6a202 202 0 0 0-38.6 33 234 234 0 0 0-29.6 44.4c-.8 1.8-2.1 4-1 5.9 1 1.3 2.5 1.1 4 1.4q9 1.3 17.8 4.1a213 213 0 0 1 65.5 34.6 250 250 0 0 0-55.9 27.4c-2.3 1.8-7.8 4-5.6 7.7 3.1 2 6.6 3.3 9.6 5.5 10.6 7.1 21 15 30.3 23.8q-10.5 4.4-21.2 8.1a201 201 0 0 0-36.2-40.8 218 218 0 0 0-48.8-33q-3-1.3-6.5-1.1c-37.5 0-75 8.4-109.5 22.9-19 8.2-37 18.2-52.6 32q-9.2-2.7-18-6.5a119 119 0 0 1-31-20 204 204 0 0 1-32.3-35.6c-9.3-13.5-18.3-26.5-24.8-41.7 18.1 8 38.8 11.3 58.2 15 2.6 0 6.3 1.9 7.4-1.5-.1-2.8-.8-5.5-1.1-8.2-1.4-9.7 0-20.3 1-30A226 226 0 0 1 362.3 65c10.2-14.6 21.6-28 35.1-39.6q-2 13.4-.6 27a144 144 0 0 0 13.9 47c1.7 3.1 3 6.9 5.3 9.7 1 1.3 3.5 1.7 4.4 0 5.2-8.9 12.8-15.6 20.2-22.8a456 456 0 0 1 62.1-47.8c19.3-12 39.5-23.2 60.7-31.2" fill="#0b0b0b"/></g><clipPath id="clip-bd5ae3c7"><rect width="762" height="762" rx="0" ry="0"/></clipPath></defs><g clip-path="url(#clip-bd5ae3c7)"><use transform="translate(143.2 162.9)" href="#head-default-bd5ae3c7"/><use transform="translate(154.7 340.2)" href="#eyes-variant12-bd5ae3c7"/><use transform="translate(154.6 268.5)" href="#eyebrows-variant01-bd5ae3c7"/><use transform="translate(232.5 456.6)" href="#mouth-variant25-bd5ae3c7"/><use transform="translate(171.3 439.7)" href="#details-mustache-bd5ae3c7"/><use transform="translate(-65.6 -47.4)" href="#hair-short15-bd5ae3c7"/></g></svg>