<svg xmlns="http://www.w3.org/2000/svg" viewBox="0 0 762 762" fill="none" shape-rendering="auto" aria-hidden="true"><metadata xmlns:rdf="http://www.w3.org/1999/02/22-rdf-syntax-ns#" xmlns:xsi="http://www.w3.org/2001/XMLSchema-instance" xmlns:dc="http://purl.org/dc/elements/1.1/" xmlns:dcterms="http://purl.org/dc/terms/"><rdf:RDF><rdf:Description><dc:title>Adventurer</dc:title><dc:creator>Lisa Wischofsky</dc:creator><dc:source xsi:type="dcterms:URI">https://www.figma.com/community/file/1184595184137881796</dc:source><dcterms:license xsi:type="dcterms:URI">https://creativecommons.org/licenses/by/4.0/</dcterms:license><dc:rights>Remix of “Adventurer” (https://www.figma.com/community/file/1184595184137881796) by “Lisa Wischofsky”, licensed under “CC BY 4.0” (https://creativecommons.org/licenses/by/4.0/)</dc:rights></rdf:Description></rdf:RDF></metadata><defs><g id="head-default-b15ad0e3"><path d="M252.8 2a225 225 0 0 1 104.8 42.3c6.2 4.9 12.5 9.4 18 15a225 225 0 0 1 71.8 149 58.5 58.5 0 0 1 50.9 42.2 71 71 0 0 1-27.7 76.5 64 64 0 0 1-37.8 11.7c-5.1 0-10-1.6-15.1-1.8q-2.7 3.5-4.8 7.3a223 223 0 0 1-167.1 102.7c-11 .7-21.9 2-33 .7A223.7 223.7 0 0 1 34 105.3 223 223 0 0 1 208.8.6a216 216 0 0 1 44 1.3" fill="black"/><path fill-rule="evenodd" clip-rule="evenodd" d="M355.6 50.3A216 216 0 0 0 219.8 6.2a197 197 0 0 0-39 4A218 218 0 0 0 67.2 375.8 218.5 218.5 0 0 0 327.6 416c35-18.8 64.3-47.3 84.4-81.5l-3-1.6q-4.4-2-8-5c-2.2-2-.3-5.8 2.7-4.7q2.3 1.1 4.4 2.4 2.2 1.6 4.7 2.6a55 55 0 0 0 54.9-6.2 64.5 64.5 0 0 0 25-69.8 53 53 0 0 0-24-31c-13.4-8-30-9-44.7-3.7l-2.3 1c-1.6.7-3.4 1.4-5 1.2-2.5-.2-2.8-4.2-.6-5.2 8-4 16.5-5.6 25.4-6.4A217 217 0 0 0 373 65l-3.6-3.3c-4.3-4-8.6-8.1-13.8-11.3m107.6 196.2c2-1.2 1.3-5.1-1.4-5-2 0-4.2.8-6.2 1.6l-1.4.5a95 95 0 0 0-25.5 12.3c-2.2 2-2.2 4.4.1 6.2l5.2 2.8a36 36 0 0 1 13 9.3c-.2 1.8-2 3.3-3.4 4.4l-.2.2c-3.9 3-8.8 5-13.6 7l-7.2 3.1c-1.6.8-2.5 2.2-1.5 3.9 1 2 3.2 1.1 5 .5l.6-.2 5.4-2.3c5.4-2.3 11-4.5 15.4-8 2.7-2.1 5.1-5.1 5.4-8.7-.5-3.4-2.7-5.7-5.3-7.8-3.5-2.8-7.7-5-11.6-7.2l-1.1-.6q8-4.5 16.7-7.7l4.8-1.7a52 52 0 0 0 6.8-2.6" fill="#f7d4b2"/></g><g id="eyes-variant12-b15ad0e3"><path d="M273.6 9.5A64 64 0 0 1 302.1 43a64 64 0 0 1 .5 45c-1 3-2.9 5.3-6.3 4.9-15-.8-30 .1-45 .5q-15 1.5-30 3.8-15.6 2.9-31 6.1c-4.3-.1-5.3-4.2-7.2-7.3a65.5 65.5 0 0 1 47.1-94.2 65 65 0 0 1 43.4 7.7" fill="black"/><path d="M242.3 6.7a59 59 0 0 1 54.4 80.6l-3.2-.3a27 27 0 0 0 1.4-15.4 26.6 26.6 0 1 0-50.1 16.9 287 287 0 0 0-34 5.2c-6.7 1.2-13.4 3.2-20.2 4a60 60 0 0 1 10.7-75.9 59 59 0 0 1 41-15.1" fill="white"/><path d="M76.3 23.9a54.8 54.8 0 0 1 42.8 81.8c-1.1 1.8-2.9 4-5 4.7-3 .8-6.6-.2-9.6-.9q-13-3-26.3-5.1-19.4-1.4-39 0c-4.7.4-9.7 1.4-14.5 1-2.3-1-3.7-4.2-4.6-6.4a55 55 0 0 1 56.2-75" fill="black"/><path d="M85.8 31.5a49.3 49.3 0 0 1 26.7 74l-4.1-.7c4.1-4.4 7-9.8 6.8-16A22.6 22.6 0 0 0 71.5 80c-2.5 6-1.9 12 .4 18-7.6.3-15-.4-22.6.3l-22 1.8q-1-1.5-1.8-3.4a49.2 49.2 0 0 1 60.3-65.2" fill="white"/></g><g id="eyebrows-variant13-b15ad0e3"><path d="M298.4 55.5a134 134 0 0 0-92-35 175 175 0 0 0-26.5 3q-2.1 5-3.5 10l-1.1 3.7-.1-1.4-1.3-11.4-3.3-1.5-.8 1.1q-1 1.2-1.2 2.4 0 5.7.7 11.3a113 113 0 0 1 .8 10.5c.2 2.4.3 5 1.7 6.8 2.8.8 6-.3 9-1.3l3-1c19-5.5 39.2-6.8 58.8-4.4 20 2.3 40 8.3 57.4 18.6q3 1.5 6.1 2.5L308 66q-4.1-5.8-9.5-10.5M106.6 48q.4-6.2 0-12.6c-.2-2.5-1.8-2.5-3.7-2.6h-1c-.9 3.6-1 7.5-1.2 11.3l-.2 5Q98 43.4 96 37.7l-.4-.8c-.4-1.1-1-2.3-2.2-2.3q-3.7 0-7.6.9l-3.4.6a128 128 0 0 0-52 20.3A53 53 0 0 0 13.5 75c-1.4 3.2-2.8 6.5-1.5 10h.4c1 .4 2.6.9 3.4.1l2.7-2.1q3-2.7 6.5-4.6A153 153 0 0 1 93.4 63q2.7.1 5.4.5 3 .5 5.7.5c1.8-1.2 1.8-3.6 1.9-5.7v-1.8z" fill="black"/></g><g id="mouth-variant16-b15ad0e3"><path d="M127.7 27.7c1.5-.4 3.3-1 4.9-.8 2 .8 2 3 1 4.7-4 2.6-10 2.8-14.2 4.8a79 79 0 0 1 0 41 55 55 0 0 1-20.7 31.3c-7 5-15.6 7.4-24.2 6.5A42 42 0 0 1 45.9 98a72 72 0 0 1-11.3-60.2c-2.4-.8-5.6-1.2-7.5-2.9-.6-1.2-.2-2.8-.3-4.1 4.5 0 8.3 1.6 12.7 2.5 29.5 6 59.5 3 88.2-5.6" fill="black"/><path d="M113.4 37.5a68 68 0 0 1-6.7 54.2c-4 6.5-9.6 12-16.7 15.1a29 29 0 0 1-25.4-.5c-8-4-14.6-11.4-18.7-19.3a70 70 0 0 1-5.5-48c10.4 2.4 21 3 31.8 3.2-1 6.8-1 13.4-1.2 20.2 0 2-.2 4 .5 6 1 1.6 4.6 1.1 4.7-1.1.6-8.4-.1-16.8 1.5-25.2 12-.2 24-2.2 35.7-4.6" fill="#EA869E"/></g><g id="details-mustache-b15ad0e3"><path d="M156.8 3.2c6.3 4.7 7.6 15 14 20s14.5 7.3 22.2 3.6c1 1.3 2.3 2.3 1.3 4.1-4 7-11.2 10.4-18.7 12.5a41 41 0 0 1-29.4-2.6c-6.3-3.5-9.9-9.1-14.4-14.5a60 60 0 0 1-20.4 18.8c-5.8 3-13.3 5-19.8 3.3-6.3-1.8-12-6.1-12.2-13.1-.2-2.4 1.2-2.7 3.1-3.1 1.3 1.3 2.3 2.7 4.2 3 3.5.7 7-1.2 9.1-3.8 5.4-6.4 4.5-17 10.4-22.6 6.2-5.9 16.9-8.1 24.5-4 7.7-5.2 18-6.9 26.1-1.6" fill="black"/></g><g id="hair-short13-b15ad0e3"><path d="M466.6 207.7c21.2 2.4 42.8 6 63.3 12.4 6.7 2.3 13.8 4.5 20 8 2.3 1.4 1 3.5-.4 5-4.8-1.5-9.3-3.9-14.1-5.5a278 278 0 0 0-42.3-10.3q-24-4.4-48.2-5.4a291 291 0 0 0-95 10c-5.7 1.4-11 3.3-16.8 4.1-.5-2.5-1.8-4.5 1.3-5.7 18.4-5.6 37.1-10 56.2-12.3a331 331 0 0 1 76-.3" fill="black"/><path d="M416.7 224.1c2.5.2 4 1.7 3 4.3-1.2 2.3-4.6 2.5-6.9 3.2q-44 9-86 25c-5 1.7-9.7 3.8-14.7 5.4a690 690 0 0 1 95.3-15.2c8.4-.5 16.8-1.6 25.2-1.8 7.3 0 14.6-.8 22-.7 13.3 0 26.7-.4 40 .5 7 .4 14.4.1 21.2 1.6 1.8.2 2.4 1.4 3.4 2.8l-1.6 2.6c-4.7 0-9.3-.6-14-1q-17.2-1-34.6-.8-34.8-.3-69.4 3.2c-35 3.5-69.4 10.1-103.5 18.6-2.7.5-6.6 2-9 0-.5-1.3-.8-3.5.5-4.4 3.3-2.5 7.5-4 11.3-5.7a592 592 0 0 1 95.7-31.9q-8 .9-16 1.2a451 451 0 0 0-81.6 13c-.9-1.5-2-2.5-1.4-4.5 2.5-2 5.8-2.7 8.8-3.4l12.7-2.5c16.4-3.6 33-5.5 49.7-7.3 16.5-1.3 32.9-2.8 49.9-2.2m144 11.2c2.3-.3 3.8-.2 5.7 1.2 7.3 5 14.8 11.1 19.4 18.8q5.4 9 5 19.6c11.8 2.6 21 9.7 28.6 18.7a137 137 0 0 1 22.9 42.3 292 292 0 0 1 15 83.5c.1 2.2-.7 4-2.9 4.5-3.9.2-7.7-.2-11.6.8-2.7.5-6 2-8.7 1.3l-1-4q8.7-3.5 18.4-3.4a270 270 0 0 0-19.4-92.7q-6-14.3-15.4-26.6a57 57 0 0 0-17.6-15.3c-4-2.2-8.3-3-12.8-4.4l-.8-2a30 30 0 0 0-5.3-20.8c-5.4-8-12.8-12.2-20.1-18q.1-1.8.6-3.5" fill="black"/><path d="M382.8 262.9c6-.4 12 0 18 0 20 .2 39.9 0 59.8.3 11.7-.3 23.3.6 35 1 4.8.2 9.7.5 14.2 2 2.2.9 3.3 3.3 2 5.3-1.5 2.2-5 2.7-7.4 3.4q-14.4 3.1-29 5c16.7-.3 33.9-1.8 50.5-.3 1.4.3 3.2.3 4.4 1.2q.4 1.7-.1 3.2c-1.4 1.1-3 .7-4.6.8-24.9-1.2-49.2 1.1-74 2.4-4 .3-8 .7-12 .2-2.6-.2-3.4-4-1.5-5.5 2.3-1.6 5.6-2 8.3-2.7 17.5-3.5 35.2-5.5 52.7-9-10.8-1-21.7-1.1-32.5-1.2-27.7-.5-55.4-.2-83-.5-1.4-.2-3.7-.3-3.7-2-1-1.6 1.3-3.6 2.9-3.6m158.6 33.3 3.3-.2c1.6 3.8 2.5 7.7 3.8 11.6 6 18 16.3 34.7 29.3 48.6a96 96 0 0 0 22.2 17.9c1.8 1.2 3.9 1.8 3.9 4.3-.6 3-3.2 2-5.5 2.3q-1.1 23.9-6.6 47.2c-1.1 3.8-1.5 8.9-4.6 11.6l-3.2-1.9c-.2-2.3.4-4.5 1-6.7 3.3-11.1 5-22.9 6.8-34.3.7-6.6 1.5-13.4 1.1-20q-9.3-6.3-17.2-14.3a140 140 0 0 1-34.2-57.8c-.7-3-2-5.4-.1-8.3m86.9 123.5c1.7 1.7-.2 2.9-1.2 4.2a78 78 0 0 0-27.8 19.3c-2.5 2.3-4.1 5.1-8 4.9L590 446q.4-2 1.7-3.4a98 98 0 0 1 32.6-23.5c1.5-.4 2.8-.9 3.9.6m-14 18.3c2.5-1 4.4.7 3.5 3.4-2.7 2.4-6 4-8.8 6.3q-7.6 6.4-14 14a31 31 0 0 1-5.4 4.5l-2.3-2.7c0-2.3 2.3-4.2 3.6-5.9 6.8-7 14.5-15.2 23.4-19.6" fill="black"/><path d="M445 212q24.1.9 48 5.3a278 278 0 0 1 42.4 10.3c4.8 1.6 9.3 4 14.1 5.5q5.8 2.1 10.6 5.7c7.3 5.8 14.7 10 20.1 18q6.5 9.4 5.3 20.8l.8 2c4.5 1.4 8.8 2.2 12.8 4.4 7 3.6 12.7 9.2 17.6 15.3q9.3 12.3 15.4 26.6c12.4 29 18 61.4 19.4 92.7q-9.6-.1-18.4 3.4l-6 1.9c1-1.3 2.9-2.5 1.1-4.2-1-1.5-2.3-1-3.8-.6a98 98 0 0 0-32.6 23.5c-1 1-1.3 2.1-1.7 3.4q-1.6-3.2-3-6.5c3.1-2.7 3.6-7.8 4.7-11.6 3.6-15.4 6-31.4 6.6-47.2 2.3-.3 4.9.7 5.5-2.2 0-2.6-2-3.2-3.9-4.4a96 96 0 0 1-22.2-17.9 134 134 0 0 1-29.3-48.6c-1.3-4-2.2-7.8-3.8-11.6-1.6-4.4-2-9.4-3.2-14a68 68 0 0 0-15.6-2.4c-16.6-1.5-33.8 0-50.5.4q14.6-2 29-5.1c2.4-.7 5.9-1.2 7.4-3.4 1.3-2 .2-4.4-2-5.3a54 54 0 0 0-14.2-2c-11.7-.4-23.3-1.3-35-1-20-.3-39.9-.1-59.8-.3 13.2-2 26.1-5.6 39.3-7.7 9.6-1.6 19.2-3.7 28.9-5.2a494 494 0 0 1 34.6.8q7 .8 14 1l1.6-2.7c-1-1.2-1.6-2.5-3.4-2.7-6.8-1.5-14.2-1.2-21.2-1.6-13.3-.9-26.7-.6-40-.5-7.4-.1-14.7.7-22 .7-8.4.2-16.8 1.3-25.2 1.8a690 690 0 0 0-95.3 15.3q7.4-2.7 14.7-5.6 42-15.9 86-25c2.3-.6 5.7-.8 7-3.2.8-2.6-.6-4-3.1-4.2-17-.6-33.4.9-50 2.2a462 462 0 0 0-49.6 7.3l-12.7 2.5q14.2-5.7 28.7-10c5.8-.9 11.1-2.8 16.7-4.2q12.1-3.3 24.6-5.6c23.2-4.5 47-5.6 70.5-4.4" fill="#1f1714"/></g><clipPath id="clip-b15ad0e3"><rect width="762" height="762" rx="0" ry="0"/></clipPath></defs><g clip-path="url(#clip-b15ad0e3)"><use transform="translate(143.2 162.9)" href="#head-default-b15ad0e3"/><use transform="translate(154.7 340.2)" href="#eyes-variant12-b15ad0e3"/><use transform="translate(154.6 268.5)" href="#eyebrows-variant13-b15ad0e3"/><use transform="translate(232.5 456.6)" href="#mouth-variant16-b15ad0e3"/><use transform="translate(171.3 439.7)" href="#details-mustache-b15ad0e3"/><use transform="translate(-65.6 -47.4)" href="#hair-short13-b15ad0e3"/></g></svg>