<svg xmlns="http://www.w3.org/2000/svg" viewBox="0 0 64 64" fill="none" shape-rendering="auto" aria-hidden="true"><metadata xmlns:rdf="http://www.w3.org/1999/02/22-rdf-syntax-ns#" xmlns:xsi="http://www.w3.org/2001/XMLSchema-instance" xmlns:dc="http://purl.org/dc/elements/1.1/" xmlns:dcterms="http://purl.org/dc/terms/"><rdf:RDF><rdf:Description><dc:title>Personas by Draftbit</dc:title><dc:creator>Draftbit - draftbit.com</dc:creator><dc:source xsi:type="dcterms:URI">https://personas.draftbit.com/</dc:source><dcterms:license xsi:type="dcterms:URI">https://creativecommons.org/licenses/by/4.0/</dcterms:license><dc:rights>Remix of “Personas by Draftbit” (https://personas.draftbit.com/) by “Draftbit - draftbit.com”, licensed under “CC BY 4.0” (https://creativecommons.org/licenses/by/4.0/)</dc:rights></rdf:Description></rdf:RDF></metadata><defs><g id="eyes-sunglasses-efce9043"><path d="M6 3a1.5 1.5 0 1 1 0 3 1.5 1.5 0 0 1 0-3m12 0a1.5 1.5 0 1 1 0 3 1.5 1.5 0 0 1 0-3" fill="#1B0640"/><path d="M9 8H3V2h6zm12 0h-6V2h6z" fill="#1B0640" opacity=".8"/><path d="M18 0q2.5 0 5 1.05l1 .53v1.58l-1 .52v3.16A3.1 3.1 0 0 1 20 10h-4c-1.66 0-3-1.41-3-3.16V3.16h-2v3.68A3.1 3.1 0 0 1 8 10H4c-1.66 0-3-1.41-3-3.16V3.68l-1-.52V1.58l1-.53A13 13 0 0 1 6 0c2.5 0 3.5 1.05 5 1.05h2c1.5 0 2.5-1.05 5-1.05M6 2.1q-1.5 0-3 .45v4.3c0 .57.45 1.04 1 1.04h4c.55 0 1-.47 1-1.05V2.8l-.76-.27A6 6 0 0 0 6 2.11m12 0c-.82 0-1.4.13-2.24.42L15 2.8v4.05c0 .58.45 1.05 1 1.05h4c.55 0 1-.47 1-1.05v-4.3q-1.5-.44-3-.44" fill="#1B0640"/></g><g id="hair-bobBangs-efce9043"><path fill-rule="evenodd" clip-rule="evenodd" d="M36.5 23.5q-3.27-3.63-4.42-9.36A19.6 19.6 0 0 1 23 22q-7 3-14.5 1v.53q-1.11.13-2 .73V23c0-9.11 7.16-16.5 16-16.5s16 7.39 16 16.5v1.26a4.5 4.5 0 0 0-2-.73zm-9 21.31v-3.23a14 14 0 0 0 8.42-9.08H36q1.4-.02 2.5-.76V42.5a39 39 0 0 1-11 2.31m-21-2.31a39 39 0 0 0 11 2.31v-3.23a14 14 0 0 1-8.42-9.08H9q-1.4-.02-2.5-.76z" fill="#1f1714"/><path d="M22.5 6.5c-8.84 0-16 7.39-16 16.5v1.26q.89-.6 2-.73V23Q16 25 23 22a19.6 19.6 0 0 0 9.08-7.86q1.15 5.73 4.42 9.36v.03q1.11.13 2 .73V23c0-9.11-7.16-16.5-16-16.5" fill="white" opacity=".26" style="mix-blend-mode:overlay"/></g><g id="clothes-small-efce9043"><path d="M32 17.8H10v-8A11 11 0 0 1 16 0v1.8a5 5 0 0 0 10 0V0a11 11 0 0 1 6 9.8z" fill="#54d7c7"/><mask id="clothesSmall-a" style="mask-type:luminance"><path d="M32 17.8H10v-8A11 11 0 0 1 16 0v1.8a5 5 0 0 0 10 0V0a11 11 0 0 1 6 9.8z" fill="white"/></mask><g mask="url(#clothesSmall-a)"><path opacity=".14" d="M20.62 6.05 22 5.8l1.2.5L10 12.8z" fill="black"/><path d="M21-1.2h11v47H10v-33l13.34-6.58z" fill="white" opacity=".26" style="mix-blend-mode:overlay"/></g></g><g id="mouth-smirk-efce9043"><path d="M3.32 4.26a.75.75 0 1 1 .36-1.45c2.44.63 4.17.34 5.29-.8a.75.75 0 1 1 1.06 1.08C8.5 4.6 6.23 4.99 3.33 4.27" fill="#1B0640"/></g><g id="nose-wrinkles-efce9043"><path opacity=".12" d="m3.4.8-.12.24q-.32 1.12-.2 1.97-.5.8-.87 1.48Q1.54 5.76.97 7.41a.5.5 0 0 1-.94-.32A21 21 0 0 1 3.39.8m7.2-.02.1.1q1.27 1.8 2 3.14.7 1.35 1.3 3.07a.5.5 0 0 1-.96.32A20 20 0 0 0 10.93 3q.1-.85-.2-1.96a1 1 0 0 0-.14-.26" fill="black"/><path d="M4.2.53a.75.75 0 0 0-.92.51q-.3 1.12-.2 1.97C3.32 4.6 4.69 5.5 7 5.5c2.33 0 3.7-.89 3.92-2.5q.1-.85-.2-1.96a.75.75 0 1 0-1.44.42C9.8 3.29 9.2 4 7 4s-2.8-.71-2.28-2.54a.75.75 0 0 0-.5-.93" fill="black" opacity=".36" style="mix-blend-mode:overlay"/></g><clipPath id="clip-efce9043"><rect width="64" height="64" rx="0" ry="0"/></clipPath></defs><g clip-path="url(#clip-efce9043)"><path d="M37 46.08V52a5 5 0 0 1-10 0v-5.92A14 14 0 0 1 18.58 37h-.08a4.5 4.5 0 0 1-.5-8.97V27a14 14 0 1 1 28 0v1.03a4.5 4.5 0 0 1-.58 8.97A14 14 0 0 1 37 46.08" fill="#efc0a0"/><mask id="personas-a" style="mask-type:luminance"><path d="M37 46.08V52a5 5 0 0 1-10 0v-5.92A14 14 0 0 1 18.58 37h-.08a4.5 4.5 0 0 1-.5-8.97V27a14 14 0 1 1 28 0v1.03a4.5 4.5 0 0 1-.58 8.97A14 14 0 0 1 37 46.08" fill="white"/></mask><g mask="url(#personas-a)"><path d="M32 13a14 14 0 0 1 14 14v6a14 14 0 1 1-28 0v-6a14 14 0 0 1 14-14" fill="white" opacity=".36" style="mix-blend-mode:overlay"/></g><use transform="translate(20 24)" href="#eyes-sunglasses-efce9043"/><use transform="translate(9.5 4.5)" href="#hair-bobBangs-efce9043"/><use transform="translate(11 46.2)" href="#clothes-small-efce9043"/><use transform="translate(27 37.46)" href="#mouth-smirk-efce9043"/><use transform="translate(25 32.25)" href="#nose-wrinkles-efce9043"/></g></svg>