<svg xmlns="http://www.w3.org/2000/svg" viewBox="0 0 64 64" fill="none" shape-rendering="auto" aria-hidden="true"><metadata xmlns:rdf="http://www.w3.org/1999/02/22-rdf-syntax-ns#" xmlns:xsi="http://www.w3.org/2001/XMLSchema-instance" xmlns:dc="http://purl.org/dc/elements/1.1/" xmlns:dcterms="http://purl.org/dc/terms/"><rdf:RDF><rdf:Description><dc:title>Personas by Draftbit</dc:title><dc:creator>Draftbit - draftbit.com</dc:creator><dc:source xsi:type="dcterms:URI">https://personas.draftbit.com/</dc:source><dcterms:license xsi:type="dcterms:URI">https://creativecommons.org/licenses/by/4.0/</dcterms:license><dc:rights>Remix of “Personas by Draftbit” (https://personas.draftbit.com/) by “Draftbit - draftbit.com”, licensed under “CC BY 4.0” (https://creativecommons.org/licenses/by/4.0/)</dc:rights></rdf:Description></rdf:RDF></metadata><defs><g id="eyes-happy-f3ce968f"><path d="M6 3.25c1.33 0 2.28.71 2.71 2.01a.75.75 0 0 1-1.42.48c-.26-.7-.65-1-1.3-1-.69.01-1.08.3-1.3 1a.75.75 0 0 1-1.43-.48c.43-1.3 1.38-2 2.7-2.01m12.02 0c1.33 0 2.28.71 2.71 2.01a.75.75 0 0 1-1.42.48c-.23-.7-.62-1-1.3-1-.66.01-1.05.3-1.28 1a.75.75 0 0 1-1.4-.48c.43-1.3 1.38-2 2.7-2.01" fill="#1B0640"/></g><g id="hair-bobBangs-f3ce968f"><path fill-rule="evenodd" clip-rule="evenodd" d="M36.5 23.5q-3.27-3.63-4.42-9.36A19.6 19.6 0 0 1 23 22q-7 3-14.5 1v.53q-1.11.13-2 .73V23c0-9.11 7.16-16.5 16-16.5s16 7.39 16 16.5v1.26a4.5 4.5 0 0 0-2-.73zm-9 21.31v-3.23a14 14 0 0 0 8.42-9.08H36q1.4-.02 2.5-.76V42.5a39 39 0 0 1-11 2.31m-21-2.31a39 39 0 0 0 11 2.31v-3.23a14 14 0 0 1-8.42-9.08H9q-1.4-.02-2.5-.76z" fill="#0b0b0b"/><path d="M22.5 6.5c-8.84 0-16 7.39-16 16.5v1.26q.89-.6 2-.73V23Q16 25 23 22a19.6 19.6 0 0 0 9.08-7.86q1.15 5.73 4.42 9.36v.03q1.11.13 2 .73V23c0-9.11-7.16-16.5-16-16.5" fill="white" opacity=".26" style="mix-blend-mode:overlay"/></g><g id="clothes-squared-f3ce968f"><path d="M16 2.8v3a5 5 0 0 0 10 0v-3l6.65 2.05a9 9 0 0 1 6.35 8.6v4.35H3v-4.35a9 9 0 0 1 6.35-8.6z" fill="#e24553"/></g><g id="mouth-pacifier-f3ce968f"><path fill-rule="evenodd" clip-rule="evenodd" d="M2.04 0q.35 0 .69.12a6.6 6.6 0 0 0 4.54 0A2.04 2.04 0 0 1 10 2.02c0 1.4-.82 2.61-2 3.18a3 3 0 0 1-6 0 3.5 3.5 0 0 1-2-3.17C0 .9.91 0 2.04 0m1.55 5.53a1.5 1.5 0 0 0 2.82 0z" fill="#456DFF"/><path d="M5 3.53a1.5 1.5 0 0 1 1.42 2H3.58a1.5 1.5 0 0 1 1.42-2M2.04 0q.35 0 .69.12a6.6 6.6 0 0 0 4.54 0A2.04 2.04 0 0 1 10 2.02c0 1.4-.82 2.61-2 3.18v-.17a3 3 0 1 0-6 .17 3.5 3.5 0 0 1-2-3.17C0 .9.91 0 2.04 0" fill="white" fill-opacity=".3" style="mix-blend-mode:lighten"/><circle cx="5" cy="3.04" r="1.5" fill="white"/></g><g id="nose-smallRound-f3ce968f"><path d="M4.29 1.99A.75.75 0 1 1 5.7 1.5c.23.7.62 1 1.3 1 .66 0 1.05-.3 1.28-1A.75.75 0 0 1 9.7 2c-.4 1.29-1.36 2-2.69 2S4.72 3.3 4.3 2" fill="black" opacity=".36" style="mix-blend-mode:overlay"/></g><clipPath id="clip-f3ce968f"><rect width="64" height="64" rx="0" ry="0"/></clipPath></defs><g clip-path="url(#clip-f3ce968f)"><path d="M37 46.08V52a5 5 0 0 1-10 0v-5.92A14 14 0 0 1 18.58 37h-.08a4.5 4.5 0 0 1-.5-8.97V27a14 14 0 1 1 28 0v1.03a4.5 4.5 0 0 1-.58 8.97A14 14 0 0 1 37 46.08" fill="#f7d4b2"/><mask id="personas-a" style="mask-type:luminance"><path d="M37 46.08V52a5 5 0 0 1-10 0v-5.92A14 14 0 0 1 18.58 37h-.08a4.5 4.5 0 0 1-.5-8.97V27a14 14 0 1 1 28 0v1.03a4.5 4.5 0 0 1-.58 8.97A14 14 0 0 1 37 46.08" fill="white"/></mask><g mask="url(#personas-a)"><path d="M32 13a14 14 0 0 1 14 14v6a14 14 0 1 1-28 0v-6a14 14 0 0 1 14-14" fill="white" opacity=".36" style="mix-blend-mode:overlay"/></g><use transform="translate(20 24)" href="#eyes-happy-f3ce968f"/><use transform="translate(9.5 4.5)" href="#hair-bobBangs-f3ce968f"/><use transform="translate(11 46.2)" href="#clothes-squared-f3ce968f"/><use transform="translate(27 37.46)" href="#mouth-pacifier-f3ce968f"/><use transform="translate(25 32.25)" href="#nose-smallRound-f3ce968f"/></g></svg>