<svg xmlns="http://www.w3.org/2000/svg" viewBox="0 0 256 256" fill="none" shape-rendering="auto" aria-hidden="true"><metadata xmlns:rdf="http://www.w3.org/1999/02/22-rdf-syntax-ns#" xmlns:xsi="http://www.w3.org/2001/XMLSchema-instance" xmlns:dc="http://purl.org/dc/elements/1.1/" xmlns:dcterms="http://purl.org/dc/terms/"><rdf:RDF><rdf:Description><dc:title>Croodles - Doodle your face</dc:title><dc:creator>vijay verma</dc:creator><dc:source xsi:type="dcterms:URI">https://www.figma.com/community/file/966199982810283152</dc:source><dcterms:license xsi:type="dcterms:URI">https://creativecommons.org/licenses/by/4.0/</dcterms:license><dc:rights>Remix of “Croodles - Doodle your face” (https://www.figma.com/community/file/966199982810283152) by “vijay verma”, licensed under “CC BY 4.0” (https://creativecommons.org/licenses/by/4.0/)</dc:rights></rdf:Description></rdf:RDF></metadata><defs><g id="nose-variant07-4ed2d4e4"><path d="M1.5 2.2C5 2.2 9.2 8 9.6 17c.7 14.7-4.2 19.4 0 27 2.7 5 17.8 4.7 21.9-3.6 3.2-6.5-3-12-6.6-20.7-3.5-8.3-5.7-13.4-2-18.2" stroke="black" stroke-width="3" stroke-linecap="round" stroke-linejoin="round"/></g><g id="mouth-variant18-4ed2d4e4"><path d="M17.5 19c2.2-4.6 11.3-13.9 30.3-13.5" stroke="black" stroke-width="3" stroke-linecap="round" stroke-linejoin="round"/></g><g id="top-variant16-4ed2d4e4"><path d="M126 86.4c-10.5-1.5-24.5-2.5-41 20m46-22c17.5-14 44.5 4.5 48 23.5m-48.5-17.7c4 18.2 23 31.2 48 24.2" stroke="#1f1714" stroke-width="3" stroke-linecap="round" stroke-linejoin="round"/><path d="M130.5 85.7c10 12.5 28 20 45 24M78 121c10 9.4 45-4 48.3-27.6m-46.3 15c1-22.5 39-36.7 48.5-24.2m-2 5.8c-28 6.1-21 18-42.5 23" stroke="#1f1714" stroke-width="3" stroke-linecap="round" stroke-linejoin="round"/><path d="M119.8 96.4c-7 9.6-13.4 16-34.4 21.8m-7.4-5.8c-2.5-15.5-13.5-24-24.2-20.8-20.3 6.1-19.3 37.1-37.3 36.1" stroke="#1f1714" stroke-width="3" stroke-linecap="round" stroke-linejoin="round"/><path d="M77 114.4c0-6.5-4.7-16.7-18.7-19.2s-35 2-33 44 2 43.4 1.5 55" stroke="#1f1714" stroke-width="3" stroke-linecap="round" stroke-linejoin="round"/><path d="M67 108.4c-10-5-26.8 1-34 28.5-9 34.5-23.2 67.3-13.7 94.8" stroke="#1f1714" stroke-width="3" stroke-linecap="round" stroke-linejoin="round"/><path d="M76.8 118.2c-6.5-9.5-23.8-8-29 4-6.5 15-17 81-21 90" stroke="#1f1714" stroke-width="3" stroke-linecap="round" stroke-linejoin="round"/><path d="M77.3 118.7c-2.5-3-13.5-3-20.5 12s-15.5 54.5-3.5 92" stroke="#1f1714" stroke-width="3" stroke-linecap="round" stroke-linejoin="round"/><path d="M77.3 120.2c-6-8.5-19.9-3.3-25.5 8.7-7 15-9.5 78-13.5 94m143.2-116.4c0-14.5 22.4-23.4 30-11.8 9.5 14.5 14 97.3 5 129.8" stroke="#1f1714" stroke-width="3" stroke-linecap="round" stroke-linejoin="round"/><path d="M183.5 108.4c6.5-8.5 24.7-22 43.5-13.2 23.5 11 30 46 17.5 79s-17 46.2-3.5 54.2" stroke="#1f1714" stroke-width="3" stroke-linecap="round" stroke-linejoin="round"/><path d="M180 110.2c7-15.5 40.6-19.3 51 1.5 13 26 5.5 42-5 98" stroke="#1f1714" stroke-width="3" stroke-linecap="round" stroke-linejoin="round"/><path d="M182.5 110c16-9.6 46.9-12.6 60.5 16.2s5.7 70.7 0 88" stroke="#1f1714" stroke-width="3" stroke-linecap="round" stroke-linejoin="round"/><path d="M182 113.4c9-9 37.8-11.6 47 10.8 11.5 28-2 68.5 5 92.5" stroke="#1f1714" stroke-width="3" stroke-linecap="round" stroke-linejoin="round"/><path d="M181.5 112c1.5-.6 37.5-5.8 45 31.2s-3.5 65.5 2.5 81.5" stroke="#1f1714" stroke-width="3" stroke-linecap="round" stroke-linejoin="round"/><path d="M181.5 113c5.5-8.6 22.6-2.4 29 21.2s10 67.2 11 86M133 85.2c5.8-1.2 26 0 39 18.7M5.8 232.2c-2.5-3.2-6-14.6 0-35 7.5-25.5 18.5-62.5 21-70s17-24.5 31-24.5S75.5 110 77 117" stroke="#1f1714" stroke-width="3" stroke-linecap="round" stroke-linejoin="round"/><path d="M72.2 118.1c0 2.8 2.7 5.5 6.3-.4 3.9-6.2 1.9-11-.3-10.3m106.8 6.7c0 3.1-2.8 5.7-6-1.3-3.3-7.6-1.2-12.6.9-11.5" stroke="#1f1714" stroke-width="3" stroke-linecap="round" stroke-linejoin="round"/></g><g id="eyes-variant12-4ed2d4e4"><path d="M30.5 34.1c-1.8-1.7.5-4.4 2.5-3.4 2.5 1.3 3.4 4.3 1.2 6.5s-7.2.8-7.5-4.5 6.5-9.2 10-3c3.3 6.3 2.2 11.9-5.2 11.9-5.1 0-7.3-3.6-7.9-7-1-6.7 2.5-13.6 9.7-12 4.5 1 9.7 4 8.8 13.3-1 9.3-6 10.3-12.3 9.2-7.7-1.3-9.8-8.2-7.3-16m53.5 5c-1.9-1.7.4-4.4 2.4-3.4 2.5 1.3 3.4 4.3 1.2 6.5-2.1 2.2-7.1.8-7.5-4.5-.3-5.3 6.5-9.2 10-3 3.3 6.3 2.2 11.9-5.2 11.9-5.1 0-7.3-3.6-7.8-7-1-6.7 2.4-13.6 9.7-12 4.4 1 9.6 4 8.7 13.3s-6 10.3-12.3 9.2c-7.7-1.3-9.8-8.2-7.3-16M27.3 14.4c3 2.2 8.8 2.6 12 1m30.4-.1c3.6 1 9.2-.3 11.8-2.8" stroke="black" stroke-width="3" stroke-linecap="round" stroke-linejoin="round"/></g><g id="head-variant08-4ed2d4e4"><path d="M75.2 127a46 46 0 0 1 7.2-17c3-5 9-9.5 16.4-13a90 90 0 0 1 26.4-7.7c19-2.5 40.2.5 53.5 14l.6.4c7.8 7.5 9.5 18.5 9.2 30.3v1.3q2.4.4 4.8 3.2c1.8 2.4 2.8 6.3 1.8 12a21 21 0 0 1-2.9 8.1l-.8 1.5q-1.1 2.3-2.7 3.8a4 4 0 0 1-3 .9l-.5 6.4c-2.2 37-4.7 59.8-22.1 79.2-16.9 18.7-43.6 13.3-57 0-10.7-10.7-28.5-33-32-83.4-1.9.3-3.7-1-5-3q-2.4-3.4-4.1-11.8-1.3-8.2 1.5-12a8 8 0 0 1 6.8-3.4h.5q.5-5.6 1.4-9.8" fill="#efc0a0"/><path d="M188 135.7c2.2 0 8.2 2.7 6.3 13.8-.9 4.9-2 6-3.7 9.2-1.5 2.8-2.7 4.9-5.5 3.6m-113.2-25c-3.8 0-9 3.2-7 13.8 2.2 11.4 5.6 14.4 7.9 13.7" stroke="black" stroke-width="3" stroke-linecap="round" stroke-linejoin="round"/><path d="M83.7 108c-7.2 10.3-11.8 19.4-9.5 56.5 3.2 51.9 21.4 74.5 32.2 85.2 13.1 13 39.3 18 55.7 0 17.3-19.2 19.8-41.8 22-79.2 1.5-24.9 9.4-52.8-5.4-67" stroke="black" stroke-width="3" stroke-linecap="round" stroke-linejoin="round"/><use transform="translate(119 165)" href="#nose-variant07-4ed2d4e4"/><use transform="translate(104 228)" href="#mouth-variant18-4ed2d4e4"/><use transform="translate(3)" href="#top-variant16-4ed2d4e4"/><use transform="translate(76 124)" href="#eyes-variant12-4ed2d4e4"/></g><clipPath id="clip-4ed2d4e4"><rect width="256" height="256" rx="0" ry="0"/></clipPath></defs><g clip-path="url(#clip-4ed2d4e4)"><use transform="translate(-1.5 -33.5)" href="#head-variant08-4ed2d4e4"/></g></svg>