<svg xmlns="http://www.w3.org/2000/svg" viewBox="0 0 256 256" fill="none" shape-rendering="auto" aria-hidden="true"><metadata xmlns:rdf="http://www.w3.org/1999/02/22-rdf-syntax-ns#" xmlns:xsi="http://www.w3.org/2001/XMLSchema-instance" xmlns:dc="http://purl.org/dc/elements/1.1/" xmlns:dcterms="http://purl.org/dc/terms/"><rdf:RDF><rdf:Description><dc:title>Croodles - Doodle your face</dc:title><dc:creator>vijay verma</dc:creator><dc:source xsi:type="dcterms:URI">https://www.figma.com/community/file/966199982810283152</dc:source><dcterms:license xsi:type="dcterms:URI">https://creativecommons.org/licenses/by/4.0/</dcterms:license><dc:rights>Remix of “Croodles - Doodle your face” (https://www.figma.com/community/file/966199982810283152) by “vijay verma”, licensed under “CC BY 4.0” (https://creativecommons.org/licenses/by/4.0/)</dc:rights></rdf:Description></rdf:RDF></metadata><defs><g id="nose-variant05-4fd2d677"><path d="M20.3 7.5c2.7 8 7.6 25.3 5.8 29.4-2.1 5-5.4-2.3-5.4 3.5-1 2.8-3.8 3.2-5.1-1.6-1.3-4.7-5.2 3.5-6.5 1.6-3.6-1.6-.7-7.1 1.2-8.9" stroke="black" stroke-width="3" stroke-linecap="round" stroke-linejoin="round"/></g><g id="mouth-variant04-4fd2d677"><path d="M31.5 9.4c-7.2 0-14-1-17-1.9 1 2.6 6.4 8.3 17 8.3 12 0 16.5-5.5 18.3-8.3-6 1.8-11 2-18.3 2" stroke="black" stroke-width="3" stroke-linecap="round" stroke-linejoin="round"/></g><g id="top-variant02-4fd2d677"><path d="M68 136.8c-2.3-5-6-6.9-7.5-7.2l11.5-2.8-11.5-7.7 13.3 2.1L62.4 111l13.2 4.6-13.8-12 16.7 6.7-15.6-15.5 17.9 8.9S61.8 81.5 62.9 80c1.2-1.4 20.8 14.7 20.8 14.7S69.3 76.5 70.4 75.4c1.2-1.1 16.1 13.8 16.1 13.8s-13.2-20.5-11-21c2.4-.6 16.2 17.7 16.2 17.7s-12-27.1-9.8-27.1c2.3 0 14.5 22.7 14.5 22.7l-5.6-24.2L104.4 80s-6.3-29.5-4.6-29.5S113 80 113 80s0-26.6 2.4-26.6 6.4 28 6.4 28 4.7-28 6.4-28 6.4 29 8.7 29c0 0 1.4-27.7 3.3-27.6 2 .1 2 31 4 31 0 0 2.6-26.1 4.6-26 2 0 3.7 31.9 3.7 31.9s7-23.5 8.7-23c1.8.6-2.3 25 0 25 0 0 6.4-21.8 8.1-20.9s-2.9 23.6-2.9 23.6 8-20 9.8-18.8c1.8 1-5.2 22.7-5.2 22.7s9.8-16 11-14.4-4 18.8-4 18.8 5.7-4.4 6.9-2.8c1.1 1.7-3 15-3 15l5.9-3.4a30 30 0 0 0-3 15" stroke="#1f1714" stroke-width="3" stroke-linecap="round" stroke-linejoin="round"/></g><g id="eyes-variant16-4fd2d677"><path d="M28 39.8c-5.1.3-8.2-4-9.2-6 5.7-5.2 14.2-2.3 17.8-.3-.7 2-3.4 6-8.6 6.3" stroke="black" stroke-width="3" stroke-linecap="round" stroke-linejoin="round"/><path d="M26 35.7c.9.5 2.8 1.1 4-.8 1.7-2.4-2.3-5-3.6-3.8-1 1-.6 2.4-.2 3m62-.4c1-.4 2.6-1.8 1.6-4-1.2-2.8-5.8-.8-5.5 1 .3 1.5 1.9 2 2.6 2" stroke="black" stroke-width="3" stroke-linecap="round" stroke-linejoin="round"/><path d="M88.2 37.3c-5 1.2-9-2.8-9.8-5.5 4.6-6 15-3.5 17.6-1.3-.4 2-2.8 5.7-7.8 6.8M14.8 19.4c5.5-1 18.3-1.4 25.2 5.2m33-.4c3.4-5.4 14.3-11.2 22.1-7.6" stroke="black" stroke-width="3" stroke-linecap="round" stroke-linejoin="round"/></g><g id="head-variant08-4fd2d677"><path d="M75.2 127a46 46 0 0 1 7.2-17c3-5 9-9.5 16.4-13a90 90 0 0 1 26.4-7.7c19-2.5 40.2.5 53.5 14l.6.4c7.8 7.5 9.5 18.5 9.2 30.3v1.3q2.4.4 4.8 3.2c1.8 2.4 2.8 6.3 1.8 12a21 21 0 0 1-2.9 8.1l-.8 1.5q-1.1 2.3-2.7 3.8a4 4 0 0 1-3 .9l-.5 6.4c-2.2 37-4.7 59.8-22.1 79.2-16.9 18.7-43.6 13.3-57 0-10.7-10.7-28.5-33-32-83.4-1.9.3-3.7-1-5-3q-2.4-3.4-4.1-11.8-1.3-8.2 1.5-12a8 8 0 0 1 6.8-3.4h.5q.5-5.6 1.4-9.8" fill="#e8ad8b"/><path d="M188 135.7c2.2 0 8.2 2.7 6.3 13.8-.9 4.9-2 6-3.7 9.2-1.5 2.8-2.7 4.9-5.5 3.6m-113.2-25c-3.8 0-9 3.2-7 13.8 2.2 11.4 5.6 14.4 7.9 13.7" stroke="black" stroke-width="3" stroke-linecap="round" stroke-linejoin="round"/><path d="M83.7 108c-7.2 10.3-11.8 19.4-9.5 56.5 3.2 51.9 21.4 74.5 32.2 85.2 13.1 13 39.3 18 55.7 0 17.3-19.2 19.8-41.8 22-79.2 1.5-24.9 9.4-52.8-5.4-67" stroke="black" stroke-width="3" stroke-linecap="round" stroke-linejoin="round"/><use transform="translate(119 165)" href="#nose-variant05-4fd2d677"/><use transform="translate(104 228)" href="#mouth-variant04-4fd2d677"/><use transform="translate(3)" href="#top-variant02-4fd2d677"/><use transform="translate(76 124)" href="#eyes-variant16-4fd2d677"/></g><clipPath id="clip-4fd2d677"><rect width="256" height="256" rx="0" ry="0"/></clipPath></defs><g clip-path="url(#clip-4fd2d677)"><use transform="translate(-1.5 -33.5)" href="#head-variant08-4fd2d677"/></g></svg>