<svg xmlns="http://www.w3.org/2000/svg" viewBox="0 0 256 256" fill="none" shape-rendering="auto" aria-hidden="true"><metadata xmlns:rdf="http://www.w3.org/1999/02/22-rdf-syntax-ns#" xmlns:xsi="http://www.w3.org/2001/XMLSchema-instance" xmlns:dc="http://purl.org/dc/elements/1.1/" xmlns:dcterms="http://purl.org/dc/terms/"><rdf:RDF><rdf:Description><dc:title>Croodles - Doodle your face</dc:title><dc:creator>vijay verma</dc:creator><dc:source xsi:type="dcterms:URI">https://www.figma.com/community/file/966199982810283152</dc:source><dcterms:license xsi:type="dcterms:URI">https://creativecommons.org/licenses/by/4.0/</dcterms:license><dc:rights>Remix of “Croodles - Doodle your face” (https://www.figma.com/community/file/966199982810283152) by “vijay verma”, licensed under “CC BY 4.0” (https://creativecommons.org/licenses/by/4.0/)</dc:rights></rdf:Description></rdf:RDF></metadata><defs><g id="nose-variant05-46d2c84c"><path d="M20.3 7.5c2.7 8 7.6 25.3 5.8 29.4-2.1 5-5.4-2.3-5.4 3.5-1 2.8-3.8 3.2-5.1-1.6-1.3-4.7-5.2 3.5-6.5 1.6-3.6-1.6-.7-7.1 1.2-8.9" stroke="black" stroke-width="3" stroke-linecap="round" stroke-linejoin="round"/></g><g id="mouth-variant18-46d2c84c"><path d="M17.5 19c2.2-4.6 11.3-13.9 30.3-13.5" stroke="black" stroke-width="3" stroke-linecap="round" stroke-linejoin="round"/></g><g id="top-variant21-46d2c84c"><path d="M114.9 27.5C104 32.6 82.3 48.9 81 72.6c-1.5 29.7-6.6 42.6-1.2 47.8s21.9-10.7 48-6.2c26 4.6 44.9 5.9 48.7 0 3.8-5.8 2.7-51.9-3.4-64.1-6.1-12.3-23.3-22-38.6-22.6" stroke="#0b0b0b" stroke-width="3" stroke-linecap="round" stroke-linejoin="round"/><path d="M78.5 105.9c25.7-3.9 81.7-9.2 99.3 0m-59.1-76.1C112.1 37.4 98 55.5 95 67c-3 11.4-3 29.5-3.2 35.6m32.5-73.3c-6.6 7.6-8.5 23.8-11.6 35.2s-2.7 30-3 36" stroke="#0b0b0b" stroke-width="3" stroke-linecap="round" stroke-linejoin="round"/><path d="M134 27.9c9.7 4.9 12.8 25 14.2 36.8a338 338 0 0 1 2.6 36.3m-22-72.6c4.4 2.4 3.1 14 1.3 32a113 113 0 0 0 1.5 40.1M111.5 13c2.9 1.4 8.4 6.6 10.9 9-2-4-4.2-21 3.6-20.5 7.7.5 4.4 13.6 2.6 18.9 2.2-2.5 8.8-9.4 11.3-7.4 3 2.4 1.8 12.2-9.3 14.5-4.1.8-8.2 2.4-14.3 0q-9-3.6-12.7-9.7c-2.4-4.2 4.3-6.6 7.9-4.8" stroke="#0b0b0b" stroke-width="3" stroke-linecap="round" stroke-linejoin="round"/></g><g id="eyes-variant11-46d2c84c"><path d="M32.8 25.9a1.5 1.5 0 0 1 1.5 1.6l.5.1a7 7 0 0 1 3 3.7 12 12 0 0 1 .8 6.9 5 5 0 0 1-2.3 3.6q-1.7 1-3.5 1.1a14 14 0 0 1-5.5-.6c-.7-.4-2-1.2-3-2.7a9 9 0 0 1-1-6.9 8 8 0 0 1 4.2-5.4c1.8-1 4-1.3 5.3-1.4m-4.5 10-.1.3.2.2zm3.1-4.2a1.5 1.5 0 0 0-2.8.1l-.4.2a2 2 0 0 0-.9 1 2 2 0 0 0 0 1.5 2 2 0 0 0 2.3 1.4q1.2 0 2-1.3.4-.7.3-1.2l-.4-1.5zm-.2 2.6V34l.1-.2zM27 31.5a4 4 0 0 0-.9 2.1l.4-1zM82 24a1.5 1.5 0 0 1 1.5 1.6l.5.1a7 7 0 0 1 3 3.6 12 12 0 0 1 .8 7 5 5 0 0 1-2.3 3.5q-1.7 1-3.5 1.2a14 14 0 0 1-5.5-.6c-.7-.4-2-1.2-3-2.8a9 9 0 0 1-1-6.8 8 8 0 0 1 4.2-5.4c1.8-1 3.9-1.4 5.2-1.4m.9 10.3a1.5 1.5 0 1 0 0 3 1.5 1.5 0 0 0 0-3m-5.4-.3-.2.3.3.2zm3.1-4.3a1.5 1.5 0 0 0-2.8.2l-.4.2a2 2 0 0 0-.9 1 2 2 0 0 0 0 1.5 2 2 0 0 0 2.3 1.4q1.2 0 2-1.3.4-.8.3-1.2l-.4-1.5zm-.2 2.6v-.2l.1-.2zM76 29.6a4 4 0 0 0-.8 2.1l.4-1q0-.6.4-1" fill="black"/><path d="M25 20.3c1-1.3 3.8-3.4 6-2m44.4-1.8c1.1-1.3 4.3-1.4 4.8 0" stroke="black" stroke-width="3" stroke-linecap="round" stroke-linejoin="round"/></g><g id="head-variant08-46d2c84c"><path d="M75.2 127a46 46 0 0 1 7.2-17c3-5 9-9.5 16.4-13a90 90 0 0 1 26.4-7.7c19-2.5 40.2.5 53.5 14l.6.4c7.8 7.5 9.5 18.5 9.2 30.3v1.3q2.4.4 4.8 3.2c1.8 2.4 2.8 6.3 1.8 12a21 21 0 0 1-2.9 8.1l-.8 1.5q-1.1 2.3-2.7 3.8a4 4 0 0 1-3 .9l-.5 6.4c-2.2 37-4.7 59.8-22.1 79.2-16.9 18.7-43.6 13.3-57 0-10.7-10.7-28.5-33-32-83.4-1.9.3-3.7-1-5-3q-2.4-3.4-4.1-11.8-1.3-8.2 1.5-12a8 8 0 0 1 6.8-3.4h.5q.5-5.6 1.4-9.8" fill="#efc0a0"/><path d="M188 135.7c2.2 0 8.2 2.7 6.3 13.8-.9 4.9-2 6-3.7 9.2-1.5 2.8-2.7 4.9-5.5 3.6m-113.2-25c-3.8 0-9 3.2-7 13.8 2.2 11.4 5.6 14.4 7.9 13.7" stroke="black" stroke-width="3" stroke-linecap="round" stroke-linejoin="round"/><path d="M83.7 108c-7.2 10.3-11.8 19.4-9.5 56.5 3.2 51.9 21.4 74.5 32.2 85.2 13.1 13 39.3 18 55.7 0 17.3-19.2 19.8-41.8 22-79.2 1.5-24.9 9.4-52.8-5.4-67" stroke="black" stroke-width="3" stroke-linecap="round" stroke-linejoin="round"/><use transform="translate(119 165)" href="#nose-variant05-46d2c84c"/><use transform="translate(104 228)" href="#mouth-variant18-46d2c84c"/><use transform="translate(3)" href="#top-variant21-46d2c84c"/><use transform="translate(76 124)" href="#eyes-variant11-46d2c84c"/></g><clipPath id="clip-46d2c84c"><rect width="256" height="256" rx="0" ry="0"/></clipPath></defs><g clip-path="url(#clip-46d2c84c)"><use transform="translate(-1.5 -33.5)" href="#head-variant08-46d2c84c"/></g></svg>