<svg xmlns="http://www.w3.org/2000/svg" viewBox="0 0 256 256" fill="none" shape-rendering="auto" aria-hidden="true"><metadata xmlns:rdf="http://www.w3.org/1999/02/22-rdf-syntax-ns#" xmlns:xsi="http://www.w3.org/2001/XMLSchema-instance" xmlns:dc="http://purl.org/dc/elements/1.1/" xmlns:dcterms="http://purl.org/dc/terms/"><rdf:RDF><rdf:Description><dc:title>Croodles - Doodle your face</dc:title><dc:creator>vijay verma</dc:creator><dc:source xsi:type="dcterms:URI">https://www.figma.com/community/file/966199982810283152</dc:source><dcterms:license xsi:type="dcterms:URI">https://creativecommons.org/licenses/by/4.0/</dcterms:license><dc:rights>Remix of “Croodles - Doodle your face” (https://www.figma.com/community/file/966199982810283152) by “vijay verma”, licensed under “CC BY 4.0” (https://creativecommons.org/licenses/by/4.0/)</dc:rights></rdf:Description></rdf:RDF></metadata><defs><g id="nose-variant03-42d2c200"><path d="M12.5 43.3c3.7 0 8.5-1.5 9.2-6 .6-3.7-5.6-3.1-7.3-7.4a70 70 0 0 1 0-23.4" stroke="black" stroke-width="3" stroke-linecap="round" stroke-linejoin="round"/></g><g id="mouth-variant13-42d2c200"><path d="M19.7 21c-.5.5-3-7.1-4.1-11l7.4 1.2zm27.2-1.1c-.7.3-3-6-4.3-10l6-2c-1 3.1-.6 11.6-1.7 12" stroke="black" stroke-width="3" stroke-linecap="round" stroke-linejoin="round"/><path d="M10.5 4.2c3 6.2 12.4 7.7 24 6.4 10.3-1.1 16.3-4.4 19.3-8" stroke="black" stroke-width="3" stroke-linecap="round" stroke-linejoin="round"/></g><g id="top-variant09-42d2c200"><path d="M92.9 103.6c5-3.3 18.6-14.8 21.9-17M71.7 111c4-4.4 14.6-18.8 17.3-21.7m-9.3 18.1a242 242 0 0 1 17-18M88 103a120 120 0 0 0 12-11m3.8-8.2c5-.5 9.4-6 11.5-8.7m57.6 29.1c7-.6 16.2-6.3 19-7.1M65.5 108.7c2.7-3.3 9.3-8.2 10.4-12m25.2 5.3c6.4-5.4 19.7-16.3 22-17.6m-13.8 15.9c4.8-3.5 15.5-11.4 20.3-15.4M115.9 101 135 85c2.2-1.6-9.9 11-13.2 14.9m6.2-.7c4.1-3.9 13-12 15.3-13.7M135.6 97c4.4-3.9 13.7-12 15.9-14.3m-8.8 13.2c3.7-3.5 11.8-11 14.8-13.2M147 97.2c2.8-2.3 10.8-8 20.4-12.5m-12.1 12.8c3.5-2.7 12-8.8 18.7-11.5m-11.5 11c1.4-1.5 6.2-5.3 13.6-8.8M69.3 97c3.9-2.2 6-4.4 7.2-16m15.3-3.7c-5.5 3.8-8.2 3.8-12 6m-.1 10.4A22 22 0 0 1 94 83.8m22.4-12.6c-2 .4-6.9 2.1-10.4 6m84.4 5.5a18 18 0 0 0-5.6 8m8.9.8a18 18 0 0 0-8.8 4.4M181 93c-1 .8-3.2 3.1-4.1 6M125 68.6c-1.6 1.1-5.6 4.8-2.4 12.4M134 70.7c-2 .4-7.2 2.2-7.2 10.4M141 81c4.8-2 14.9-7.7 17-12.5M136.7 81c4.4-4.3 10.4-7.6 15.9-12m-21.4 12.7c3.9-3.3 7.2-8.3 10.4-12.7m21.9 3.9-11.5 5m22-2.9c-.5 0-9.7 6.6-14.3 10m11.2-2.3c3.6-1.2 9.5-2.7 12.2-3.2m-13 17.5a89 89 0 0 0 11.5-11m-86-11c0-.8 1-2.7 5-2.7m68.6-1.1c.4.9-1.8 4.4-9 8.3m-59.1 8.7a70 70 0 0 0 15.9-6.6m-12-10.9a40 40 0 0 1-8.3 14.8" stroke="#1f1714" stroke-width="3" stroke-linecap="round" stroke-linejoin="round"/></g><g id="eyes-variant10-42d2c200"><path d="M18 38.3c2-3.1 9-8.4 19-4" stroke="black" stroke-width="3" stroke-linecap="round" stroke-linejoin="round"/><path d="M26.4 33.8c-1 .5-2.7 2.1-1.5 4.5 1.5 3 6.5.5 6-1.5-.4-1.6-2.1-2-3-2M14.5 23.1c4.8-1.7 16.2-3.6 23 2.3M69 23.1c4.7-1.7 16-3.6 22.9 2.3" stroke="black" stroke-width="3" stroke-linecap="round" stroke-linejoin="round"/><path d="M65.4 26.6c6.5-.9 24.4 1.5 27 3.1 3 1.8 3.6 15.2 1.3 21.6-1.2 3.2-13.3 6.7-23.8 0-7.5-4.7-5.9-18.8-5-23.7" stroke="#000000" stroke-width="3" stroke-linecap="round" stroke-linejoin="round"/><path d="M68 29.6c-.6 1.8-1.7 8.4-2.4 10.7l5-10.2c-.7 3.2-3.5 14.2-3.3 15.2.3 1.2 5.9-15.3 6.5-15.2.6 0-4.4 16.9-4.4 17.9s5.8-17.2 6.7-17.2-4.4 17.9-3.8 18.8 5.2-17.3 6-18.2-4.6 20.2-3.8 20.1 6.1-21 6.9-19c.7 2-5.1 22-3.2 20.3 2-1.6 5.6-21.8 7-20.3S80.8 53.3 82 52.8s5.5-19.4 6.1-19.4-2.4 20.8-1.8 19.4l5-19.4c.3-1.2 0 3 0 6.9-.1 3-2.2 10.5-2.5 12.5l4.4-14.6c0 2.3 0 7.6-.3 10.1q-.6 3.7-1 4M3.5 1.5a254 254 0 0 0 58.6 26c3 .8 28 4.5 32 2.3 3.3-1.7 11.2-14 13-16" stroke="#000000" stroke-width="3" stroke-linecap="round" stroke-linejoin="round"/></g><g id="head-variant06-42d2c200"><path d="M175.7 136.7q.6.7.3 1.5.4.2.7.6 3.5 6.9 6.4 15.5l.7-.2 1.7-.7q1.5-.5 3.3-.7t3.5.9 2.2 3.5c1.3 5.7 1.3 9.3 0 15.2a7 7 0 0 1-2.1 4q-1.5 1-3 1.1a160 160 0 0 1 2.6 21.4q0 4-.4 7-.6 3-1.9 5a39 39 0 0 1-18.6 10.3 151 151 0 0 1-59.5 4.1 62 62 0 0 1-24-7.5c-4.3-2.7-7.3-8-9.4-14.3a92 92 0 0 1-4.1-22.5c-3.3 0-7.4-3.2-9.8-11.2q-2-7.2 1.1-11.2c2.2-2.4 5.7-2.8 9.5-1.7q1.2-8.9 4.1-14l.5-.4a38 38 0 0 1 16.2-12.6 91 91 0 0 1 26.2-7.5c19.2-2.5 40.6.5 53.8 14.4" fill="#efc0a0"/><path d="M176.3 138.5c11.3 21.8 19.2 65 13.4 72.3-13.2 16.7-79.2 21.7-102.3 6.9-15.5-10-16.5-61.2-8.3-75m105.4 12.5c3-1 8.5-3.8 9.8 1.8s1.3 9 0 15c-.7 3-2.3 4-4.3 4" stroke="black" stroke-width="3" stroke-linecap="round" stroke-linejoin="round"/><path d="M73.7 157.8c-7.6-2.4-12.1 2-9.4 11.4 2.6 9 7 10.8 9.4 10.3" stroke="black" stroke-width="3" stroke-linecap="round" stroke-linejoin="round"/><use transform="translate(114 156)" href="#nose-variant03-42d2c200"/><use transform="translate(102 202)" href="#mouth-variant13-42d2c200"/><use transform="translate(0 33)" href="#top-variant09-42d2c200"/><use transform="translate(75 138)" href="#eyes-variant10-42d2c200"/></g><clipPath id="clip-42d2c200"><rect width="256" height="256" rx="0" ry="0"/></clipPath></defs><g clip-path="url(#clip-42d2c200)"><use transform="translate(-1.5 -33.5)" href="#head-variant06-42d2c200"/></g></svg>