<svg xmlns="http://www.w3.org/2000/svg" viewBox="0 0 256 256" fill="none" shape-rendering="auto" aria-hidden="true"><metadata xmlns:rdf="http://www.w3.org/1999/02/22-rdf-syntax-ns#" xmlns:xsi="http://www.w3.org/2001/XMLSchema-instance" xmlns:dc="http://purl.org/dc/elements/1.1/" xmlns:dcterms="http://purl.org/dc/terms/"><rdf:RDF><rdf:Description><dc:title>Croodles - Doodle your face</dc:title><dc:creator>vijay verma</dc:creator><dc:source xsi:type="dcterms:URI">https://www.figma.com/community/file/966199982810283152</dc:source><dcterms:license xsi:type="dcterms:URI">https://creativecommons.org/licenses/by/4.0/</dcterms:license><dc:rights>Remix of “Croodles - Doodle your face” (https://www.figma.com/community/file/966199982810283152) by “vijay verma”, licensed under “CC BY 4.0” (https://creativecommons.org/licenses/by/4.0/)</dc:rights></rdf:Description></rdf:RDF></metadata><defs><g id="nose-variant07-41d081d6"><path d="M1.5 2.2C5 2.2 9.2 8 9.6 17c.7 14.7-4.2 19.4 0 27 2.7 5 17.8 4.7 21.9-3.6 3.2-6.5-3-12-6.6-20.7-3.5-8.3-5.7-13.4-2-18.2" stroke="black" stroke-width="3" stroke-linecap="round" stroke-linejoin="round"/></g><g id="mouth-variant07-41d081d6"><path d="M9.5 5.1c2.4 4 6.6 15.1 22.7 15.1S54.5 6 55.2 4.5" stroke="black" stroke-width="3" stroke-linecap="round" stroke-linejoin="round"/></g><g id="top-variant20-41d081d6"><path d="M72.8 93.8c-2.3-26.4-1-75.3 18.6-67.5 24.6 9.9 31 24.6 45.6 20.4 14.8-4.2 33-28 39.3-12 6.3 16.2 0 49.8-2.6 55.7" stroke="#1f1714" stroke-width="3" stroke-linecap="round" stroke-linejoin="round"/><path d="M58.2 109c-3-.5-2.9-5.8-2.5-8.3 15-14 93.6-12.2 131-9.5 3.8 1.8 11 6.8 10 11.5q-2 8.8-18.9 1.7c-11.2-4.6-77 3.3-99.5 2-22.4-1.4-16.5 3.3-20.1 2.6" stroke="#1f1714" stroke-width="3" stroke-linecap="round" stroke-linejoin="round"/></g><g id="eyes-variant05-41d081d6"><path d="M27.7 22c2.6 2 7.7 6 8.2 8 .4 1.8-8.8 5.2-13.4 6.7m64.4-16.2c-3.6 1.3-10.5 4.3-9.7 6 1 2.1 6.9 3.7 9.7 5.8" stroke="black" stroke-width="3" stroke-linecap="round" stroke-linejoin="round"/></g><g id="head-variant04-41d081d6"><path d="M75.4 135.5a57 57 0 0 1 5-14.8c2.8-4.9 8.7-9.3 16.2-12.8a90 90 0 0 1 26.2-7.6c19-2.5 40.4.5 53.6 14.5q.4.5.3 1.2 3.2 6.1 6.3 16.8 2-.9 4.6-.7c2 0 4 .9 5.2 3 2 3.6 2.2 9.1.7 15.4a7 7 0 0 1-3 4.7q-1.3.7-2.5 1 1.8 11.8 2.5 24.3c.5 13.2-.3 26.3-3.3 37.3s-8.4 20-17 24.7a79 79 0 0 1-56 8A51 51 0 0 1 77 219a161 161 0 0 1-5.1-49.6l.3-8.4a5 5 0 0 1-4.9-2.1 17 17 0 0 1-2.6-8.2q-1-8.6 2.3-12.8a7 7 0 0 1 4-2.7q2.2-.5 4.4.3" fill="#dda37a"/><path d="M80.4 120.8c-10.4 19.4-10.8 77.8-3.2 99 11.5 32.3 56.4 43.4 93.3 23.3 33.3-18.1 18-105 6.1-127.6" stroke="black" stroke-width="3" stroke-linecap="round" stroke-linejoin="round"/><path d="M184.4 133.7c2.6-1.1 6.9-1.7 8.7 1.5 1.9 3.2 2 8.4.6 14.7-1 4-3.8 4.8-5.7 4.8M74.2 136.5c-6-2.6-10.8 2.6-9.5 13.7 1 7.8 3.4 9.6 6 9.3" stroke="black" stroke-width="3" stroke-linecap="round" stroke-linejoin="round"/><use transform="translate(117 160)" href="#nose-variant07-41d081d6"/><use transform="translate(102 222)" href="#mouth-variant07-41d081d6"/><use transform="translate(1 11)" href="#top-variant20-41d081d6"/><use transform="translate(74 119)" href="#eyes-variant05-41d081d6"/></g><clipPath id="clip-41d081d6"><rect width="256" height="256" rx="0" ry="0"/></clipPath></defs><g clip-path="url(#clip-41d081d6)"><use transform="translate(-1.5 -33.5)" href="#head-variant04-41d081d6"/></g></svg>