<svg xmlns="http://www.w3.org/2000/svg" viewBox="0 0 256 256" fill="none" shape-rendering="auto" aria-hidden="true"><metadata xmlns:rdf="http://www.w3.org/1999/02/22-rdf-syntax-ns#" xmlns:xsi="http://www.w3.org/2001/XMLSchema-instance" xmlns:dc="http://purl.org/dc/elements/1.1/" xmlns:dcterms="http://purl.org/dc/terms/"><rdf:RDF><rdf:Description><dc:title>Croodles - Doodle your face</dc:title><dc:creator>vijay verma</dc:creator><dc:source xsi:type="dcterms:URI">https://www.figma.com/community/file/966199982810283152</dc:source><dcterms:license xsi:type="dcterms:URI">https://creativecommons.org/licenses/by/4.0/</dcterms:license><dc:rights>Remix of “Croodles - Doodle your face” (https://www.figma.com/community/file/966199982810283152) by “vijay verma”, licensed under “CC BY 4.0” (https://creativecommons.org/licenses/by/4.0/)</dc:rights></rdf:Description></rdf:RDF></metadata><defs><g id="nose-variant06-49d2cd05"><path d="M23.8 4.5c-.8 5.3-1.2 16.3.3 22.3C27.7 41 22.6 44.3 21 44.3c-5.3 0-6.5-4.7-7.7-18-1.5-16.5-1.6-16.3-3.7-21" stroke="black" stroke-width="3" stroke-linecap="round" stroke-linejoin="round"/></g><g id="mouth-variant15-49d2cd05"><path d="M11.1 14c4.7 4 12.5 10.4 22.9-2 6.6-7.8 15.9.9 18.4-3.2m-44.9 8c1.6-1 4.8-3.8 5-6.7m40.3-4.6c-.1 1.9.1 6 2.2 8" stroke="black" stroke-width="3" stroke-linecap="round" stroke-linejoin="round"/></g><g id="top-variant06-49d2cd05"><path d="M84.8 99.4q-8.6-6-16.1-7.5m12.1 9.8c-3.5-1.2-6.4-1.2-13.3-1.2M89.4 97c-4-4-11.5-11-13.3-13.2m15.6 9.8a31 31 0 0 1-11-15.6m4.7-1.1a33 33 0 0 0 6.9 13.2c2.9 3.5 5.2 5.2 7 8.1M90 75.7C91 81 95.2 89 100.4 92m3.4 3.3c-5.2-4-8.6-15.5-9.2-21.9m4-3.4c0 4 0 15 6.4 19m-1.2-16.7c2 4.9 6 16.7 6 24.3m.1-12.2a42 42 0 0 1-1.2-14.4m4.3 6.9c.4 4.2 2 13.6 5.2 17.3" stroke="#33231f" stroke-width="3" stroke-linecap="round" stroke-linejoin="round"/><path d="M117.7 68.2c-.8 4.6-3 17.9-.6 24.2m2.3-12.6c1 4 4 11 8.6 13.8" stroke="#33231f" stroke-width="3" stroke-linecap="round" stroke-linejoin="round"/><path d="M124.6 89.6c-3-7-2.2-15.7-1.8-20.8m2.9 4.6c0 2.1 1.2 8.4 5.8 16.7" stroke="#33231f" stroke-width="3" stroke-linecap="round" stroke-linejoin="round"/><path d="M131.5 68.2a44 44 0 0 0 0 22m2.9-15.1a39 39 0 0 0 4.6 22m1.7-7.5c1.2-9.3-1.2-14.5-2.3-19m3.5 10.9c3.4 5.8 4 9.8 3.4 15m-1.5-19c-.6-2.2-1.4-7.3 0-11M77.3 90.7a19 19 0 0 1-7.5-4m82.9-6.5c.8-2.3 1.6-9.3 1.2-12.5m-5.1 1.1a66 66 0 0 0 1.7 26.5m4.2.2c-.4-2.4-1.1-8.1 0-11.7m3.9 9.8c-.4-3.5-1.3-15.7 2.9-20.8m1.1 22.5V79.2m9.8 1.8a25 25 0 0 0-9.8 14.3m8.1-23a17 17 0 0 0-4.6 9.2m9.8-2.3c-2 3.2-5.8 11.2-5.8 16.7M181 82.6c-3 3.5-9.4 11-10.3 13.3m13.8-1.7s-5.7 1.7-10.4 5.7" stroke="#33231f" stroke-width="3" stroke-linecap="round" stroke-linejoin="round"/></g><g id="eyes-variant12-49d2cd05"><path d="M30.5 34.1c-1.8-1.7.5-4.4 2.5-3.4 2.5 1.3 3.4 4.3 1.2 6.5s-7.2.8-7.5-4.5 6.5-9.2 10-3c3.3 6.3 2.2 11.9-5.2 11.9-5.1 0-7.3-3.6-7.9-7-1-6.7 2.5-13.6 9.7-12 4.5 1 9.7 4 8.8 13.3-1 9.3-6 10.3-12.3 9.2-7.7-1.3-9.8-8.2-7.3-16m53.5 5c-1.9-1.7.4-4.4 2.4-3.4 2.5 1.3 3.4 4.3 1.2 6.5-2.1 2.2-7.1.8-7.5-4.5-.3-5.3 6.5-9.2 10-3 3.3 6.3 2.2 11.9-5.2 11.9-5.1 0-7.3-3.6-7.8-7-1-6.7 2.4-13.6 9.7-12 4.4 1 9.6 4 8.7 13.3s-6 10.3-12.3 9.2c-7.7-1.3-9.8-8.2-7.3-16M27.3 14.4c3 2.2 8.8 2.6 12 1m30.4-.1c3.6 1 9.2-.3 11.8-2.8" stroke="black" stroke-width="3" stroke-linecap="round" stroke-linejoin="round"/></g><g id="head-variant02-49d2cd05"><path d="M123.9 108.8c18.8-2.5 39.9.4 53.1 13.9l.6.2c3 2 4.6 4.2 6 7.5q1.4 3.9 2.8 10.5c1.3.1 3.5.5 5.4 2.1 2.2 2 3.3 5.5 2.3 11.2a29 29 0 0 1-3.5 11q-1.1 2.4-3 4a5 5 0 0 1-5.2.5q-1.5 5.3-3.5 10.8a250 250 0 0 1-15 35.9 93 93 0 0 1-15.2 20.2 28 28 0 0 1-19.2 8.4 16 16 0 0 1-8.5-3.3 58 58 0 0 1-9.4-8.3 194 194 0 0 1-36.2-59.6c-1.6.5-3.8.3-5.8-1.6q-3-2.5-4.7-10.9c-2-10.9 4.2-17.2 9.2-17.2h.1q1.5-6.1 2.8-9c1.2-2.7 2.5-4.1 4-5.8l1.3-1.5c3.1-4.3 8.6-8.2 15.3-11.4a90 90 0 0 1 26.3-7.6" fill="#efc0a0"/><path d="M187 142.1c2.2 0 9 .8 7 11.9-.8 4.9-1.6 7.5-3.4 10.8-1.5 2.9-3.7 5.2-6.4 3.9M72.8 145.3c-3.8 0-10 5.4-8 16 2.3 11.3 6.6 12.2 8.8 11.5" stroke="black" stroke-width="3" stroke-linecap="round" stroke-linejoin="round"/><path d="M82 128.5c-4 4.9-5.7 4.9-9.7 25.7s38.7 91.3 57.2 91.3c14 0 24.2-12.4 33.8-28.5 6.7-11.2 26-61.3 23.4-73.3s-3.5-16.6-9-20.2" stroke="black" stroke-width="3" stroke-linecap="round" stroke-linejoin="round"/><use transform="translate(118 153)" href="#nose-variant06-49d2cd05"/><use transform="translate(101 212)" href="#mouth-variant15-49d2cd05"/><use transform="translate(2 20)" href="#top-variant06-49d2cd05"/><use transform="translate(76 127)" href="#eyes-variant12-49d2cd05"/></g><clipPath id="clip-49d2cd05"><rect width="256" height="256" rx="0" ry="0"/></clipPath></defs><g clip-path="url(#clip-49d2cd05)"><use transform="translate(-1.5 -33.5)" href="#head-variant02-49d2cd05"/></g></svg>