<svg xmlns="http://www.w3.org/2000/svg" viewBox="0 0 256 256" fill="none" shape-rendering="auto" aria-hidden="true"><metadata xmlns:rdf="http://www.w3.org/1999/02/22-rdf-syntax-ns#" xmlns:xsi="http://www.w3.org/2001/XMLSchema-instance" xmlns:dc="http://purl.org/dc/elements/1.1/" xmlns:dcterms="http://purl.org/dc/terms/"><rdf:RDF><rdf:Description><dc:title>Croodles - Doodle your face</dc:title><dc:creator>vijay verma</dc:creator><dc:source xsi:type="dcterms:URI">https://www.figma.com/community/file/966199982810283152</dc:source><dcterms:license xsi:type="dcterms:URI">https://creativecommons.org/licenses/by/4.0/</dcterms:license><dc:rights>Remix of “Croodles - Doodle your face” (https://www.figma.com/community/file/966199982810283152) by “vijay verma”, licensed under “CC BY 4.0” (https://creativecommons.org/licenses/by/4.0/)</dc:rights></rdf:Description></rdf:RDF></metadata><defs><g id="nose-variant06-48d2cb72"><path d="M23.8 4.5c-.8 5.3-1.2 16.3.3 22.3C27.7 41 22.6 44.3 21 44.3c-5.3 0-6.5-4.7-7.7-18-1.5-16.5-1.6-16.3-3.7-21" stroke="black" stroke-width="3" stroke-linecap="round" stroke-linejoin="round"/></g><g id="mouth-variant01-48d2cb72"><path d="M14.5 11.5a88 88 0 0 0 36.2 0" stroke="black" stroke-width="3" stroke-linecap="round" stroke-linejoin="round"/></g><g id="top-variant14-48d2cb72"><path d="M115 76.5c11.4-6.3 49-9 61 29.4 18 58.5 31.5 61.8 38.3 66.5" stroke="#1f1714" stroke-width="3" stroke-linecap="round" stroke-linejoin="round"/><path d="M183.5 143.5c5.4 32.3-.3 71.4 1.3 85.3 2 17.5 5.4 22.2 14.8 28.3" stroke="#1f1714" stroke-width="3" stroke-linecap="round" stroke-linejoin="round"/><path d="M168 75.5c17.5 18 12.5 37 8 117.5-2 34.9 16 48.3 20.6 50.5" stroke="#1f1714" stroke-width="3" stroke-linecap="round" stroke-linejoin="round"/><path d="M116.1 76.3c8.1-7.3 34.4-15.3 53.4 0 17.7 14.4 21.8 33.6 22.6 81.4.5 33.8 4.7 43.2 6.7 43.6M114.1 77a72 72 0 0 0-37.6 65.2c0 33 4 82-13.4 104.2" stroke="#1f1714" stroke-width="3" stroke-linecap="round" stroke-linejoin="round"/><path d="M113.2 75.5A56 56 0 0 0 71 127.2c-3.4 31.6 2 76-9.4 102.9" stroke="#1f1714" stroke-width="3" stroke-linecap="round" stroke-linejoin="round"/><path d="M45 241c-.3-10.3.2-33.7 4-45 4.6-14.2 3.4-88.7 32.2-111 17.5-13.4 33-12.7 36.3-10m0-.7c3.3-8 20.3-18 44.3-9.4 30.3 10.8 48.4 39.8 43.7 76.1-4.5 34.6-19.7 79.4-1 108" stroke="#1f1714" stroke-width="3" stroke-linecap="round" stroke-linejoin="round"/><path d="M116.1 72.3c2.7-8.3 13.2-23.4 33.6-17.5 25.6 7.4 49.8 31.6 53.1 95.5 3.4 63.8-10 86 24.2 114.9M114.8 71.6c-10.8-7.4-38.3 2-57.1 37.7-19.3 36.4-15.5 107.5-22.2 124.3" stroke="#1f1714" stroke-width="3" stroke-linecap="round" stroke-linejoin="round"/><path d="M117.5 73.7c-2.7-7-12.4-19-29.6-11.5-21.5 9.4-37 24.9-47 84.7s6 74.6-2 102.8M118.5 80a67 67 0 0 0 2.8 21.9m2.2-23.4c1.5 5.5 4.5 18.5 9.5 23m-3-24c4.5 8.5 10.2 18.9 12.3 23.7M141 77.5c7.5 3 15.5 10.5 20 17.5m-25.5-17.5c5 3 10.3 13.2 16.3 19.7m-38.3-12.8c-.3 3.6-1.8 11.8-6 16.1" stroke="#1f1714" stroke-width="3" stroke-linecap="round" stroke-linejoin="round"/><path d="M98 96.5c2-1.3 5.5-6 11-12.5m-50 87a422 422 0 0 1-2.7 46.5c-1.3 12-6 23.5-10.7 30.2" stroke="#1f1714" stroke-width="3" stroke-linecap="round" stroke-linejoin="round"/></g><g id="eyes-variant01-48d2cb72"><path d="M19.8 37.8c2.2-3.1 9-8.4 19-4m36.8-.3c2.8-2.7 10.5-6.3 19.4 0" stroke="black" stroke-width="3" stroke-linecap="round" stroke-linejoin="round"/><path d="M28.3 33.3c-1 .5-2.7 2.1-1.5 4.5 1.5 3 6.5.5 6-1.5-.4-1.6-2.2-2-3-2m55-3.4c-1 .2-3 1.4-2.4 4 .8 3.3 6.3 2 6.2-.2 0-1.6-1.7-2.4-2.5-2.5m-70.6-7.8c5.4-1.7 18-3.6 25.7 2.2m31.5.6c3.4-5.4 14.3-11.2 22-7.6" stroke="black" stroke-width="3" stroke-linecap="round" stroke-linejoin="round"/></g><g id="head-variant05-48d2cb72"><path d="M74.8 140q3.2-8.4 5.4-12.2-.1-.6.1-1.1c3-4.9 9-9.3 16.4-12.9a91 91 0 0 1 26.3-7.5c19.2-2.5 40.7.5 53.9 14.4q.3.4.4 1 1.5 1.7 3.6 6a109 109 0 0 1 4.4 10.2q2.2-.8 4.6-.5a7 7 0 0 1 5.4 3.3c2 3.5 2.9 10 1.6 15.8a7 7 0 0 1-2.6 4.2 6 6 0 0 1-2.3 1q.8 4.2 1.3 8.5c2.8 23.3-1.3 49.6-26 62.6-23.6 12.4-47 16-65.6 12.3C83 241.3 69 230 65 212.6c-3.2-13.5-1.3-31 2.2-46.7q-2.4-.5-3.9-3-2-3.2-1.7-9.2.8-9.4 4.8-12.8A7 7 0 0 1 71 139a9 9 0 0 1 3.8.9" fill="#dda37a"/><path d="M80.6 127.2c-6.1 10-22.3 57.6-15.6 86.4 8.1 34.4 54.6 44.9 102.1 19.7 48.7-25.8 16.6-104.3 9.7-111.8" stroke="black" stroke-width="3" stroke-linecap="round" stroke-linejoin="round"/><path d="M185.8 139c2.6-1.2 7.4-1.4 9.3 1.9 1.8 3.2 2.7 9.3 1.4 15.1-.7 3.3-3 4.3-5 4.3M74 141.3c-5.9-3.5-11.4-.2-12.4 12.2-.7 7.9 2.9 11.4 5.4 11" stroke="black" stroke-width="3" stroke-linecap="round" stroke-linejoin="round"/><use transform="translate(118 154)" href="#nose-variant06-48d2cb72"/><use transform="translate(90 218)" href="#mouth-variant01-48d2cb72"/><use transform="translate(1 17)" href="#top-variant14-48d2cb72"/><use transform="translate(75 124)" href="#eyes-variant01-48d2cb72"/></g><clipPath id="clip-48d2cb72"><rect width="256" height="256" rx="0" ry="0"/></clipPath></defs><g clip-path="url(#clip-48d2cb72)"><use transform="translate(-1.5 -33.5)" href="#head-variant05-48d2cb72"/></g></svg>